{"glyphs":{"0":{"ha":954,"x_min":64,"x_max":886,"o":"m 563 979 q 688 953 629 979 q 791 884 747 928 q 860 781 835 840 q 886 656 886 722 l 886 114 q 860 -12 886 47 q 791 -115 835 -71 q 688 -184 747 -158 q 563 -210 629 -210 l 386 -210 q 260 -184 319 -210 q 158 -115 201 -158 q 89 -12 114 -71 q 64 114 64 47 l 64 656 q 89 781 64 722 q 158 884 114 840 q 260 953 201 928 q 386 979 319 979 l 563 979 m 685 619 q 673 677 685 650 q 642 724 661 704 q 596 756 622 744 q 539 768 569 768 l 410 768 q 353 756 379 768 q 306 724 326 744 q 275 677 286 704 q 264 619 264 650 l 264 150 q 275 92 264 119 q 306 45 286 65 q 353 13 326 25 q 410 1 379 1 l 539 1 q 596 13 569 1 q 642 45 622 25 q 673 92 661 65 q 685 150 685 119 l 685 619 z "},"1":{"ha":589,"x_min":82,"x_max":451,"o":"m 82 757 l 218 972 l 451 972 l 451 -210 l 250 -210 l 250 757 l 82 757 z "},"2":{"ha":844,"x_min":39,"x_max":810,"o":"m 50 53 q 285 244 172 144 q 503 439 399 343 q 551 487 531 465 q 583 531 571 508 q 602 581 596 554 q 608 647 608 608 q 597 703 608 676 q 567 749 586 729 q 522 779 547 768 q 468 790 497 790 l 371 790 q 316 779 342 790 q 271 749 290 768 q 240 703 251 729 q 229 647 229 676 l 229 606 l 39 606 l 39 683 q 63 803 39 747 q 130 901 88 860 q 228 967 172 943 q 349 992 285 992 l 500 992 q 620 967 564 992 q 719 901 676 943 q 785 803 761 860 q 810 683 810 747 l 810 657 q 805 561 810 604 q 786 479 800 518 q 746 404 772 440 q 678 328 719 368 q 469 140 578 233 q 250 -33 361 47 l 789 -33 l 789 -210 l 50 -210 l 50 53 z "},"3":{"ha":874,"x_min":28,"x_max":878,"o":"m 819 769 q 834 590 850 678 q 743 435 818 501 l 732 422 l 743 411 q 813 306 790 364 q 813 -10 878 147 q 749 -110 790 -65 q 654 -179 708 -154 q 574 -206 614 -197 q 495 -216 535 -214 q 415 -217 456 -218 q 332 -217 375 -217 q 214 -192 269 -217 q 117 -126 158 -168 q 51 -27 75 -83 q 28 93 28 29 l 28 128 l 215 128 q 225 74 215 97 q 259 26 236 44 q 311 -1 282 8 q 372 -14 340 -11 q 429 -15 403 -17 q 503 -6 465 -12 q 571 25 540 1 q 621 108 610 54 q 618 214 632 161 q 490 324 594 304 q 379 333 447 333 l 318 333 l 318 513 l 379 513 q 490 522 447 513 q 571 554 542 531 q 604 597 592 571 q 617 650 617 622 q 607 705 618 678 q 571 754 596 732 q 518 781 551 771 q 445 794 485 792 q 365 790 406 796 q 290 766 324 783 q 236 719 257 749 q 215 649 215 690 l 28 649 l 28 685 q 59 817 28 760 q 141 913 90 875 q 256 972 192 951 q 388 992 321 992 q 440 992 421 992 q 470 991 460 992 q 485 990 481 990 q 489 990 489 990 q 533 987 511 989 q 575 981 554 985 q 651 954 613 972 q 721 910 690 936 q 780 846 754 882 q 819 769 806 810 z "},"4":{"ha":972,"x_min":28,"x_max":944,"o":"m 764 207 l 944 207 l 944 26 l 764 26 l 764 -210 l 561 -210 l 561 24 l 28 24 l 28 207 l 411 972 l 764 972 l 764 207 m 561 207 l 561 811 l 250 207 l 561 207 z "},"5":{"ha":913,"x_min":43,"x_max":861,"o":"m 458 575 q 626 548 551 575 q 753 469 701 521 q 833 342 806 418 q 861 171 861 267 q 758 -126 861 -19 q 449 -233 656 -233 q 282 -210 357 -233 q 154 -140 207 -187 q 72 -21 101 -93 q 43 149 43 51 l 242 149 q 288 14 242 65 q 440 -37 335 -37 q 597 16 539 -37 q 654 169 654 69 q 638 265 654 226 q 591 328 621 304 q 521 362 561 351 q 435 372 481 372 q 274 318 324 372 l 71 318 l 71 965 l 804 965 l 804 758 l 290 758 l 290 542 q 364 567 317 560 q 458 575 411 575 z "},"6":{"ha":964,"x_min":78,"x_max":899,"o":"m 421 -217 q 288 -190 350 -217 q 178 -116 225 -162 q 105 -7 132 -69 q 78 126 78 56 l 78 183 l 78 197 l 78 640 q 105 774 78 711 q 178 884 132 838 q 288 958 225 931 q 421 985 350 985 l 569 985 q 694 960 638 985 q 794 894 751 936 q 863 794 836 851 q 896 671 889 738 l 678 671 q 644 748 668 717 q 568 779 619 779 l 422 779 q 326 735 361 779 q 290 629 290 692 l 290 501 q 421 528 354 528 l 556 528 q 689 501 626 528 q 798 427 751 474 q 872 317 844 381 q 899 183 899 254 l 899 126 q 872 -7 899 56 q 798 -116 844 -69 q 689 -190 751 -162 q 556 -217 626 -217 l 421 -217 m 290 132 q 328 31 293 72 q 422 -11 364 -11 l 554 -11 q 651 33 615 -11 q 686 139 686 76 l 686 172 q 651 278 686 235 q 554 322 615 322 l 422 322 q 326 279 361 322 q 290 174 290 236 l 290 132 z "},"7":{"ha":915,"x_min":61,"x_max":854,"o":"m 61 958 l 854 958 l 646 -210 l 424 -210 l 590 744 l 281 744 l 281 568 l 61 568 l 61 958 z "},"8":{"ha":933,"x_min":64,"x_max":886,"o":"m 538 986 q 667 961 608 986 q 767 892 725 936 q 831 788 808 849 q 853 656 853 726 l 853 604 q 833 490 853 542 q 776 396 813 438 q 856 299 826 357 q 886 169 886 242 l 886 93 q 860 -31 886 26 q 791 -129 835 -87 q 688 -194 747 -171 q 563 -217 629 -217 l 386 -217 q 260 -194 319 -217 q 158 -129 201 -171 q 89 -31 114 -87 q 64 93 64 26 l 64 169 q 94 301 64 243 q 175 399 124 360 q 121 491 140 439 q 101 604 101 543 l 101 656 q 124 788 101 726 q 188 892 147 849 q 288 961 229 936 q 417 986 346 986 l 538 986 m 685 139 q 642 241 685 201 q 539 281 600 281 l 524 281 l 510 281 l 444 281 l 431 281 l 410 281 q 306 241 349 281 q 264 139 264 201 l 264 118 q 306 19 264 56 q 410 -17 349 -17 l 539 -17 q 642 19 600 -17 q 685 118 685 56 l 685 139 m 646 642 q 639 699 646 672 q 617 747 632 726 q 581 780 603 768 q 528 792 558 792 l 426 792 q 337 747 365 792 q 308 642 308 703 l 308 615 q 337 510 308 554 q 426 465 365 465 l 528 465 q 581 477 558 465 q 617 510 603 489 q 639 558 632 531 q 646 615 646 585 l 646 642 z "},"9":{"ha":888,"x_min":53,"x_max":832,"o":"m 544 986 q 669 961 615 986 q 760 892 724 936 q 814 788 796 849 q 832 656 832 726 l 832 501 q 804 346 832 417 l 699 -210 l 503 -210 l 576 174 q 560 172 568 172 q 544 172 553 172 l 340 172 q 216 197 269 172 q 126 266 163 222 q 71 370 89 310 q 53 501 53 431 l 53 656 q 71 788 53 726 q 126 892 89 849 q 216 961 163 936 q 340 986 269 986 l 544 986 m 619 644 q 598 744 619 707 q 515 781 576 781 l 369 781 q 287 744 308 781 q 265 644 265 707 l 265 514 q 287 415 265 451 q 369 378 308 378 l 515 378 q 598 415 576 378 q 619 514 619 451 l 619 644 z "},"\u0000":{"ha":444,"x_min":0,"x_max":0,"o":""},"!":{"ha":528,"x_min":161,"x_max":365,"o":"m 365 89 l 161 89 l 161 1049 l 365 1049 l 365 89 m 365 -210 l 161 -210 l 161 -7 l 365 -7 l 365 -210 z "},"\"":{"ha":525,"x_min":32,"x_max":481,"o":"m 78 800 l 32 1097 l 217 1097 l 244 800 l 78 800 m 314 800 l 268 1097 l 453 1097 l 481 800 l 314 800 z "},"#":{"ha":1293,"x_min":28,"x_max":1265,"o":"m 308 238 l 389 476 l 178 476 l 253 672 l 454 672 l 547 949 l 746 949 l 653 672 l 854 672 l 947 949 l 1144 949 l 1051 672 l 1265 672 l 1190 476 l 986 476 l 906 238 l 1115 238 l 1040 42 l 840 42 l 743 -250 l 544 -250 l 642 42 l 442 42 l 344 -250 l 144 -250 l 242 42 l 28 42 l 103 238 l 308 238 m 507 238 l 708 238 l 789 476 l 588 476 l 507 238 z "},"$":{"ha":968,"x_min":42,"x_max":926,"o":"m 607 488 q 732 462 674 488 q 833 392 790 436 q 901 290 876 349 q 926 164 926 231 q 901 39 926 97 q 833 -63 876 -19 q 731 -133 789 -107 q 607 -158 674 -158 l 601 -158 l 571 -158 l 571 -250 l 397 -250 l 397 -160 l 97 -160 l 97 25 l 397 25 l 397 304 l 363 304 q 238 330 296 304 q 135 399 179 356 q 67 502 92 443 q 42 628 42 561 q 67 753 42 694 q 135 855 92 811 q 238 924 179 899 q 363 950 296 950 l 397 950 l 397 1042 l 571 1042 l 571 950 l 785 950 l 785 767 l 571 767 l 571 488 l 607 488 m 571 304 l 571 25 l 610 25 q 704 67 665 28 q 743 164 743 107 q 732 219 743 193 q 702 263 721 244 q 658 293 683 282 q 604 304 633 304 l 571 304 m 225 628 q 264 531 225 571 q 360 488 303 490 l 397 488 l 397 767 l 364 767 q 265 726 306 767 q 225 628 225 686 z "},"%":{"ha":1207,"x_min":28,"x_max":1179,"o":"m 918 1011 l 496 -250 l 296 -250 l 721 1011 l 918 1011 m 301 958 q 363 944 333 958 q 414 907 392 931 q 449 852 436 883 q 463 786 463 821 l 463 628 q 450 559 463 592 q 415 503 438 526 q 364 465 393 479 q 301 451 335 451 l 189 451 q 126 465 156 451 q 75 503 97 479 q 40 559 53 526 q 28 628 28 592 l 28 779 q 40 844 28 813 q 75 902 53 876 q 126 943 97 928 q 189 958 156 958 l 301 958 m 318 744 q 303 784 318 768 q 269 800 289 800 l 221 800 q 187 784 201 800 q 172 744 172 768 l 172 664 q 187 626 172 642 q 221 610 201 610 l 269 610 q 303 626 289 610 q 318 664 318 642 l 318 744 m 1018 310 q 1079 296 1050 310 q 1131 258 1108 282 q 1166 203 1153 235 q 1179 138 1179 172 l 1179 -21 q 1167 -90 1179 -57 q 1132 -146 1154 -122 q 1081 -183 1110 -169 q 1018 -197 1051 -197 l 906 -197 q 843 -183 872 -197 q 792 -146 814 -169 q 757 -90 769 -122 q 744 -21 744 -57 l 744 131 q 757 196 744 164 q 792 253 769 228 q 843 294 814 279 q 906 310 872 310 l 1018 310 m 1035 96 q 1020 135 1035 119 q 986 151 1006 151 l 938 151 q 903 135 918 151 q 889 96 889 119 l 889 15 q 903 -23 889 -7 q 938 -39 918 -39 l 986 -39 q 1020 -23 1006 -39 q 1035 15 1035 -7 l 1035 96 z "},"&":{"ha":1043,"x_min":93,"x_max":1007,"o":"m 1007 -224 l 790 -224 l 714 -124 q 679 -167 697 -147 q 640 -203 661 -187 q 590 -227 618 -218 q 525 -236 563 -236 l 285 -236 q 206 -219 242 -236 q 146 -173 171 -203 q 107 -101 121 -143 q 93 -10 93 -60 l 93 231 q 113 301 93 269 q 159 358 132 333 q 215 402 186 383 q 263 436 243 421 q 226 482 246 457 q 188 538 206 507 q 157 603 169 568 q 143 681 144 639 l 143 767 q 160 902 143 847 q 208 991 176 957 q 285 1040 239 1025 q 393 1056 332 1056 l 525 1056 q 709 985 651 1056 q 767 767 767 914 l 767 667 q 700 511 760 576 q 536 385 640 446 l 704 164 l 811 332 l 942 254 l 803 26 l 1007 -224 m 417 878 q 333 769 333 878 l 333 681 q 345 638 333 663 q 373 589 357 613 q 405 546 389 565 q 429 521 421 526 q 482 556 456 538 q 529 592 508 574 q 563 630 550 611 q 576 667 575 649 l 576 769 q 557 852 576 826 q 493 878 538 878 l 417 878 m 278 33 q 300 -38 278 -17 q 361 -60 322 -60 l 486 -60 q 526 -53 508 -60 q 557 -35 543 -46 q 582 -10 571 -24 q 601 15 593 3 l 386 306 q 357 284 375 297 q 321 256 339 271 q 290 227 303 242 q 278 200 278 213 l 278 33 z "},"'":{"ha":325,"x_min":60,"x_max":272,"o":"m 60 800 l 88 1097 l 272 1097 l 226 800 l 60 800 z "},"(":{"ha":431,"x_min":42,"x_max":403,"o":"m 403 1064 q 276 751 318 913 q 235 426 235 590 q 276 103 235 263 q 403 -207 318 -57 l 214 -207 q 85 101 128 -58 q 42 425 42 261 q 85 751 42 589 q 214 1064 128 913 l 403 1064 z "},")":{"ha":431,"x_min":42,"x_max":403,"o":"m 231 1064 q 360 751 317 913 q 403 425 403 589 q 360 101 403 261 q 231 -207 317 -58 l 42 -207 q 168 103 126 -57 q 210 426 210 263 q 168 751 210 590 q 42 1064 126 913 l 231 1064 z "},"*":{"ha":904,"x_min":42,"x_max":863,"o":"m 321 297 l 42 297 l 42 456 l 321 456 l 189 701 l 328 775 l 453 543 l 578 775 l 717 701 l 585 456 l 863 456 l 863 297 l 585 297 l 717 53 l 576 -22 l 451 210 l 328 -22 l 189 53 l 321 297 z "},"+":{"ha":778,"x_min":56,"x_max":738,"o":"m 482 504 l 738 504 l 738 332 l 482 332 l 482 78 l 310 78 l 310 332 l 56 332 l 56 504 l 310 504 l 310 760 l 482 760 l 482 504 z "},",":{"ha":328,"x_min":54,"x_max":288,"o":"m 54 -278 l 82 -50 l 288 -50 l 242 -278 l 54 -278 z "},"-":{"ha":825,"x_min":83,"x_max":733,"o":"m 733 515 l 733 326 l 83 326 l 83 515 l 733 515 z "},".":{"ha":347,"x_min":82,"x_max":288,"o":"m 82 -250 l 82 -50 l 288 -50 l 288 -250 l 82 -250 z "},"/":{"ha":686,"x_min":32,"x_max":654,"o":"m 654 1011 l 232 -250 l 32 -250 l 457 1011 l 654 1011 z "},":":{"ha":379,"x_min":97,"x_max":294,"o":"m 97 106 l 294 106 l 294 -83 l 97 -83 l 97 106 m 97 674 l 294 674 l 294 485 l 97 485 l 97 674 z "},";":{"ha":385,"x_min":72,"x_max":293,"o":"m 93 675 l 290 675 l 290 486 l 93 486 l 93 675 m 92 94 l 293 94 l 226 -212 l 72 -212 l 92 94 z "},"<":{"ha":597,"x_min":44,"x_max":547,"o":"m 324 1058 l 547 1058 l 267 433 l 547 -207 l 324 -207 l 44 433 l 324 1058 z "},"=":{"ha":781,"x_min":56,"x_max":724,"o":"m 724 657 l 724 485 l 56 485 l 56 657 l 724 657 m 724 351 l 724 179 l 56 179 l 56 351 l 724 351 z "},">":{"ha":614,"x_min":44,"x_max":547,"o":"m 547 433 l 268 -207 l 44 -207 l 325 433 l 44 1058 l 268 1058 l 547 433 z "},"?":{"ha":811,"x_min":53,"x_max":767,"o":"m 53 714 q 62 828 53 769 q 96 936 71 888 q 165 1017 121 985 q 279 1049 208 1049 l 522 1049 q 624 1026 581 1049 q 697 966 668 1003 q 742 883 726 929 q 763 789 758 836 q 759 698 767 742 q 735 622 751 654 l 540 265 l 540 110 l 340 110 l 340 286 l 525 608 q 547 676 540 635 q 547 757 553 718 q 520 824 540 796 q 464 851 500 851 l 351 851 q 302 842 321 851 q 272 814 283 832 q 257 770 261 796 q 253 714 253 744 l 53 714 m 544 -210 l 340 -210 l 340 -7 l 544 -7 l 544 -210 z "},"@":{"ha":1215,"x_min":56,"x_max":1154,"o":"m 1053 1 q 977 -14 1014 -22 q 892 29 940 -6 q 848 60 869 44 q 807 93 826 75 q 675 39 744 39 l 536 39 q 458 56 494 39 q 395 103 422 74 q 353 174 368 133 q 338 260 338 214 l 338 404 q 349 471 338 435 q 385 538 361 507 q 445 589 410 568 q 528 610 481 610 l 631 610 q 697 601 668 610 q 736 579 725 592 l 736 628 l 875 628 l 875 268 q 899 227 875 250 q 950 186 924 204 q 967 178 957 181 q 982 192 976 176 l 982 478 q 959 588 982 536 q 897 680 936 640 q 805 743 857 719 q 696 767 753 767 l 524 767 q 417 742 468 767 q 328 678 367 718 q 265 585 289 638 q 242 478 242 533 l 242 196 q 263 84 242 135 q 322 -3 285 33 q 408 -59 358 -39 q 511 -79 457 -79 l 694 -79 l 1044 -78 l 1044 -239 l 486 -239 q 313 -204 392 -239 q 176 -109 233 -169 q 88 33 119 -49 q 56 206 56 114 l 56 501 q 96 674 56 593 q 203 816 136 756 q 359 911 271 876 q 542 946 447 946 l 681 946 q 862 911 776 946 q 1013 816 947 876 q 1116 674 1078 756 q 1154 501 1154 593 l 1154 275 q 1152 174 1154 215 q 1141 103 1150 133 q 1111 50 1132 74 q 1053 1 1090 26 m 718 371 q 695 442 718 414 q 624 471 672 471 l 576 471 q 511 442 536 471 q 486 371 486 414 l 486 288 q 490 257 486 274 q 505 226 494 240 q 531 203 515 213 q 572 194 547 194 l 642 194 q 679 204 664 194 q 703 228 694 214 q 715 258 711 242 q 718 288 718 275 l 718 371 z "},"A":{"ha":926,"x_min":46,"x_max":867,"o":"m 617 -29 l 299 -29 l 256 -210 l 46 -210 l 349 972 l 575 972 l 867 -210 l 658 -210 l 617 -29 m 340 146 l 576 146 l 467 629 l 456 629 l 340 146 z "},"B":{"ha":924,"x_min":74,"x_max":893,"o":"m 878 588 q 856 476 878 531 q 794 382 833 422 l 796 382 q 870 290 847 344 q 893 176 893 235 l 893 103 q 872 -29 893 29 q 814 -128 851 -87 q 725 -189 776 -168 q 611 -210 674 -210 l 74 -210 l 74 972 l 596 972 q 710 951 658 972 q 800 892 763 931 q 858 801 838 854 q 878 683 878 747 l 878 588 m 278 481 l 558 481 q 603 491 582 481 q 640 519 624 501 q 665 560 656 536 q 674 610 674 583 l 674 628 q 665 677 674 654 q 640 718 656 700 q 603 747 624 736 q 558 757 582 757 l 278 757 l 278 481 m 689 151 q 680 201 689 178 q 655 242 671 225 q 617 270 639 260 q 572 281 596 281 l 278 281 l 278 8 l 572 8 q 617 19 596 8 q 655 47 639 29 q 680 88 671 64 q 689 139 689 111 l 689 151 z "},"C":{"ha":956,"x_min":78,"x_max":896,"o":"m 568 -4 q 642 26 618 -4 q 676 100 665 56 l 896 100 q 863 -22 889 35 q 794 -119 836 -78 q 694 -185 751 -161 q 569 -210 636 -210 l 421 -210 q 288 -183 350 -210 q 178 -109 225 -156 q 105 0 132 -62 q 78 133 78 63 l 78 628 q 105 762 78 699 q 178 872 132 825 q 288 945 225 918 q 421 972 350 972 l 569 972 q 694 948 638 972 q 794 881 751 924 q 863 782 836 839 q 896 658 889 725 l 678 658 q 644 735 668 704 q 568 767 619 767 l 422 767 q 326 723 361 767 q 290 617 290 679 l 290 146 q 326 40 290 83 q 422 -4 361 -4 l 568 -4 l 568 -4 z "},"D":{"ha":989,"x_min":89,"x_max":908,"o":"m 89 972 l 628 972 q 738 948 686 972 q 826 881 789 924 q 886 781 864 838 q 908 660 908 724 l 908 103 q 886 -19 908 38 q 826 -118 864 -75 q 738 -185 789 -161 q 628 -210 686 -210 l 89 -210 l 89 972 m 575 8 q 622 19 600 8 q 659 47 643 29 q 684 88 675 64 q 693 139 693 111 l 693 625 q 684 675 693 651 q 659 717 675 699 q 622 745 643 735 q 575 756 600 756 l 306 756 l 306 8 l 575 8 z "},"E":{"ha":989,"x_min":89,"x_max":901,"o":"m 313 -10 l 901 -10 l 901 -210 l 89 -210 l 89 972 l 901 972 l 901 772 l 313 772 l 313 481 l 901 481 l 901 283 l 313 283 l 313 -10 z "},"F":{"ha":958,"x_min":89,"x_max":903,"o":"m 289 -210 l 89 -210 l 89 972 l 901 972 l 901 772 l 283 772 l 283 481 l 903 481 l 903 283 l 289 283 l 289 -210 z "},"G":{"ha":972,"x_min":78,"x_max":897,"o":"m 575 -4 q 656 26 625 -4 q 699 100 688 56 l 699 296 l 501 296 l 501 481 l 897 481 l 897 -210 l 699 -210 l 699 -172 q 622 -200 663 -190 q 540 -210 582 -210 l 421 -210 q 288 -183 350 -210 q 178 -109 225 -156 q 105 0 132 -62 q 78 133 78 63 l 78 628 q 105 762 78 699 q 178 872 132 825 q 288 945 225 918 q 421 972 350 972 l 569 972 q 694 948 638 972 q 794 881 751 924 q 863 782 836 839 q 896 658 889 725 l 682 658 q 645 735 671 704 q 568 767 619 767 l 422 767 q 367 755 392 767 q 324 722 342 743 q 297 674 307 701 q 288 617 288 647 l 288 146 q 297 88 288 115 q 324 40 307 61 q 367 8 342 19 q 422 -4 392 -4 l 575 -4 l 575 -4 z "},"H":{"ha":985,"x_min":82,"x_max":901,"o":"m 901 -210 l 682 -210 l 682 283 l 303 283 l 303 -210 l 82 -210 l 82 972 l 303 972 l 303 481 l 682 481 l 682 972 l 901 972 l 901 -210 z "},"I":{"ha":397,"x_min":89,"x_max":308,"o":"m 89 972 l 308 972 l 308 -210 l 89 -210 l 89 972 z "},"J":{"ha":829,"x_min":24,"x_max":776,"o":"m 776 133 q 749 0 776 63 q 675 -109 722 -62 q 566 -183 628 -156 q 433 -210 504 -210 l 349 -210 q 225 -185 282 -210 q 125 -119 168 -161 q 56 -22 82 -78 q 24 100 29 35 l 238 100 q 275 26 249 56 q 350 -4 301 -4 l 424 -4 q 479 8 454 -4 q 522 40 504 19 q 551 88 540 61 q 561 146 561 115 l 561 972 l 776 972 l 776 133 z "},"K":{"ha":935,"x_min":89,"x_max":908,"o":"m 463 389 l 685 89 q 797 -62 742 13 q 908 -210 853 -136 l 678 -210 l 322 257 l 313 257 l 313 -210 l 89 -210 l 89 972 l 313 972 l 313 506 l 322 506 l 678 972 l 907 972 l 463 389 z "},"L":{"ha":958,"x_min":61,"x_max":910,"o":"m 269 -10 l 910 -10 l 910 -210 l 61 -210 l 61 972 l 269 972 l 269 -10 z "},"M":{"ha":1050,"x_min":89,"x_max":976,"o":"m 526 118 l 538 118 q 633 544 585 332 q 728 971 681 757 l 976 971 l 976 -210 l 806 -210 l 806 558 l 794 558 q 709 174 754 365 q 624 -210 664 -18 l 433 -211 l 272 556 l 261 556 l 261 -210 l 89 -210 l 89 971 l 338 971 l 526 118 z "},"N":{"ha":981,"x_min":89,"x_max":908,"o":"m 300 564 l 300 -210 l 89 -210 l 89 972 l 300 972 l 701 192 l 701 972 l 908 972 l 908 -210 l 701 -210 l 300 564 z "},"O":{"ha":972,"x_min":74,"x_max":894,"o":"m 551 972 q 685 945 622 972 q 794 872 747 918 q 867 762 840 825 q 894 628 894 699 l 894 133 q 867 0 894 63 q 794 -109 840 -62 q 685 -183 747 -156 q 551 -210 622 -210 l 417 -210 q 283 -183 346 -210 q 174 -109 221 -156 q 101 0 128 -62 q 74 133 74 63 l 74 628 q 101 762 74 699 q 174 872 128 825 q 283 945 221 918 q 417 972 346 972 l 551 972 m 682 617 q 647 723 682 679 q 550 767 611 767 l 418 767 q 322 723 357 767 q 286 617 286 679 l 286 146 q 322 40 286 83 q 418 -4 357 -4 l 550 -4 q 647 40 611 -4 q 682 146 682 83 l 682 617 z "},"P":{"ha":940,"x_min":61,"x_max":889,"o":"m 568 972 q 694 947 635 972 q 796 878 753 922 q 864 776 839 835 q 889 651 889 718 l 889 600 q 864 475 889 533 q 796 373 839 417 q 694 304 753 329 q 568 279 635 279 l 269 279 l 269 -210 l 61 -210 l 61 972 l 568 972 m 269 765 l 269 486 l 533 486 q 642 523 608 486 q 676 625 676 560 q 642 726 676 688 q 533 765 607 765 l 269 765 z "},"Q":{"ha":1024,"x_min":78,"x_max":1013,"o":"m 557 972 q 690 945 628 972 q 799 872 753 918 q 872 762 846 825 q 899 628 899 699 l 899 133 q 889 53 899 92 q 863 -21 879 14 l 1013 -210 l 810 -210 l 757 -144 q 665 -192 715 -175 q 557 -210 614 -210 l 421 -210 q 288 -183 350 -210 q 178 -109 225 -156 q 105 0 132 -62 q 78 133 78 63 l 78 628 q 105 762 78 699 q 178 872 132 825 q 288 945 225 918 q 421 972 350 972 l 557 972 m 686 201 l 686 617 q 677 674 686 647 q 651 722 668 701 q 609 755 633 743 q 556 767 585 767 l 422 767 q 326 723 361 767 q 290 617 290 679 l 290 146 q 326 40 290 83 q 422 -4 361 -4 l 556 -4 q 626 18 596 -4 l 392 311 l 600 311 l 686 201 z "},"R":{"ha":983,"x_min":89,"x_max":938,"o":"m 308 268 l 308 -210 l 89 -210 l 89 972 l 596 972 q 722 947 663 972 q 824 878 781 922 q 892 776 867 835 q 917 651 917 718 l 917 600 q 892 475 917 533 q 824 373 867 417 q 722 304 781 329 q 596 279 663 279 l 536 279 l 938 -210 l 686 -210 l 308 268 m 308 765 l 308 486 l 561 486 q 670 523 636 486 q 704 625 704 560 q 669 726 704 688 q 561 765 635 765 l 308 765 z "},"S":{"ha":1013,"x_min":56,"x_max":957,"o":"m 614 524 q 751 496 688 524 q 860 418 814 468 q 931 299 906 368 q 957 150 957 231 q 933 8 957 74 q 867 -106 910 -58 q 764 -182 824 -154 q 632 -210 704 -210 l 93 -210 l 93 10 l 569 10 q 636 18 604 10 q 691 44 668 26 q 728 88 714 61 q 742 150 742 114 q 697 256 742 218 q 586 293 653 293 l 446 293 q 285 313 357 293 q 162 374 213 332 q 83 481 111 415 q 56 639 56 547 q 78 765 56 704 q 140 871 100 825 q 238 944 181 917 q 364 972 294 972 l 853 972 l 853 742 l 454 742 q 391 738 421 742 q 339 722 361 733 q 304 688 317 710 q 292 628 292 665 q 321 553 292 583 q 401 524 350 524 l 614 524 z "},"T":{"ha":878,"x_min":31,"x_max":850,"o":"m 333 754 l 31 754 l 31 972 l 850 972 l 850 754 l 544 754 l 544 -210 l 333 -210 l 333 754 z "},"U":{"ha":981,"x_min":89,"x_max":910,"o":"m 910 133 q 883 0 910 63 q 810 -109 857 -62 q 701 -183 764 -156 q 568 -210 639 -210 l 433 -210 q 300 -183 363 -210 q 190 -109 238 -156 q 116 0 143 -62 q 89 133 89 63 l 89 972 l 303 972 l 303 146 q 314 88 303 115 q 345 40 325 61 q 392 8 365 19 q 449 -4 418 -4 l 551 -4 q 608 8 582 -4 q 654 40 635 19 q 685 88 674 61 q 697 146 697 115 l 697 972 l 910 972 l 910 133 z "},"V":{"ha":926,"x_min":46,"x_max":864,"o":"m 454 197 l 465 197 q 558 583 510 392 q 653 972 606 774 l 864 972 l 574 -210 l 347 -210 l 46 972 l 258 972 l 454 197 z "},"W":{"ha":1493,"x_min":31,"x_max":1458,"o":"m 1047 197 l 1058 197 q 1151 583 1104 393 q 1247 972 1199 774 l 1458 972 l 1167 -210 l 940 -210 l 746 551 l 558 -210 l 332 -210 l 31 972 l 243 972 l 439 197 l 450 197 l 496 386 q 567 678 532 533 q 639 972 603 824 l 851 972 l 1047 197 z "},"X":{"ha":900,"x_min":46,"x_max":867,"o":"m 586 389 l 867 -210 l 643 -210 l 464 226 l 453 226 l 269 -210 l 46 -210 l 318 389 q 181 681 251 533 q 46 972 111 829 l 269 972 l 453 596 l 464 596 q 507 688 485 642 q 553 783 529 735 l 643 972 l 867 972 l 586 389 z "},"Y":{"ha":875,"x_min":31,"x_max":851,"o":"m 331 328 l 31 972 l 256 972 l 438 596 l 449 596 q 492 688 469 642 q 538 783 514 735 l 628 972 l 851 972 l 542 326 l 542 -210 l 331 -210 l 331 328 z "},"Z":{"ha":918,"x_min":46,"x_max":864,"o":"m 635 772 l 46 772 l 46 972 l 864 972 l 864 774 l 275 -10 l 864 -10 l 864 -210 l 46 -210 l 46 -10 l 635 772 z "},"[":{"ha":539,"x_min":54,"x_max":475,"o":"m 54 1064 l 475 1064 l 475 865 l 258 865 l 258 -10 l 475 -10 l 475 -208 l 54 -208 l 54 1064 z "},"\\":{"ha":1264,"x_min":43,"x_max":1221,"o":"m 132 682 l 81 972 l 272 972 l 317 682 l 496 682 l 543 972 l 714 972 l 764 682 l 942 682 l 985 972 l 1175 972 l 1125 682 l 1221 682 l 1221 493 l 1093 493 l 974 -210 l 747 -210 l 629 469 l 518 -210 l 292 -210 l 167 493 l 43 493 l 43 682 l 132 682 m 865 156 l 914 493 l 796 493 l 854 156 l 865 156 m 410 156 l 464 493 l 346 493 l 399 156 l 410 156 z "},"]":{"ha":522,"x_min":54,"x_max":475,"o":"m 475 -208 l 54 -208 l 54 -10 l 271 -10 l 271 865 l 54 865 l 54 1064 l 475 1064 l 475 -208 z "},"^":{"ha":675,"x_min":28,"x_max":647,"o":"m 221 621 l 28 621 l 226 1001 l 442 1001 l 647 621 l 453 621 l 339 856 l 221 621 z "},"_":{"ha":724,"x_min":56,"x_max":668,"o":"m 668 -65 l 668 -237 l 56 -237 l 56 -65 l 668 -65 z "},"`":{"ha":288,"x_min":32,"x_max":244,"o":"m 78 800 l 32 1097 l 217 1097 l 244 800 l 78 800 z "},"a":{"ha":840,"x_min":44,"x_max":776,"o":"m 53 394 q 77 500 57 450 q 135 589 97 550 q 231 651 174 628 q 363 674 288 674 l 467 674 q 603 648 544 674 q 699 579 661 622 q 757 482 738 536 q 776 372 776 428 l 776 -210 l 283 -210 q 181 -188 225 -210 q 106 -131 136 -167 q 60 -46 75 -94 q 44 57 44 3 q 60 158 44 111 q 106 240 76 206 q 180 293 136 274 q 279 313 224 313 l 576 313 l 576 331 q 572 388 576 361 q 552 435 567 415 q 510 465 538 454 q 436 476 482 476 l 393 476 q 293 456 322 476 q 253 394 264 436 l 53 394 m 231 57 q 249 -9 231 13 q 290 -31 268 -31 l 576 -31 l 576 146 l 290 146 q 249 124 268 146 q 231 57 231 101 z "},"b":{"ha":843,"x_min":60,"x_max":782,"o":"m 456 674 q 591 651 531 674 q 694 586 651 628 q 759 485 736 544 q 782 351 782 425 l 782 114 q 759 -19 782 40 q 694 -122 736 -79 q 591 -187 651 -164 q 456 -210 531 -210 l 385 -210 q 249 -187 310 -210 q 147 -122 189 -164 q 82 -19 104 -79 q 60 114 60 40 l 60 351 l 60 365 l 60 972 l 264 972 l 264 651 q 400 674 328 674 l 456 674 m 385 475 q 298 440 331 475 q 264 351 265 406 l 264 119 q 297 26 264 63 q 385 -10 329 -10 l 456 -10 q 546 26 511 -10 q 581 119 581 63 l 581 346 q 546 439 581 403 q 456 475 511 475 l 385 475 z "},"c":{"ha":783,"x_min":40,"x_max":754,"o":"m 438 -10 q 508 10 479 -10 q 547 65 538 29 l 753 65 q 656 -135 738 -61 q 438 -210 575 -210 l 367 -210 q 231 -187 292 -210 q 128 -122 171 -164 q 63 -19 86 -79 q 40 114 40 40 l 40 351 q 63 485 40 425 q 128 586 86 544 q 231 651 171 628 q 367 674 292 674 l 438 674 q 660 599 578 674 q 754 394 742 525 l 549 394 q 510 453 539 432 q 438 475 482 475 l 367 475 q 275 439 311 475 q 239 346 239 403 l 239 119 q 275 26 239 63 q 367 -10 311 -10 l 438 -10 l 438 -10 z "},"d":{"ha":826,"x_min":53,"x_max":775,"o":"m 378 -210 q 242 -187 303 -210 q 140 -122 182 -164 q 75 -19 97 -79 q 53 114 53 40 l 53 351 q 75 485 53 425 q 140 586 97 544 q 242 651 182 628 q 378 674 303 674 l 449 674 q 579 653 521 674 l 579 972 l 775 972 l 775 -210 l 378 -210 m 579 -10 l 579 346 q 542 439 579 403 q 449 475 504 475 l 378 475 q 283 439 322 475 q 244 346 244 403 l 244 119 q 283 26 244 63 q 378 -10 322 -10 l 579 -10 z "},"e":{"ha":878,"x_min":56,"x_max":822,"o":"m 56 360 q 80 481 56 424 q 144 581 104 538 q 236 649 185 624 q 340 674 288 674 l 538 674 q 658 645 606 674 q 747 572 711 617 q 803 473 783 528 q 822 367 822 418 l 822 143 l 260 143 l 260 96 q 295 8 260 33 q 388 -18 331 -18 l 792 -18 l 792 -212 l 342 -212 q 231 -190 283 -212 q 140 -126 179 -167 q 78 -31 101 -86 q 56 90 56 25 l 56 360 m 263 307 l 621 307 l 621 317 q 586 428 621 383 q 493 472 551 472 l 385 472 q 335 460 357 472 q 297 426 313 447 q 272 376 281 404 q 263 317 263 347 l 263 307 z "},"f":{"ha":635,"x_min":46,"x_max":581,"o":"m 581 786 l 518 786 q 422 750 458 786 q 385 657 385 714 l 385 618 l 581 618 l 581 419 l 385 419 l 385 -211 l 203 -211 l 203 419 l 46 419 l 46 618 l 203 618 l 203 649 q 224 782 203 722 q 285 884 244 842 q 385 949 326 926 q 518 972 443 972 l 581 972 l 581 786 z "},"g":{"ha":843,"x_min":56,"x_max":785,"o":"m 785 674 l 785 -211 q 764 -337 785 -282 q 706 -431 743 -392 q 617 -490 669 -469 q 503 -510 565 -510 l 106 -510 l 106 -317 l 471 -317 q 560 -284 524 -317 q 596 -193 596 -251 l 596 -182 l 338 -182 q 228 -162 279 -182 q 138 -102 176 -142 q 78 -4 100 -62 q 56 131 56 54 l 56 361 q 78 496 56 438 q 138 594 100 554 q 228 653 176 633 q 338 674 279 674 l 785 674 m 594 481 l 381 481 q 331 469 354 481 q 291 439 308 458 q 264 394 274 419 q 254 340 254 369 l 254 153 q 264 98 254 124 q 291 53 274 72 q 331 22 308 33 q 381 11 354 11 l 594 11 l 594 481 z "},"h":{"ha":857,"x_min":75,"x_max":799,"o":"m 415 476 q 341 465 369 476 q 297 435 313 454 q 275 388 281 415 q 269 331 269 361 l 269 -210 l 75 -210 l 75 972 l 269 972 l 269 656 q 324 669 294 664 q 385 674 353 674 l 489 674 q 624 648 565 674 q 721 579 682 622 q 779 482 760 536 q 799 372 799 428 l 799 -210 l 603 -210 l 603 331 q 597 388 603 361 q 576 435 592 415 q 532 465 560 454 q 458 476 504 476 l 415 476 z "},"i":{"ha":357,"x_min":76,"x_max":281,"o":"m 281 -210 l 76 -210 l 76 674 l 281 674 l 281 -210 m 281 769 l 76 769 l 76 972 l 281 972 l 281 769 z "},"j":{"ha":353,"x_min":-89,"x_max":274,"o":"m 271 769 l 79 769 l 79 972 l 271 972 l 271 769 m -89 -325 l -53 -325 q 40 -289 7 -325 q 74 -196 74 -253 l 74 674 l 274 674 l 274 -189 q 255 -322 274 -262 q 197 -424 236 -382 q 95 -488 157 -465 q -53 -511 33 -511 l -89 -511 l -89 -325 z "},"k":{"ha":806,"x_min":74,"x_max":806,"o":"m 806 -210 l 576 -210 l 278 126 l 278 -210 l 74 -210 l 74 972 l 278 972 l 278 394 l 560 674 l 800 674 l 375 265 l 806 -210 z "},"l":{"ha":375,"x_min":82,"x_max":286,"o":"m 82 972 l 286 972 l 286 -210 l 82 -210 l 82 972 z "},"m":{"ha":1418,"x_min":86,"x_max":1351,"o":"m 964 476 q 890 465 918 476 q 848 435 863 454 q 828 389 833 415 q 824 332 824 363 l 824 -210 l 619 -210 l 619 331 q 615 388 619 361 q 594 435 610 415 q 551 465 579 454 q 478 476 524 476 l 436 476 q 362 465 390 476 q 317 435 333 454 q 296 388 301 415 q 290 331 290 361 l 290 -210 l 86 -210 l 86 674 l 290 674 l 290 647 q 435 674 358 674 l 510 674 q 633 653 579 674 q 726 596 688 632 q 822 653 767 632 q 949 674 878 674 l 1038 674 q 1174 648 1115 674 q 1272 579 1232 622 q 1331 482 1311 536 q 1351 372 1351 428 l 1351 -210 l 1149 -210 l 1149 331 q 1144 388 1149 361 q 1124 435 1139 415 q 1081 465 1108 454 q 1007 476 1053 476 l 964 476 z "},"n":{"ha":878,"x_min":86,"x_max":824,"o":"m 436 476 q 362 465 390 476 q 317 435 333 454 q 296 388 301 415 q 290 331 290 361 l 290 -210 l 86 -210 l 86 674 l 290 674 l 290 651 q 419 674 350 674 l 510 674 q 645 648 586 674 q 744 579 704 622 q 803 482 783 536 q 824 372 824 428 l 824 -210 l 619 -210 l 619 331 q 615 388 619 361 q 594 435 610 415 q 551 465 579 454 q 478 476 524 476 l 436 476 z "},"o":{"ha":826,"x_min":50,"x_max":772,"o":"m 446 674 q 583 651 522 674 q 685 586 643 628 q 750 485 728 544 q 772 351 772 425 l 772 114 q 750 -19 772 40 q 685 -122 728 -79 q 583 -187 643 -164 q 446 -210 522 -210 l 375 -210 q 240 -187 300 -210 q 137 -122 179 -164 q 72 -19 94 -79 q 50 114 50 40 l 50 351 q 72 485 50 425 q 137 586 94 544 q 240 651 179 628 q 375 674 300 674 l 446 674 m 375 475 q 284 439 321 475 q 247 346 247 403 l 247 119 q 284 26 247 63 q 375 -10 321 -10 l 446 -10 q 538 26 501 -10 q 574 119 574 63 l 574 346 q 538 439 574 403 q 446 475 501 475 l 375 475 z "},"p":{"ha":831,"x_min":60,"x_max":782,"o":"m 456 674 q 591 651 531 674 q 694 586 651 628 q 759 485 736 544 q 782 351 782 425 l 782 114 q 759 -19 782 40 q 694 -122 736 -79 q 591 -187 651 -164 q 456 -210 531 -210 l 400 -210 q 260 -186 324 -210 l 260 -511 l 60 -511 l 60 674 l 456 674 m 260 475 l 260 119 q 294 26 260 63 q 385 -10 329 -10 l 456 -10 q 547 26 511 -10 q 583 119 583 63 l 583 346 q 547 439 583 403 q 456 475 511 475 l 260 475 z "},"q":{"ha":850,"x_min":60,"x_max":782,"o":"m 385 -210 q 249 -187 310 -210 q 147 -122 189 -164 q 82 -19 104 -79 q 60 114 60 40 l 60 351 q 82 485 60 425 q 147 586 104 544 q 249 651 189 628 q 385 674 310 674 l 782 674 l 782 114 l 782 99 l 782 -511 l 581 -511 l 581 -186 q 442 -210 517 -210 l 385 -210 m 456 -10 q 546 26 511 -10 q 581 119 581 63 l 581 475 l 385 475 q 293 439 329 475 q 257 346 257 403 l 257 119 q 293 26 257 63 q 385 -10 329 -10 l 456 -10 z "},"r":{"ha":739,"x_min":76,"x_max":686,"o":"m 292 493 q 357 564 317 533 q 447 615 397 594 q 551 647 496 636 q 663 657 607 657 l 686 657 l 686 442 l 663 442 q 534 416 600 442 q 414 350 468 390 q 326 259 360 310 q 292 158 292 208 l 292 -210 l 76 -210 l 76 681 l 292 681 l 292 493 l 292 493 z "},"s":{"ha":824,"x_min":56,"x_max":768,"o":"m 683 503 l 339 503 q 301 494 317 503 q 276 472 286 486 q 260 442 265 458 q 256 410 256 426 q 277 350 256 376 q 331 324 299 324 l 524 324 q 631 303 585 324 q 707 245 676 282 q 753 158 738 208 q 768 51 768 108 l 768 46 q 749 -58 768 -11 q 698 -139 731 -106 q 620 -191 665 -172 q 524 -210 575 -210 l 104 -210 l 104 -37 l 465 -37 q 539 -15 506 -37 q 575 53 572 7 l 575 51 q 565 94 575 76 q 540 122 556 111 q 506 139 525 133 q 465 144 486 144 l 310 144 q 183 169 232 144 q 105 231 133 193 q 66 318 76 269 q 56 417 56 367 q 72 518 56 469 q 117 603 88 567 q 192 662 147 640 q 296 683 238 683 l 683 683 l 683 503 z "},"t":{"ha":590,"x_min":31,"x_max":563,"o":"m 31 674 l 194 674 l 194 972 l 399 972 l 399 674 l 563 674 l 563 475 l 399 475 l 399 -210 l 194 -210 l 194 475 l 31 475 l 31 674 z "},"u":{"ha":868,"x_min":74,"x_max":804,"o":"m 457 -11 q 527 -1 500 -11 q 571 26 554 8 q 594 69 588 44 q 601 121 600 93 l 601 674 l 804 674 l 804 -210 l 601 -210 l 601 -187 q 540 -204 572 -199 q 472 -210 508 -210 l 383 -210 q 247 -183 306 -210 q 151 -115 189 -157 q 93 -18 113 -72 q 74 93 74 36 l 74 674 l 275 674 l 275 133 q 280 76 275 103 q 301 31 285 50 q 344 0 317 11 q 418 -11 372 -11 l 457 -11 z "},"v":{"ha":779,"x_min":22,"x_max":744,"o":"m 485 -210 l 290 -210 l 22 674 l 215 674 l 385 114 l 550 674 l 744 674 l 485 -210 z "},"w":{"ha":1296,"x_min":22,"x_max":1272,"o":"m 1014 -210 l 818 -210 l 649 347 l 485 -210 l 290 -210 l 22 674 l 215 674 l 385 114 l 550 674 l 744 674 l 914 117 l 1079 674 l 1272 674 l 1014 -210 z "},"x":{"ha":789,"x_min":33,"x_max":757,"o":"m 511 232 q 633 11 571 122 q 756 -210 696 -100 l 547 -210 l 394 90 l 242 -210 l 33 -210 l 268 228 l 33 674 l 242 674 l 394 365 l 547 674 l 757 674 l 511 232 z "},"y":{"ha":772,"x_min":31,"x_max":753,"o":"m 401 -511 l 210 -511 l 299 -207 l 31 674 l 224 674 l 393 110 l 560 674 l 753 674 l 401 -511 z "},"z":{"ha":736,"x_min":46,"x_max":690,"o":"m 690 485 l 286 -10 l 690 -10 l 690 -210 l 46 -210 l 46 -21 l 447 475 l 46 475 l 46 674 l 690 674 l 690 485 z "},"{":{"ha":579,"x_min":40,"x_max":517,"o":"m 151 318 l 40 458 l 151 625 l 124 883 q 149 1008 113 963 q 253 1051 185 1054 l 517 1050 l 517 851 l 389 851 q 342 844 360 854 q 328 810 325 833 l 356 625 l 244 457 l 356 319 l 328 129 q 323 90 325 110 q 324 55 321 71 q 336 28 326 39 q 369 14 346 17 l 517 -3 l 517 -208 l 242 -186 q 172 -161 197 -181 q 134 -110 146 -142 q 121 -37 122 -79 q 124 56 119 6 l 151 318 z "},"|":{"ha":338,"x_min":68,"x_max":272,"o":"m 68 972 l 272 972 l 272 -210 l 68 -210 l 68 972 z "},"}":{"ha":565,"x_min":40,"x_max":517,"o":"m 433 56 q 436 -37 438 6 q 423 -110 435 -79 q 385 -161 411 -142 q 315 -186 360 -181 l 40 -208 l 40 -3 l 188 14 q 220 28 210 17 q 233 55 231 39 q 234 90 236 71 q 229 129 232 110 l 201 319 l 313 457 l 201 625 l 229 810 q 215 844 232 833 q 168 851 197 854 l 40 851 l 40 1050 l 304 1051 q 408 1008 372 1054 q 433 883 444 963 l 406 625 l 517 458 l 406 318 l 433 56 z "},"~":{"ha":939,"x_min":57,"x_max":893,"o":"m 893 361 q 869 339 893 354 q 804 310 844 324 q 712 288 764 297 q 606 285 660 279 q 525 309 563 289 q 450 351 488 329 q 372 389 413 372 q 283 404 331 406 q 164 375 215 401 q 57 308 113 349 l 57 504 q 167 572 113 553 q 282 590 222 590 q 368 576 324 590 q 453 545 413 563 q 530 510 494 528 q 592 483 565 492 q 668 474 626 472 q 751 486 710 476 q 831 513 793 496 q 893 547 868 529 l 893 361 z "},"₩":{"ha":1293,"x_min":43,"x_max":1221,"o":"m 132 682 l 81 972 l 272 972 l 317 682 l 496 682 l 543 972 l 714 972 l 764 682 l 942 682 l 985 972 l 1175 972 l 1125 682 l 1221 682 l 1221 493 l 1093 493 l 974 -210 l 747 -210 l 629 469 l 518 -210 l 292 -210 l 167 493 l 43 493 l 43 682 l 132 682 m 865 156 l 914 493 l 796 493 l 854 156 l 865 156 m 410 156 l 464 493 l 346 493 l 399 156 l 410 156 z "},"‐":{"ha":608,"x_min":56,"x_max":543,"o":"m 543 504 l 543 332 l 56 332 l 56 504 l 543 504 z "},"©":{"ha":1238,"x_min":69,"x_max":1182,"o":"m 722 974 q 901 939 818 974 q 1047 844 985 904 q 1146 702 1110 783 q 1182 529 1182 621 l 1182 233 q 1146 60 1182 142 q 1047 -81 1110 -21 q 901 -176 985 -142 q 722 -211 818 -211 l 528 -211 q 350 -176 433 -211 q 204 -81 267 -142 q 106 60 142 -21 q 69 233 69 142 l 69 529 q 106 702 69 621 q 204 844 142 783 q 350 939 267 904 q 528 974 433 974 l 722 974 m 256 238 q 281 116 256 171 q 349 23 306 61 q 447 -37 392 -15 q 564 -58 503 -58 l 688 -58 q 800 -37 746 -58 q 896 24 854 -15 q 965 117 938 63 q 996 238 992 171 l 996 533 q 972 644 996 593 q 908 732 949 694 q 815 790 868 769 q 703 811 761 811 l 553 811 q 440 791 493 811 q 345 735 386 771 q 280 647 304 699 q 256 533 256 596 l 256 238 m 647 210 q 694 223 675 210 q 719 260 713 236 l 857 260 q 793 125 847 175 q 647 75 739 75 l 599 75 q 439 134 497 75 q 381 293 381 193 l 381 450 q 439 608 381 549 q 599 667 497 667 l 647 667 q 795 617 740 667 q 858 479 850 567 l 721 479 q 694 519 714 504 q 647 533 675 533 l 599 533 q 538 509 563 533 q 514 447 514 485 l 514 296 q 538 234 514 258 q 599 210 563 210 l 647 210 z "},"　":{"ha":1306,"x_min":0,"x_max":0,"o":""},"、":{"ha":1007,"x_min":26,"x_max":444,"o":"m 313 -243 q 245 -156 278 -196 q 178 -80 213 -115 q 107 -11 144 -44 q 26 57 69 22 l 146 168 q 233 98 193 131 q 307 31 272 65 q 375 -39 342 -3 q 444 -118 408 -75 l 313 -243 z "},"。":{"ha":1142,"x_min":40,"x_max":483,"o":"m 261 -112 q 333 -81 304 -112 q 361 -8 361 -50 q 333 63 361 33 q 261 92 304 92 q 189 63 218 92 q 160 -8 160 33 q 189 -81 160 -50 q 261 -112 218 -112 m 261 -232 q 176 -214 217 -232 q 106 -166 136 -196 q 58 -95 75 -136 q 40 -8 40 -54 q 58 77 40 38 q 106 147 75 117 q 176 195 136 178 q 261 213 217 213 q 347 195 307 213 q 418 147 388 178 q 466 77 449 117 q 483 -8 483 38 q 465 -95 483 -54 q 417 -166 447 -136 q 347 -214 388 -196 q 261 -232 307 -232 z "},"·":{"ha":447,"x_min":126,"x_max":310,"o":"m 126 533 l 310 533 l 310 350 l 126 350 l 126 533 z "},"‥":{"ha":1181,"x_min":247,"x_max":933,"o":"m 753 532 l 933 532 l 933 350 l 753 350 l 753 532 m 247 532 l 428 532 l 428 350 l 247 350 l 247 532 z "},"…":{"ha":1278,"x_min":126,"x_max":1150,"o":"m 550 533 l 732 533 l 732 351 l 550 351 l 550 533 m 967 533 l 1150 533 l 1150 351 l 967 351 l 967 533 m 126 533 l 310 533 l 310 351 l 126 351 l 126 533 z "},"¨":{"ha":721,"x_min":158,"x_max":563,"o":"m 408 997 l 563 997 l 563 838 l 408 838 l 408 997 m 158 997 l 314 997 l 314 838 l 158 838 l 158 997 z "},"〃":{"ha":1250,"x_min":363,"x_max":921,"o":"m 718 565 l 921 565 l 756 171 l 622 171 l 718 565 m 456 565 l 657 565 l 496 171 l 363 171 l 456 565 z "},"­":{"ha":569,"x_min":74,"x_max":496,"o":"m 496 382 l 74 382 l 74 499 l 496 499 l 496 382 z "},"—":{"ha":1200,"x_min":7,"x_max":1193,"o":"m 1193 386 l 7 386 l 7 494 l 1193 494 l 1193 386 z "},"‖":{"ha":1250,"x_min":453,"x_max":797,"o":"m 563 -242 l 453 -242 l 453 1079 l 563 1079 l 563 -242 m 797 -242 l 686 -242 l 686 1079 l 797 1079 l 797 -242 z "},"＼":{"ha":1250,"x_min":47,"x_max":1203,"o":"m 1203 -150 l 1138 -214 l 47 989 l 111 1057 l 1203 -150 z "},"∼":{"ha":949,"x_min":57,"x_max":893,"o":"m 893 778 q 869 756 893 771 q 804 727 844 740 q 712 705 764 714 q 606 701 660 696 q 525 726 563 706 q 450 767 488 746 q 372 806 413 789 q 283 821 331 822 q 164 792 215 818 q 57 725 113 765 l 57 921 q 167 988 113 969 q 282 1007 222 1007 q 368 993 324 1007 q 453 962 413 979 q 530 926 494 944 q 592 900 565 908 q 668 891 626 889 q 751 903 710 893 q 831 929 793 913 q 893 964 868 946 l 893 778 z "},"‘":{"ha":361,"x_min":88,"x_max":300,"o":"m 133 800 l 88 1097 l 272 1097 l 300 800 l 133 800 z "},"’":{"ha":361,"x_min":60,"x_max":272,"o":"m 60 800 l 88 1097 l 272 1097 l 226 800 l 60 800 z "},"“":{"ha":535,"x_min":32,"x_max":481,"o":"m 78 800 l 32 1097 l 217 1097 l 244 800 l 78 800 m 314 800 l 268 1097 l 453 1097 l 481 800 l 314 800 z "},"”":{"ha":535,"x_min":32,"x_max":481,"o":"m 268 800 l 296 1097 l 481 1097 l 435 800 l 268 800 m 32 800 l 60 1097 l 244 1097 l 199 800 l 32 800 z "},"〔":{"ha":478,"x_min":38,"x_max":457,"o":"m 457 -86 l 392 -201 l 38 -8 l 38 849 l 392 1043 l 457 928 l 178 771 l 178 72 l 457 -86 z "},"〕":{"ha":497,"x_min":29,"x_max":447,"o":"m 447 -6 q 272 -103 360 -56 q 93 -200 183 -150 q 61 -142 76 -171 q 29 -83 46 -114 q 168 -5 99 -43 q 307 74 238 33 l 307 768 q 266 783 286 776 q 217 806 246 790 q 143 849 188 821 q 31 929 99 878 q 64 985 49 957 q 97 1042 79 1013 q 272 944 185 993 q 447 847 360 896 l 447 -6 z "},"〈":{"ha":649,"x_min":36,"x_max":614,"o":"m 614 -108 l 510 -182 l 36 424 l 508 1028 l 614 953 l 196 424 l 614 -108 z "},"〉":{"ha":663,"x_min":39,"x_max":618,"o":"m 144 1028 l 618 424 l 146 -182 l 39 -108 l 456 418 l 39 953 l 144 1028 z "},"《":{"ha":754,"x_min":22,"x_max":764,"o":"m 764 -133 l 635 -204 l 272 422 l 635 1054 l 764 982 l 443 422 l 764 -133 m 514 -133 l 385 -204 l 22 422 l 385 1054 l 514 982 l 193 422 l 514 -133 z "},"》":{"ha":744,"x_min":24,"x_max":765,"o":"m 153 1051 q 335 736 244 893 q 515 421 425 579 q 335 108 425 263 q 153 -203 244 -47 q 89 -169 121 -185 q 24 -133 57 -153 q 185 143 106 4 q 344 421 265 282 l 24 979 l 153 1051 m 403 1051 q 585 736 494 893 q 765 421 675 579 q 585 108 675 263 q 403 -203 494 -47 q 339 -169 371 -185 q 275 -133 307 -153 q 435 143 354 4 q 594 421 515 282 q 435 700 515 563 q 275 979 354 838 l 403 1051 z "},"「":{"ha":603,"x_min":81,"x_max":558,"o":"m 558 910 l 289 910 l 289 463 l 81 463 l 81 1110 l 558 1110 l 558 910 z "},"」":{"ha":649,"x_min":51,"x_max":532,"o":"m 532 -201 l 51 -201 l 51 -4 l 324 -4 l 324 444 l 532 444 l 532 -201 z "},"『":{"ha":819,"x_min":183,"x_max":760,"o":"m 647 918 l 647 997 l 297 997 l 297 457 l 364 457 l 364 918 l 647 918 m 760 807 l 479 807 l 479 349 l 183 349 l 183 1111 l 760 1111 l 760 807 z "},"』":{"ha":636,"x_min":24,"x_max":600,"o":"m 488 -162 l 488 336 l 419 336 l 419 -83 l 138 -83 l 138 -162 l 488 -162 m 600 -278 l 24 -278 l 24 28 l 306 28 l 306 443 l 600 443 l 600 -278 z "},"【":{"ha":519,"x_min":39,"x_max":454,"o":"m 39 -181 l 39 1014 l 454 1014 q 328 904 385 968 q 231 763 271 840 q 168 596 190 685 q 146 411 146 507 q 168 227 146 315 q 231 63 190 139 q 326 -76 271 -14 q 450 -181 382 -137 l 39 -181 z "},"】":{"ha":531,"x_min":71,"x_max":485,"o":"m 485 -183 l 71 -183 q 196 -77 139 -140 q 292 63 253 -14 q 354 229 332 140 q 376 415 376 318 q 354 600 376 511 q 292 766 332 689 q 196 906 253 843 q 71 1014 139 969 l 485 1014 l 485 -183 z "},"±":{"ha":792,"x_min":56,"x_max":738,"o":"m 482 671 l 738 671 l 738 499 l 482 499 l 482 244 l 310 244 l 310 499 l 56 499 l 56 671 l 310 671 l 310 926 l 482 926 l 482 671 m 731 88 l 731 -85 l 63 -85 l 63 88 l 731 88 z "},"×":{"ha":689,"x_min":38,"x_max":643,"o":"m 340 568 l 521 749 l 643 626 l 463 446 l 642 267 l 519 144 l 340 324 l 161 144 l 39 267 l 218 446 l 38 626 l 160 749 l 340 568 z "},"÷":{"ha":878,"x_min":42,"x_max":831,"o":"m 831 508 l 831 333 l 42 333 l 42 508 l 831 508 m 347 653 l 347 826 l 526 826 l 526 653 l 347 653 m 347 28 l 347 201 l 526 201 l 526 28 l 347 28 z "},"≠":{"ha":926,"x_min":56,"x_max":876,"o":"m 344 365 l 401 499 l 56 499 l 56 671 l 476 671 l 582 914 l 779 914 l 675 671 l 876 671 l 876 499 l 600 499 l 543 365 l 876 365 l 876 193 l 469 193 l 357 -69 l 157 -69 l 269 193 l 56 193 l 56 365 l 344 365 z "},"≤":{"ha":833,"x_min":47,"x_max":781,"o":"m 781 203 l 47 481 l 47 629 q 195 685 132 661 q 312 730 258 710 q 414 768 365 750 q 516 806 463 786 q 633 850 569 826 q 781 906 696 874 l 781 738 l 275 553 q 381 513 336 529 q 461 485 425 497 q 528 461 497 472 q 595 438 560 450 q 675 408 631 425 q 781 369 719 392 l 781 203 m 50 -29 l 50 117 l 781 117 l 781 -29 l 50 -29 z "},"≥":{"ha":833,"x_min":47,"x_max":781,"o":"m 47 369 q 153 408 108 392 q 233 438 197 425 q 299 461 268 450 q 367 485 331 472 q 447 513 403 497 q 553 553 492 529 l 47 738 l 47 906 q 195 850 132 874 q 312 806 258 826 q 414 768 365 786 q 516 730 463 750 q 633 685 569 710 q 781 629 696 661 l 781 481 l 47 203 l 47 369 m 47 -29 l 47 117 l 778 117 l 778 -29 l 47 -29 z "},"∞":{"ha":1025,"x_min":31,"x_max":999,"o":"m 765 165 q 692 179 726 165 q 627 216 658 193 q 568 267 596 239 q 515 324 540 294 q 460 267 488 296 q 401 216 432 239 q 333 179 369 193 q 253 165 297 165 q 162 184 203 165 q 92 236 121 203 q 47 316 63 269 q 31 417 31 363 q 47 514 31 468 q 94 594 64 560 q 168 649 125 629 q 264 669 211 669 q 338 656 303 669 q 403 619 372 642 q 463 567 435 596 q 515 511 490 539 q 569 568 542 540 q 627 619 596 596 q 695 656 658 642 q 776 669 732 669 q 867 651 826 669 q 938 599 908 632 q 983 519 967 565 q 999 417 999 472 q 982 319 999 365 q 934 240 965 274 q 860 185 903 206 q 765 165 817 165 m 260 297 q 307 308 283 297 q 352 335 331 318 q 394 374 374 353 q 431 417 414 396 q 399 455 418 433 q 358 495 381 476 q 312 526 336 514 q 264 539 288 539 q 190 503 221 539 q 160 417 160 467 q 189 331 160 364 q 260 297 218 297 m 868 417 q 840 504 868 469 q 769 539 811 539 q 720 528 744 539 q 674 499 696 517 q 633 460 653 481 q 597 419 614 439 q 635 378 615 400 q 674 339 654 357 q 717 309 694 321 q 765 297 740 297 q 805 307 786 297 q 838 333 824 317 q 860 370 851 349 q 868 417 868 392 z "},"∴":{"ha":1042,"x_min":96,"x_max":943,"o":"m 535 576 q 463 604 490 576 q 435 676 435 632 q 463 747 435 718 q 536 776 492 776 q 607 747 581 776 q 633 676 633 718 q 606 604 633 632 q 535 576 579 576 m 843 47 q 770 74 799 47 q 742 146 742 101 q 770 216 742 189 q 843 243 799 243 q 913 216 883 243 q 943 146 943 189 q 913 74 943 101 q 843 47 883 47 m 194 47 q 124 74 153 47 q 96 146 96 101 q 124 216 96 189 q 196 243 153 243 q 267 216 239 243 q 294 146 294 189 q 267 74 294 101 q 194 47 239 47 z "},"°":{"ha":526,"x_min":35,"x_max":494,"o":"m 263 950 q 215 939 236 950 q 180 910 194 928 q 157 870 165 893 q 149 824 149 847 q 182 737 149 772 q 264 701 215 701 q 347 738 314 701 q 381 826 381 774 q 373 871 381 849 q 351 910 365 893 q 314 939 336 928 q 264 950 292 950 l 263 950 m 267 1047 q 360 1029 318 1047 q 431 981 401 1011 q 478 911 461 951 q 494 828 494 871 q 475 737 494 778 q 424 667 456 696 q 350 623 392 639 q 264 607 308 607 q 172 624 214 607 q 99 669 129 640 q 52 738 69 699 q 35 821 35 776 q 53 911 35 869 q 102 983 71 953 q 175 1030 133 1013 q 265 1047 217 1047 l 267 1047 z "},"′":{"ha":342,"x_min":65,"x_max":283,"o":"m 65 683 l 83 986 l 283 986 l 231 683 l 65 683 z "},"″":{"ha":621,"x_min":65,"x_max":574,"o":"m 65 683 l 83 986 l 283 986 l 231 683 l 65 683 m 356 683 q 367 835 363 760 q 378 986 372 910 l 574 986 q 548 835 561 910 q 521 683 535 760 l 356 683 z "},"℃":{"ha":1264,"x_min":67,"x_max":1174,"o":"m 232 1051 q 331 1015 294 1051 q 367 918 367 979 l 367 879 q 331 782 367 818 q 232 746 294 746 l 201 746 q 103 782 139 746 q 67 879 67 818 l 67 918 q 103 1015 67 979 q 201 1051 139 1051 l 232 1051 m 206 953 q 176 942 188 953 q 165 913 165 931 l 165 886 q 176 856 165 867 q 206 844 188 844 l 228 844 q 257 856 246 844 q 268 886 268 867 l 268 913 q 257 942 268 931 q 228 953 246 953 l 206 953 m 846 -4 q 919 26 896 -4 q 954 100 943 56 l 1174 100 q 1140 -22 1167 35 q 1072 -119 1114 -78 q 972 -185 1029 -161 q 847 -210 914 -210 l 699 -210 q 565 -183 628 -210 q 456 -109 503 -156 q 383 0 410 -62 q 356 133 356 63 l 356 628 q 383 762 356 699 q 456 872 410 825 q 565 945 503 918 q 699 972 628 972 l 847 972 q 972 948 915 972 q 1072 881 1029 924 q 1140 782 1114 839 q 1174 658 1167 725 l 956 658 q 922 735 946 704 q 846 767 897 767 l 700 767 q 603 723 639 767 q 568 617 568 679 l 568 146 q 603 40 568 83 q 700 -4 639 -4 l 846 -4 z "},"Å":{"ha":790,"x_min":46,"x_max":728,"o":"m 479 -29 l 297 -29 l 256 -210 l 46 -210 l 279 694 l 506 694 l 728 -210 l 519 -210 l 479 -29 m 406 1093 q 504 1057 468 1093 q 540 960 540 1021 l 540 921 q 504 824 540 860 q 406 788 468 788 l 375 788 q 276 824 313 788 q 240 921 240 860 l 240 960 q 276 1057 240 1021 q 375 1093 313 1093 l 406 1093 m 338 146 l 442 146 l 397 351 l 386 351 l 338 146 m 379 994 q 350 983 361 994 q 339 954 339 972 l 339 928 q 350 897 339 908 q 379 886 361 886 l 401 886 q 431 897 419 886 q 442 928 442 908 l 442 954 q 431 983 442 972 q 401 994 419 994 l 379 994 z "},"¢":{"ha":843,"x_min":68,"x_max":782,"o":"m 738 803 l 683 643 q 782 436 769 568 l 614 436 l 479 32 q 541 56 515 36 q 575 107 567 75 l 781 107 q 684 -94 765 -19 q 465 -168 603 -168 l 413 -168 l 385 -250 l 199 -250 l 236 -136 q 112 -24 156 -99 q 68 156 68 51 l 68 393 q 91 526 68 467 q 156 628 114 586 q 259 692 199 669 q 394 715 319 715 l 465 715 q 524 711 494 715 l 554 803 l 738 803 m 267 161 q 306 65 267 101 l 457 517 l 394 517 q 303 481 339 517 q 267 388 267 444 l 267 161 z "},"£":{"ha":764,"x_min":35,"x_max":735,"o":"m 44 538 l 150 538 l 150 654 q 179 809 150 744 q 257 915 208 874 q 370 975 306 956 q 506 994 435 994 q 641 982 588 994 q 728 951 694 969 l 728 796 q 649 815 686 808 q 556 821 613 821 q 485 813 519 821 q 424 785 451 806 q 381 730 397 765 q 364 639 364 694 l 364 538 l 610 538 l 610 392 l 364 392 l 364 358 q 340 217 364 268 q 268 129 315 165 l 268 126 l 735 126 l 735 -42 l 35 -42 l 35 111 q 120 190 90 139 q 150 331 150 240 l 150 392 l 44 392 l 44 538 z "},"¥":{"ha":894,"x_min":31,"x_max":851,"o":"m 254 490 l 31 972 l 256 972 l 438 596 l 449 596 q 492 688 469 642 q 538 783 514 735 l 628 972 l 851 972 l 619 490 l 779 490 l 779 318 l 542 318 l 542 185 l 779 185 l 779 13 l 542 13 l 542 -210 l 331 -210 l 331 13 l 97 13 l 97 185 l 331 185 l 331 318 l 97 318 l 97 490 l 254 490 z "},"♂":{"ha":1078,"x_min":54,"x_max":1025,"o":"m 219 360 q 238 269 219 313 q 286 194 256 226 q 358 143 317 163 q 449 124 400 124 q 538 143 496 124 q 610 194 579 163 q 658 269 640 226 q 676 360 676 313 q 658 449 676 407 q 610 524 640 492 q 538 576 579 557 q 449 594 496 594 q 358 576 400 594 q 286 524 317 557 q 238 449 256 492 q 219 360 219 407 m 54 360 q 85 513 54 440 q 169 638 115 585 q 294 722 222 690 q 449 753 365 753 q 686 675 586 753 q 710 701 689 679 q 757 747 732 722 q 803 794 782 772 q 829 818 825 815 l 696 818 l 696 935 l 1025 935 l 1025 607 l 908 607 l 908 739 q 883 715 904 736 q 835 668 861 693 q 788 622 810 643 q 764 596 767 600 q 842 360 842 497 q 811 206 842 278 q 727 80 781 133 q 602 -5 674 26 q 449 -36 531 -36 q 294 -5 365 -36 q 169 80 222 26 q 85 206 115 133 q 54 360 54 278 z "},"♀":{"ha":906,"x_min":58,"x_max":847,"o":"m 224 646 q 241 556 224 599 q 290 481 258 514 q 363 430 321 449 q 453 411 404 411 q 542 430 500 411 q 614 481 583 449 q 663 556 644 514 q 681 646 681 599 q 663 735 681 693 q 614 810 644 778 q 542 863 583 843 q 453 882 500 882 q 363 863 404 882 q 290 810 321 843 q 241 735 258 778 q 224 646 224 693 m 396 256 q 263 299 325 265 q 156 383 201 332 q 84 502 110 435 q 58 646 58 569 q 89 799 58 728 q 173 924 119 871 q 298 1009 226 978 q 453 1040 369 1040 q 606 1009 535 1040 q 731 924 678 978 q 816 799 785 871 q 847 646 847 728 q 822 502 847 569 q 750 383 796 435 q 642 297 704 331 q 510 256 581 264 l 510 86 l 706 86 l 706 -33 l 510 -33 l 510 -221 l 396 -221 l 396 -33 l 199 -33 l 199 86 l 396 86 l 396 256 z "},"∠":{"ha":1289,"x_min":203,"x_max":1083,"o":"m 1083 -11 l 203 -11 l 203 119 l 851 876 l 994 760 l 486 169 l 1083 169 l 1083 -11 z "},"⊥":{"ha":1289,"x_min":183,"x_max":1103,"o":"m 1103 -11 l 183 -11 l 183 169 l 550 169 l 550 826 l 740 826 l 740 169 l 1103 169 l 1103 -11 z "},"⌒":{"ha":1289,"x_min":246,"x_max":1032,"o":"m 826 797 q 748 869 799 844 q 639 893 697 893 q 531 869 582 893 q 453 797 479 844 l 246 797 q 313 898 275 851 q 399 978 350 944 q 507 1031 447 1013 q 639 1050 567 1050 q 771 1031 711 1050 q 879 978 831 1013 q 965 898 928 944 q 1032 797 1003 851 l 826 797 z "},"∂":{"ha":783,"x_min":24,"x_max":744,"o":"m 350 129 q 419 149 388 129 q 474 203 450 169 q 513 281 497 238 q 535 372 529 325 q 515 412 528 392 q 482 449 501 432 q 437 476 463 465 q 381 486 411 486 q 315 471 344 486 q 264 428 286 456 q 230 365 242 401 q 218 285 218 328 q 256 169 218 210 q 350 129 293 129 m 61 947 q 107 972 81 958 q 167 998 133 986 q 242 1018 200 1010 q 333 1026 283 1026 q 493 992 418 1026 q 624 891 568 957 q 713 731 681 825 q 744 517 744 636 q 711 281 744 382 q 621 111 678 179 q 489 8 564 43 q 331 -26 414 -26 q 194 1 251 -26 q 99 74 136 29 q 42 175 61 119 q 24 285 24 231 q 47 422 24 357 q 110 533 69 486 q 209 608 151 581 q 338 636 267 636 q 414 626 379 636 q 476 599 449 615 q 522 563 503 582 q 551 525 540 543 l 553 525 q 554 540 554 532 q 554 554 554 547 q 537 683 554 625 q 488 783 519 742 q 411 848 456 825 q 314 871 367 871 q 205 853 251 871 q 118 817 158 835 l 61 947 z "},"∇":{"ha":1256,"x_min":44,"x_max":1210,"o":"m 888 678 l 367 678 l 626 265 l 888 678 m 1210 853 l 626 -60 l 44 853 l 1210 853 z "},"≡":{"ha":917,"x_min":78,"x_max":838,"o":"m 838 601 l 78 601 l 78 711 l 838 711 l 838 601 m 838 379 l 78 379 l 78 490 l 838 490 l 838 379 m 838 154 l 78 154 l 78 267 l 838 267 l 838 154 z "},"≒":{"ha":917,"x_min":78,"x_max":838,"o":"m 746 114 q 722 52 746 78 q 661 26 697 26 q 600 52 625 26 q 575 114 575 78 q 600 174 575 149 q 661 199 625 199 q 722 174 697 199 q 746 114 746 149 m 342 757 q 316 696 342 721 q 254 671 290 671 q 194 696 219 671 q 168 757 168 721 q 194 819 168 793 q 254 844 219 844 q 316 819 290 844 q 342 757 342 793 m 838 497 l 78 497 l 78 600 l 838 600 l 838 497 m 838 274 l 78 274 l 78 376 l 838 376 l 838 274 z "},"§":{"ha":756,"x_min":15,"x_max":750,"o":"m 426 475 q 369 491 399 483 q 311 508 339 499 q 313 506 311 507 q 237 475 263 500 q 211 410 211 450 q 235 342 211 367 q 322 300 260 317 q 383 282 354 292 q 442 264 411 272 q 443 263 442 263 l 444 263 q 549 361 549 281 q 543 399 549 383 q 524 428 538 415 q 488 453 511 442 q 426 475 464 464 m 351 -250 q 197 -234 267 -250 q 75 -190 128 -218 l 75 -36 q 129 -57 103 -47 q 184 -74 156 -67 q 247 -85 213 -81 q 322 -89 281 -89 q 445 -65 407 -89 q 483 3 483 -42 q 479 38 483 24 q 463 65 475 53 q 430 85 451 76 q 374 104 408 94 q 308 124 340 114 q 240 143 275 133 q 151 174 192 154 q 79 222 110 193 q 32 292 49 251 q 15 388 15 333 q 51 510 15 465 q 151 578 88 554 q 101 651 119 607 q 82 758 82 694 q 163 945 82 875 q 410 1015 244 1015 q 491 1011 456 1015 q 555 999 526 1007 q 607 982 583 992 q 651 963 631 972 l 651 811 q 557 842 613 828 q 431 856 501 856 q 323 836 363 856 q 281 776 283 817 l 276 797 q 275 785 275 790 q 275 776 275 781 q 280 739 275 754 q 297 712 285 724 q 327 691 308 700 q 375 672 346 682 q 447 652 411 663 q 519 631 483 642 q 619 597 576 617 q 692 550 663 578 q 735 483 721 522 q 750 388 750 443 q 715 260 750 306 q 619 190 679 214 q 692 19 692 132 q 603 -183 692 -115 q 351 -250 515 -250 z "},"※":{"ha":1278,"x_min":75,"x_max":1221,"o":"m 733 407 q 966 188 851 297 q 1197 -28 1081 79 q 1145 -79 1171 -53 q 1092 -129 1119 -106 q 865 90 978 -21 q 638 313 753 200 q 411 90 524 200 q 182 -129 299 -21 q 129 -78 156 -104 q 75 -26 103 -53 q 308 190 193 81 q 540 407 424 299 q 310 626 425 518 q 78 843 196 735 l 176 947 q 406 723 292 835 q 633 499 519 611 q 865 723 750 611 q 1093 947 979 835 q 1144 895 1119 921 q 1192 843 1168 869 l 733 407 m 349 406 q 339 356 349 382 q 288 301 321 322 q 214 281 254 281 q 165 291 189 281 q 122 319 140 301 q 91 358 103 336 q 79 406 79 381 q 90 456 79 432 q 120 497 101 479 q 163 524 139 514 q 213 535 188 535 q 264 524 239 535 q 308 497 289 514 q 338 456 326 479 q 349 406 349 432 m 771 831 q 761 781 771 807 q 710 726 743 747 q 638 706 678 706 q 587 716 611 706 q 544 744 563 726 q 515 783 526 761 q 504 831 504 806 q 515 880 504 857 q 543 920 525 903 q 585 947 561 938 q 636 957 608 957 q 689 947 664 957 q 732 920 714 938 q 760 880 750 903 q 771 831 771 857 m 1221 406 q 1210 358 1221 381 q 1182 319 1200 336 q 1140 292 1164 301 q 1089 282 1115 282 q 1039 292 1063 282 q 997 319 1015 301 q 967 358 978 336 q 956 406 956 381 q 967 456 956 432 q 995 497 978 479 q 1036 525 1013 515 q 1085 535 1060 535 q 1138 525 1113 535 q 1181 497 1163 515 q 1210 456 1200 479 q 1221 406 1221 432 m 769 -31 q 732 -116 769 -81 q 638 -151 694 -151 q 587 -142 611 -151 q 544 -116 563 -132 q 515 -78 526 -100 q 504 -31 504 -56 q 515 18 504 -4 q 543 57 525 40 q 585 83 561 74 q 636 93 608 93 q 731 58 693 93 q 769 -31 769 22 z "},"☆":{"ha":1278,"x_min":-15,"x_max":1293,"o":"m 640 713 l 564 479 l 313 479 l 513 329 l 435 97 l 640 239 l 839 97 l 768 329 l 964 479 l 717 479 l 640 713 m 800 585 l 1293 585 l 894 288 l 1043 -183 l 642 101 l 233 -183 l 386 288 l -15 585 l 485 585 l 642 1051 l 800 585 z "},"★":{"ha":1278,"x_min":-15,"x_max":1293,"o":"m 800 585 l 1293 585 l 894 288 l 1043 -183 l 642 101 l 233 -183 l 386 288 l -15 585 l 485 585 l 642 1051 l 800 585 z "},"○":{"ha":1278,"x_min":115,"x_max":1161,"o":"m 247 438 q 278 285 247 356 q 361 160 308 214 q 485 76 414 107 q 638 46 556 46 q 791 76 719 46 q 915 160 863 107 q 999 285 968 214 q 1029 438 1029 356 q 999 590 1029 518 q 915 715 968 661 q 791 799 863 768 q 638 829 719 829 q 485 799 556 829 q 361 715 414 768 q 278 590 308 661 q 247 438 247 518 m 115 438 q 156 641 115 546 q 268 808 197 736 q 434 920 339 879 q 638 961 529 961 q 842 920 747 961 q 1008 808 938 879 q 1120 641 1079 736 q 1161 438 1161 546 q 1120 233 1161 329 q 1008 66 1079 138 q 842 -47 938 -6 q 638 -87 747 -87 q 434 -47 529 -87 q 268 66 339 -6 q 156 233 197 138 q 115 438 115 329 z "},"●":{"ha":1278,"x_min":115,"x_max":1161,"o":"m 115 438 q 156 641 115 546 q 268 808 197 736 q 434 920 339 879 q 638 961 529 961 q 842 920 747 961 q 1008 808 938 879 q 1120 641 1079 736 q 1161 438 1161 546 q 1120 233 1161 329 q 1008 66 1079 138 q 842 -47 938 -6 q 638 -87 747 -87 q 434 -47 529 -87 q 268 66 339 -6 q 156 233 197 138 q 115 438 115 329 z "},"◎":{"ha":1278,"x_min":110,"x_max":1165,"o":"m 433 438 q 449 358 433 396 q 493 293 465 321 q 558 249 521 265 q 638 233 596 233 q 718 249 681 233 q 783 293 756 265 q 827 358 811 321 q 843 438 843 396 q 827 516 843 479 q 783 581 811 553 q 718 625 756 608 q 638 642 681 642 q 558 625 596 642 q 493 581 521 608 q 449 516 465 553 q 433 438 433 479 m 333 438 q 357 556 333 500 q 422 652 381 611 q 518 717 463 693 q 638 742 574 742 q 757 717 701 742 q 853 652 813 693 q 918 556 894 611 q 942 438 942 500 q 918 318 942 374 q 853 221 894 263 q 757 156 813 179 q 638 132 701 132 q 518 156 574 132 q 422 221 463 179 q 357 318 381 263 q 333 438 333 374 m 240 438 q 272 283 240 356 q 357 156 303 210 q 483 70 411 101 q 638 39 556 39 q 794 70 721 39 q 920 156 867 101 q 1005 283 974 210 q 1036 438 1036 356 q 1005 591 1036 518 q 920 718 974 664 q 794 804 867 772 q 638 836 721 836 q 483 804 556 836 q 357 718 411 772 q 272 591 303 664 q 240 438 240 518 m 110 438 q 151 642 110 546 q 263 811 192 739 q 431 925 335 883 q 638 967 528 967 q 844 925 747 967 q 1012 811 940 883 q 1124 642 1083 739 q 1165 438 1165 546 q 1124 231 1165 326 q 1012 63 1083 135 q 844 -49 940 -8 q 638 -90 747 -90 q 431 -49 528 -90 q 263 63 335 -8 q 151 231 192 135 q 110 438 110 326 z "},"◇":{"ha":1278,"x_min":69,"x_max":1207,"o":"m 639 769 l 304 438 l 639 101 l 972 436 l 639 769 m 639 1006 l 1207 436 l 639 -133 l 69 436 l 639 1006 z "},"◆":{"ha":1278,"x_min":69,"x_max":1208,"o":"m 69 438 l 639 1006 l 1208 436 l 640 -133 l 69 438 z "},"□":{"ha":1278,"x_min":136,"x_max":1140,"o":"m 286 788 l 286 88 l 988 88 l 988 788 l 286 788 m 136 939 l 1140 939 l 1140 -67 l 136 -67 l 136 939 z "},"■":{"ha":1278,"x_min":136,"x_max":1142,"o":"m 136 -67 l 136 939 l 1142 939 l 1142 -67 l 136 -67 z "},"△":{"ha":1278,"x_min":94,"x_max":1181,"o":"m 918 138 l 636 692 l 354 138 l 918 138 m 94 -22 l 639 1044 l 1181 -22 l 94 -22 z "},"▲":{"ha":1278,"x_min":99,"x_max":1179,"o":"m 99 -39 l 639 1028 l 1179 -39 l 99 -39 z "},"▽":{"ha":1278,"x_min":94,"x_max":1181,"o":"m 357 831 l 639 274 l 921 831 l 357 831 m 1181 975 l 639 -92 l 94 975 l 1181 975 z "},"▼":{"ha":1278,"x_min":99,"x_max":1179,"o":"m 1179 975 l 639 -92 l 99 975 l 1179 975 z "},"→":{"ha":1278,"x_min":21,"x_max":1250,"o":"m 21 522 l 1031 522 l 925 703 l 949 728 l 1250 478 l 949 228 l 925 253 l 1031 432 l 21 432 l 21 522 z "},"←":{"ha":1278,"x_min":53,"x_max":1264,"o":"m 1264 432 l 274 432 l 379 253 l 357 228 l 53 478 l 357 728 l 379 703 l 274 522 l 1264 522 l 1264 432 z "},"↑":{"ha":814,"x_min":157,"x_max":657,"o":"m 363 -150 l 363 782 l 183 678 l 157 701 l 407 1001 l 657 701 l 631 678 l 451 782 l 451 -150 l 363 -150 z "},"↓":{"ha":814,"x_min":157,"x_max":657,"o":"m 451 1068 l 451 174 l 632 276 l 657 256 l 407 -47 l 157 254 l 182 276 l 363 174 l 363 1068 l 451 1068 z "},"↔":{"ha":1278,"x_min":17,"x_max":1258,"o":"m 344 253 l 319 228 l 17 478 l 319 728 l 344 703 l 236 522 l 1039 522 l 933 703 l 957 728 l 1258 478 l 957 228 l 933 253 l 1039 432 l 236 432 l 344 253 z "},"〓":{"ha":1333,"x_min":203,"x_max":1131,"o":"m 1131 547 l 203 547 l 203 600 l 1131 600 l 1131 547 m 1131 267 l 203 267 l 203 319 l 1131 319 l 1131 267 z "},"«":{"ha":1333,"x_min":153,"x_max":1179,"o":"m 1179 21 l 1132 -58 l 446 388 l 446 453 l 1118 915 l 1179 840 l 563 421 l 1179 21 m 888 15 l 835 -64 l 153 388 l 153 453 l 824 921 l 879 843 l 271 419 l 888 15 z "},"»":{"ha":1333,"x_min":153,"x_max":1179,"o":"m 888 388 l 200 -58 l 153 21 l 768 419 q 461 630 618 524 q 156 840 304 736 l 214 915 l 888 453 l 888 388 m 1179 388 l 497 -64 l 444 15 l 1063 419 q 757 631 913 524 q 453 843 601 739 l 508 921 l 1179 453 l 1179 388 z "},"√":{"ha":1333,"x_min":256,"x_max":1078,"o":"m 1078 1108 q 916 463 997 785 q 751 -181 835 142 l 625 -181 q 514 111 569 -35 q 403 404 458 257 q 349 385 376 394 q 296 364 321 375 l 256 454 q 376 503 317 479 q 493 551 435 526 q 559 366 526 458 q 624 181 592 274 q 651 101 638 140 q 681 19 665 61 l 682 19 q 690 58 685 39 q 699 96 694 78 q 822 602 760 346 q 943 1108 883 858 l 1078 1108 z "},"∽":{"ha":1333,"x_min":135,"x_max":1199,"o":"m 1199 439 q 1179 335 1199 385 q 1124 249 1160 286 q 1041 190 1089 211 q 936 168 993 168 q 761 232 850 168 l 807 315 q 873 279 842 292 q 936 267 904 267 q 1001 280 971 267 q 1051 316 1031 293 q 1084 370 1072 339 q 1096 439 1096 401 q 1084 503 1096 472 q 1051 557 1072 533 q 1001 594 1031 581 q 938 608 972 608 q 814 561 864 608 q 717 425 764 514 q 675 349 700 393 q 613 265 650 304 q 522 197 575 225 q 396 169 468 169 q 300 186 347 169 q 216 236 253 203 q 157 320 179 269 q 135 439 135 371 q 156 553 135 503 q 215 638 178 603 q 298 690 251 672 q 394 707 344 707 q 490 690 444 707 q 575 649 535 674 l 526 563 q 404 606 463 606 q 284 560 329 606 q 239 439 239 514 q 282 317 239 364 q 403 271 325 271 q 491 294 453 271 q 558 351 529 317 q 608 422 588 385 q 644 489 629 460 q 694 570 667 531 q 758 640 722 610 q 838 689 794 671 q 935 707 882 707 q 1040 685 992 707 q 1124 626 1089 663 q 1179 540 1160 589 q 1199 439 1199 492 z "},"∝":{"ha":1333,"x_min":183,"x_max":1150,"o":"m 450 271 q 522 286 490 271 q 581 326 554 301 q 627 380 607 350 q 664 438 647 410 q 627 497 647 467 q 581 551 607 526 q 523 590 556 575 q 450 606 490 606 q 332 560 376 606 q 288 439 288 514 q 329 317 288 364 q 450 271 371 271 m 1101 564 q 1043 597 1074 585 q 985 608 1013 608 q 865 562 917 608 q 771 438 814 515 q 863 314 813 361 q 985 267 914 267 q 1030 275 1006 267 q 1082 299 1054 283 l 1139 219 q 1060 182 1100 196 q 985 168 1019 168 q 899 181 939 168 q 827 218 860 194 q 767 274 794 242 q 717 342 739 306 q 671 281 697 311 q 610 225 644 250 q 533 185 576 200 q 439 169 490 169 q 344 185 390 169 q 263 235 299 201 q 205 319 226 268 q 183 439 183 369 q 205 553 183 503 q 262 638 226 603 q 343 690 297 672 q 438 707 389 707 q 535 692 492 707 q 612 651 578 676 q 672 596 646 626 q 717 535 697 565 q 767 599 739 568 q 829 655 796 631 q 901 693 863 679 q 985 707 940 707 q 1067 691 1025 707 q 1150 647 1110 675 l 1101 564 z "},"∵":{"ha":1333,"x_min":243,"x_max":1090,"o":"m 651 253 q 724 225 694 253 q 753 153 753 197 q 724 84 753 113 q 650 56 694 56 q 578 84 606 56 q 551 153 551 113 q 579 225 551 197 q 651 253 607 253 m 343 785 q 415 756 388 785 q 443 683 443 728 q 415 614 443 642 q 343 586 388 586 q 273 614 303 586 q 243 683 243 642 q 273 756 243 728 q 343 785 303 785 m 992 785 q 1063 756 1035 785 q 1090 686 1090 728 q 1062 614 1090 642 q 989 586 1033 586 q 919 614 947 586 q 890 686 890 642 q 919 756 890 728 q 992 785 947 785 z "},"∫":{"ha":1333,"x_min":431,"x_max":901,"o":"m 883 944 q 858 949 871 947 q 831 950 846 950 q 793 938 811 950 q 767 907 775 926 q 744 835 751 885 q 736 703 736 786 q 740 551 736 624 q 747 406 743 479 q 755 256 751 333 q 758 90 758 178 q 713 -168 758 -92 q 632 -250 681 -226 q 528 -274 583 -274 q 471 -270 499 -274 q 431 -257 443 -267 l 450 -126 q 476 -133 463 -131 q 504 -136 489 -136 q 565 -106 539 -136 q 589 -42 578 -85 q 600 85 600 1 q 597 253 600 174 q 590 408 593 332 q 583 560 586 483 q 579 719 579 636 q 599 901 579 833 q 661 1017 619 968 q 733 1063 690 1049 q 821 1078 775 1078 q 867 1075 844 1078 q 901 1068 890 1072 l 883 944 z "},"∬":{"ha":1333,"x_min":253,"x_max":1081,"o":"m 1063 935 q 1038 939 1050 938 q 1011 940 1026 940 q 974 929 992 940 q 947 899 957 918 q 922 826 931 875 q 914 694 914 778 q 917 544 914 615 q 926 401 921 472 q 934 253 931 329 q 938 90 938 178 q 892 -168 938 -92 q 811 -250 861 -226 q 707 -274 761 -274 q 651 -270 678 -274 q 610 -257 624 -267 l 631 -126 q 683 -136 657 -136 q 717 -128 703 -136 q 742 -106 731 -121 q 770 -42 758 -85 q 782 85 782 1 q 778 251 782 174 q 770 402 775 328 q 762 551 765 476 q 758 710 758 626 q 763 811 758 767 q 778 891 768 856 q 804 955 789 926 q 840 1007 819 983 q 911 1053 869 1039 q 1000 1068 953 1068 q 1047 1065 1024 1068 q 1081 1058 1069 1063 l 1063 935 m 708 935 q 683 939 694 938 q 656 940 671 940 q 618 929 636 940 q 592 899 600 918 q 567 826 575 875 q 558 694 558 778 q 562 544 558 615 q 569 401 565 472 q 577 253 574 329 q 581 90 581 178 q 571 -64 581 0 q 536 -168 561 -128 q 455 -250 504 -226 q 351 -274 406 -274 q 294 -270 322 -274 q 253 -257 265 -267 l 272 -126 q 298 -133 285 -131 q 326 -136 311 -136 q 388 -106 361 -136 q 414 -42 403 -85 q 425 85 425 1 q 422 251 425 174 q 415 402 418 328 q 408 551 411 476 q 404 710 404 626 q 409 811 404 767 q 424 891 414 856 q 449 955 433 926 q 486 1007 465 983 q 556 1053 514 1039 q 643 1068 597 1068 q 691 1065 668 1068 q 725 1058 714 1063 l 708 935 z "},"∈":{"ha":1333,"x_min":171,"x_max":1161,"o":"m 1158 361 l 340 361 q 413 263 360 301 q 567 225 467 225 l 1161 225 l 1161 69 l 572 69 q 392 99 468 69 q 267 178 317 128 q 194 297 218 229 q 171 439 171 364 q 194 576 171 511 q 265 690 217 642 q 388 766 314 738 q 567 794 463 794 l 1161 794 l 1161 640 l 567 640 q 417 605 471 640 q 343 515 363 569 l 1158 515 l 1158 361 z "},"∋":{"ha":1333,"x_min":178,"x_max":1154,"o":"m 178 517 l 976 517 q 903 600 954 565 q 758 635 851 635 l 179 635 l 179 794 l 758 794 q 937 765 863 794 q 1060 687 1011 736 q 1131 573 1108 638 q 1154 439 1154 508 q 1130 300 1154 367 q 1056 182 1106 233 q 930 100 1006 131 q 751 69 854 69 l 179 69 l 179 226 l 758 226 q 908 266 854 226 q 982 361 961 306 l 178 361 l 178 517 z "},"⊆":{"ha":1333,"x_min":179,"x_max":1154,"o":"m 1151 -110 l 226 -110 l 226 47 l 1151 47 l 1151 -110 m 1154 624 l 575 624 q 467 611 511 624 q 394 577 422 599 q 352 526 365 556 q 339 464 339 497 q 394 344 339 389 q 575 299 449 299 l 1154 299 l 1154 142 l 581 142 q 401 167 476 142 q 276 235 325 192 q 203 339 226 279 q 179 468 179 399 q 202 589 179 532 q 274 689 225 646 q 397 756 322 732 q 575 781 471 781 l 1154 781 l 1154 624 z "},"⊇":{"ha":1333,"x_min":178,"x_max":1156,"o":"m 179 781 l 760 781 q 939 756 864 781 q 1062 689 1014 732 q 1133 589 1110 646 q 1156 468 1156 532 q 1131 339 1156 399 q 1058 235 1107 279 q 933 167 1008 192 q 753 142 857 142 l 179 142 l 179 299 l 760 299 q 867 310 824 299 q 939 344 911 322 q 979 397 967 367 q 992 464 992 426 q 979 526 992 497 q 940 577 967 556 q 868 611 913 599 q 760 624 824 624 l 179 624 l 179 781 m 178 47 l 1108 47 l 1108 -110 l 178 -110 l 178 47 z "},"⊂":{"ha":1333,"x_min":182,"x_max":1151,"o":"m 1151 624 l 578 624 q 469 609 514 624 q 397 569 425 594 q 355 511 368 544 q 342 440 342 478 q 355 365 342 400 q 397 305 368 331 q 470 265 425 279 q 578 250 515 250 l 1151 250 l 1151 94 l 583 94 q 403 122 479 94 q 278 198 328 150 q 206 309 229 246 q 182 444 182 372 q 205 575 182 514 q 276 682 228 636 q 399 754 325 728 q 578 781 474 781 l 1151 781 l 1151 624 z "},"⊃":{"ha":1333,"x_min":179,"x_max":1153,"o":"m 179 775 l 756 775 q 935 749 860 775 q 1058 676 1010 722 q 1130 569 1107 631 q 1153 439 1153 508 q 1128 303 1153 367 q 1054 192 1104 240 q 928 117 1004 144 q 749 89 853 89 l 179 89 l 179 244 l 756 244 q 863 259 819 244 q 934 299 907 274 q 974 360 961 325 q 986 435 986 394 q 974 506 986 472 q 935 564 963 539 q 864 603 908 589 q 756 618 819 618 l 179 618 l 179 775 z "},"∪":{"ha":911,"x_min":106,"x_max":804,"o":"m 268 888 l 268 310 q 283 201 268 246 q 322 128 297 157 q 381 87 347 100 q 450 74 414 74 q 588 129 533 74 q 643 310 643 185 l 643 888 l 804 888 l 804 317 q 776 138 804 213 q 700 13 749 63 q 586 -60 651 -36 q 446 -83 521 -83 q 315 -61 376 -83 q 206 9 253 -39 q 133 131 160 57 q 106 310 106 206 l 106 888 l 268 888 z "},"∩":{"ha":911,"x_min":107,"x_max":803,"o":"m 456 911 q 594 888 531 911 q 704 814 658 864 q 776 688 750 764 q 803 508 803 613 l 803 -83 l 642 -83 l 642 515 q 590 698 642 642 q 456 754 539 754 q 321 698 372 754 q 269 515 269 642 l 269 -83 l 107 -83 l 107 508 q 133 688 107 613 q 206 814 160 764 q 317 888 253 864 q 456 911 381 911 z "},"∧":{"ha":1333,"x_min":197,"x_max":1136,"o":"m 719 840 q 928 437 824 638 q 1136 33 1032 236 q 1074 3 1106 18 q 1013 -26 1043 -11 q 838 310 925 143 q 663 650 750 478 q 492 312 576 476 q 324 -26 407 147 q 260 3 292 -11 q 197 33 229 18 q 406 437 301 236 q 614 840 510 638 l 719 840 z "},"∨":{"ha":1333,"x_min":197,"x_max":1136,"o":"m 1013 860 q 1074 828 1043 844 q 1136 796 1106 813 q 928 394 1032 596 q 719 -7 824 193 l 614 -7 q 406 394 510 193 q 197 796 301 596 q 260 828 229 813 q 324 860 292 844 l 667 189 q 837 526 753 363 q 1013 860 921 690 z "},"¬":{"ha":1333,"x_min":79,"x_max":1254,"o":"m 1254 -207 l 1157 -207 l 1157 132 l 79 132 l 79 229 l 1254 229 l 1254 -207 z "},"⇒":{"ha":1333,"x_min":42,"x_max":1292,"o":"m 897 808 l 1292 414 l 897 15 l 825 86 l 968 228 l 42 228 l 42 333 l 1072 333 l 1150 413 l 1072 490 l 42 490 l 42 596 l 964 596 l 825 736 l 897 808 z "},"⇔":{"ha":1333,"x_min":42,"x_max":1292,"o":"m 1072 333 l 1149 413 l 1072 492 l 263 492 l 183 415 l 263 333 l 1072 333 m 897 808 l 1292 415 l 897 15 l 825 88 l 968 228 l 367 228 l 508 88 l 436 15 l 42 415 l 436 808 l 508 738 l 368 597 l 964 597 l 825 738 l 897 808 z "},"∀":{"ha":1289,"x_min":196,"x_max":1092,"o":"m 1092 949 q 934 439 1013 692 q 776 -68 856 186 l 506 -68 l 196 949 l 414 949 q 453 806 433 878 q 494 663 474 733 l 778 663 q 820 806 799 733 q 865 949 842 878 l 1092 949 m 635 88 q 648 174 640 129 q 669 260 656 218 l 749 508 l 524 508 q 560 384 543 446 q 597 260 578 322 q 616 173 608 218 q 628 88 624 128 l 635 88 z "},"∃":{"ha":1289,"x_min":356,"x_max":932,"o":"m 400 549 l 722 549 l 722 783 l 382 783 l 382 956 l 932 956 l 932 -67 l 356 -67 l 356 104 l 722 104 l 722 379 l 400 379 l 400 549 z "},"´":{"ha":715,"x_min":254,"x_max":606,"o":"m 403 1039 l 606 1039 l 418 810 l 254 810 l 403 1039 z "},"˜":{"ha":715,"x_min":115,"x_max":589,"o":"m 115 835 q 134 921 119 885 q 171 979 149 957 q 220 1012 193 1001 q 275 1022 247 1022 q 336 1010 308 1022 q 388 985 364 997 q 426 972 413 972 q 465 1024 457 972 l 589 1024 q 569 935 585 972 q 533 876 554 899 q 484 842 511 853 q 429 831 457 831 q 370 842 397 831 q 319 867 343 854 q 296 876 307 874 q 279 879 285 879 q 238 828 247 879 l 124 828 q 119 831 121 829 q 115 835 118 833 z "},"ˇ":{"ha":715,"x_min":122,"x_max":592,"o":"m 525 944 q 478 876 504 913 q 431 807 453 839 l 282 807 q 201 915 244 860 q 122 1043 158 969 l 267 1043 q 293 1010 281 1024 q 316 986 306 997 q 337 965 326 975 q 358 944 347 956 q 402 992 381 968 q 443 1043 424 1017 l 592 1043 q 587 1035 589 1039 q 582 1029 585 1032 l 525 944 z "},"˘":{"ha":715,"x_min":147,"x_max":567,"o":"m 357 821 q 208 878 265 821 q 147 1032 151 936 l 288 1032 q 306 974 292 996 q 357 953 321 953 q 408 974 394 953 q 429 1032 422 996 l 567 1032 q 507 878 564 936 q 357 821 450 821 z "},"˝":{"ha":715,"x_min":128,"x_max":643,"o":"m 450 1039 l 643 1039 l 532 810 l 379 810 l 450 1039 m 201 1039 l 393 1039 l 285 810 l 128 810 l 201 1039 z "},"˚":{"ha":715,"x_min":200,"x_max":515,"o":"m 357 883 q 417 940 417 883 q 401 987 417 968 q 357 1006 386 1006 q 315 987 329 1006 q 300 940 300 968 q 357 883 300 883 m 357 792 q 297 804 325 792 q 247 837 268 817 q 213 884 225 857 q 200 940 200 911 q 213 1000 200 972 q 247 1049 225 1028 q 297 1081 268 1069 q 357 1093 325 1093 q 419 1081 390 1093 q 470 1049 449 1069 q 503 1000 492 1028 q 515 940 515 972 q 503 884 515 911 q 470 837 492 857 q 419 804 449 817 q 357 792 390 792 z "},"˙":{"ha":715,"x_min":267,"x_max":449,"o":"m 267 1018 l 449 1018 l 449 844 l 267 844 l 267 1018 z "},"¸":{"ha":715,"x_min":283,"x_max":568,"o":"m 283 -160 q 392 -141 360 -153 q 425 -111 425 -129 q 398 -85 425 -92 q 317 -78 371 -78 l 317 81 l 425 81 l 425 14 q 532 -23 496 7 q 568 -101 568 -53 q 553 -164 568 -137 q 504 -210 538 -190 q 417 -243 471 -231 q 283 -264 363 -256 l 283 -160 z "},"˛":{"ha":715,"x_min":192,"x_max":465,"o":"m 365 -264 q 238 -224 285 -264 q 192 -122 192 -185 q 204 -64 192 -92 q 236 -15 217 -36 q 278 24 256 7 q 324 51 301 40 l 465 51 q 384 -28 417 13 q 351 -100 351 -68 q 369 -134 351 -126 q 410 -142 386 -142 q 438 -139 424 -142 q 461 -133 451 -136 l 461 -247 q 419 -259 442 -254 q 365 -264 396 -264 z "},"¡":{"ha":639,"x_min":193,"x_max":408,"o":"m 193 -87 q 205 293 200 103 q 218 676 210 483 l 385 676 q 397 293 390 483 q 408 -87 403 103 l 193 -87 m 201 1001 l 401 1001 l 401 807 l 201 807 l 201 1001 z "},"¿":{"ha":625,"x_min":25,"x_max":579,"o":"m 467 803 l 264 803 l 264 997 l 467 997 l 467 803 m 454 604 q 410 481 454 533 q 304 382 367 429 q 225 197 225 311 q 267 107 225 132 q 382 82 308 82 q 440 85 414 82 q 490 92 467 88 q 534 103 513 97 q 579 115 556 108 l 579 -31 q 468 -64 526 -54 q 335 -74 410 -74 q 216 -60 272 -74 q 117 -15 160 -46 q 50 65 75 15 q 25 185 25 114 q 33 274 25 235 q 60 348 42 314 q 106 413 78 382 q 175 478 135 444 q 222 514 201 499 q 255 545 242 529 q 275 578 268 561 q 282 619 282 596 l 282 674 l 454 674 l 454 604 z "},"ː":{"ha":1278,"x_min":178,"x_max":444,"o":"m 444 675 l 311 539 l 178 675 l 444 675 m 444 151 l 178 151 l 311 286 l 444 151 z "},"∮":{"ha":1250,"x_min":326,"x_max":924,"o":"m 589 574 q 514 515 544 557 q 478 415 483 474 q 498 310 472 353 q 572 254 524 268 q 581 417 578 326 q 584 497 582 458 q 589 574 586 535 m 783 415 q 760 522 789 475 q 675 579 732 568 q 667 417 669 507 q 663 331 665 372 q 656 253 661 290 q 743 309 708 265 q 783 415 778 353 m 856 886 q 827 927 844 913 q 785 942 810 942 q 725 858 754 942 q 679 622 696 775 q 750 603 717 618 q 808 561 783 588 q 844 499 832 535 q 853 415 857 463 q 831 334 849 369 q 787 272 814 299 q 724 231 760 246 q 651 210 689 215 q 592 -50 632 51 q 534 -137 568 -104 q 458 -171 500 -171 q 326 -87 369 -171 l 390 -51 q 420 -93 403 -78 q 463 -108 438 -108 q 523 -26 493 -108 q 568 211 553 57 q 501 233 532 217 q 449 274 471 249 q 416 335 428 300 q 408 415 404 371 q 428 493 413 458 q 469 553 444 528 q 526 594 494 578 q 594 618 558 611 q 656 883 614 778 q 712 971 679 938 q 789 1004 744 1004 q 924 915 881 1004 l 856 886 z "},"∑":{"ha":708,"x_min":-29,"x_max":764,"o":"m 764 -237 l -29 -237 l -29 -118 q 141 105 57 -8 q 313 331 225 218 l -7 796 l -7 928 l 701 928 l 701 754 l 250 754 l 250 749 l 524 342 l 228 -56 l 228 -65 l 764 -65 l 764 -237 z "},"∏":{"ha":892,"x_min":-25,"x_max":914,"o":"m 803 758 l 803 -240 l 606 -240 l 606 758 l 286 758 l 286 -240 l 89 -240 l 89 758 l -25 758 l -25 928 l 914 928 l 914 758 l 803 758 z "},"¤":{"ha":1361,"x_min":115,"x_max":1231,"o":"m 1231 796 l 1063 644 q 1105 538 1089 594 q 1121 417 1121 481 q 1101 285 1121 350 q 1050 168 1082 221 q 1081 140 1056 163 q 1137 90 1107 117 q 1193 39 1167 63 q 1225 11 1219 15 l 1126 -103 l 949 61 q 817 -15 889 13 q 663 -43 746 -43 q 519 -20 588 -43 q 390 47 450 3 q 385 43 394 51 q 358 19 375 35 q 317 -17 340 3 q 274 -54 294 -36 q 238 -86 254 -72 q 219 -103 222 -100 l 119 11 l 285 158 q 228 278 250 213 q 207 417 207 344 q 274 654 207 546 q 244 680 268 658 q 192 726 219 701 q 142 772 165 751 q 115 796 118 793 l 222 903 l 371 771 q 506 844 431 815 q 663 872 581 872 q 825 842 750 872 q 963 761 900 813 q 967 765 958 757 q 992 787 976 772 q 1030 820 1008 801 q 1070 856 1051 839 q 1103 886 1089 874 q 1122 903 1118 899 l 1231 796 m 982 417 q 957 541 982 483 q 889 642 932 599 q 788 710 846 685 q 663 735 729 735 q 538 710 596 735 q 438 642 481 685 q 369 541 394 599 q 344 417 344 483 q 369 292 344 350 q 438 192 394 235 q 538 124 481 149 q 663 99 596 99 q 788 124 729 99 q 889 192 846 149 q 957 292 932 235 q 982 417 982 350 z "},"℉":{"ha":1178,"x_min":69,"x_max":1114,"o":"m 639 -210 l 439 -210 l 439 972 l 1113 972 l 1113 772 l 633 772 l 633 481 l 1114 481 l 1114 283 l 639 283 l 639 -210 m 235 1051 q 333 1015 297 1051 q 369 918 369 979 l 369 879 q 333 782 369 818 q 235 746 297 746 l 204 746 q 106 782 142 746 q 69 879 69 818 l 69 918 q 106 1015 69 979 q 204 1051 142 1051 l 235 1051 m 208 953 q 179 942 190 953 q 168 913 168 931 l 168 886 q 179 856 168 867 q 208 844 190 844 l 231 844 q 260 856 249 844 q 271 886 271 867 l 271 913 q 260 942 271 931 q 231 953 249 953 l 208 953 z "},"‰":{"ha":1638,"x_min":28,"x_max":1582,"o":"m 1015 1011 l 315 -250 l 101 -250 l 804 1011 l 1015 1011 m 301 903 q 363 889 333 903 q 414 851 392 875 q 449 797 436 828 q 463 731 463 765 l 463 628 q 450 559 463 592 q 415 503 438 526 q 364 465 393 479 q 301 451 335 451 l 189 451 q 126 465 156 451 q 75 503 97 479 q 40 559 53 526 q 28 628 28 592 l 28 724 q 40 789 28 757 q 75 847 53 821 q 126 888 97 872 q 189 903 156 903 l 301 903 m 318 697 q 306 734 318 719 q 274 749 293 749 l 217 749 q 185 734 197 749 q 172 697 172 719 l 172 657 q 185 620 172 635 q 217 606 197 606 l 274 606 q 306 620 293 606 q 318 657 318 635 l 318 697 m 907 254 q 968 240 939 254 q 1019 203 997 226 q 1055 148 1042 179 q 1068 82 1068 117 l 1068 -21 q 1056 -90 1068 -57 q 1021 -146 1043 -122 q 969 -183 999 -169 q 907 -197 940 -197 l 794 -197 q 732 -183 761 -197 q 681 -146 703 -169 q 646 -90 658 -122 q 633 -21 633 -57 l 633 75 q 646 140 633 108 q 681 198 658 172 q 732 239 703 224 q 794 254 761 254 l 907 254 m 924 49 q 911 85 924 71 q 879 100 899 100 l 822 100 q 790 85 803 100 q 778 49 778 71 l 778 8 q 790 -28 778 -14 q 822 -43 803 -43 l 879 -43 q 911 -28 899 -43 q 924 8 924 -14 l 924 49 m 1421 254 q 1482 240 1453 254 q 1533 203 1511 226 q 1569 148 1556 179 q 1582 82 1582 117 l 1582 -21 q 1569 -90 1582 -57 q 1535 -146 1557 -122 q 1483 -183 1513 -169 q 1421 -197 1454 -197 l 1308 -197 q 1246 -183 1275 -197 q 1194 -146 1217 -169 q 1160 -90 1172 -122 q 1147 -21 1147 -57 l 1147 75 q 1160 140 1147 108 q 1194 198 1172 172 q 1246 239 1217 224 q 1308 254 1275 254 l 1421 254 m 1438 49 q 1425 85 1438 71 q 1393 100 1413 100 l 1336 100 q 1304 85 1317 100 q 1292 49 1292 71 l 1292 8 q 1304 -28 1292 -14 q 1336 -43 1317 -43 l 1393 -43 q 1425 -28 1413 -43 q 1438 8 1438 -14 l 1438 49 z "},"◁":{"ha":1333,"x_min":217,"x_max":1117,"o":"m 1117 -151 l 217 417 l 1117 988 l 1117 -151 m 1003 50 l 1003 786 l 417 417 l 1003 50 z "},"◀":{"ha":1333,"x_min":217,"x_max":1117,"o":"m 1117 -151 l 217 417 l 1117 988 l 1117 -151 z "},"▷":{"ha":1333,"x_min":217,"x_max":1117,"o":"m 1117 417 l 217 -151 l 217 988 l 1117 417 m 915 417 l 329 786 l 329 50 l 915 417 z "},"▶":{"ha":1333,"x_min":217,"x_max":1117,"o":"m 1117 417 l 217 -151 l 217 988 l 1117 417 z "},"♤":{"ha":1333,"x_min":186,"x_max":1147,"o":"m 1147 271 q 1133 182 1147 222 q 1091 113 1118 142 q 1026 67 1064 83 q 943 50 989 50 q 860 67 899 50 q 764 115 821 83 q 772 52 765 88 q 790 -20 779 17 q 813 -92 800 -57 q 840 -156 826 -128 q 843 -157 842 -156 q 851 -162 847 -161 q 840 -181 857 -175 q 793 -190 822 -187 q 730 -193 764 -193 q 668 -193 696 -193 q 601 -193 636 -193 q 538 -190 567 -193 q 492 -181 508 -187 q 481 -162 475 -175 q 494 -156 494 -156 q 521 -90 508 -125 q 543 -19 533 -54 q 560 51 553 17 q 569 115 567 86 q 475 67 514 83 q 392 50 436 50 q 308 67 346 50 q 242 113 269 83 q 201 182 215 142 q 186 271 186 222 q 230 423 186 335 q 344 612 274 511 q 499 820 414 713 q 668 1031 585 928 q 836 820 751 928 q 990 612 921 713 q 1103 423 1060 511 q 1147 271 1147 335 m 1013 299 q 978 412 1013 344 q 893 554 944 479 q 781 706 842 629 q 668 846 721 782 q 553 706 614 782 q 442 554 493 629 q 356 412 390 479 q 322 299 322 344 q 328 251 322 276 q 349 206 335 226 q 385 172 363 185 q 440 158 408 158 q 490 169 467 158 q 535 192 514 179 q 572 216 556 206 q 600 226 589 226 q 638 186 636 226 q 627 93 639 147 q 597 -19 615 39 q 598 -43 592 -39 q 622 -49 604 -47 q 629 -48 622 -49 q 644 -47 636 -47 q 660 -47 653 -47 q 668 -47 667 -47 q 692 -47 679 -47 q 714 -46 704 -47 q 734 -40 726 -44 q 736 -19 742 -35 q 706 93 718 39 q 696 186 694 147 q 707 217 699 208 q 735 226 715 226 q 762 216 746 226 q 799 192 778 206 q 844 169 819 179 q 894 158 868 158 q 949 172 926 158 q 986 206 972 185 q 1006 251 1000 226 q 1013 299 1013 276 z "},"♠":{"ha":1333,"x_min":188,"x_max":1146,"o":"m 1146 271 q 1131 182 1146 222 q 1090 113 1117 142 q 1026 67 1063 83 q 943 50 989 50 q 858 68 899 50 q 761 119 818 86 q 769 56 763 92 q 787 -18 776 19 q 810 -92 797 -56 q 838 -156 824 -128 q 818 -186 850 -182 q 749 -192 790 -190 q 667 -194 707 -194 q 583 -192 622 -194 q 515 -186 544 -190 q 496 -156 482 -182 q 522 -89 510 -125 q 545 -17 535 -53 q 563 55 556 19 q 572 119 569 90 q 475 68 515 86 q 390 50 435 50 q 308 67 344 50 q 244 113 271 83 q 202 182 217 142 q 188 271 188 222 q 231 423 188 335 q 344 612 275 511 q 498 820 413 713 q 667 1032 583 928 q 835 820 750 928 q 990 612 921 713 q 1102 423 1058 511 q 1146 271 1146 335 z "},"♡":{"ha":1333,"x_min":156,"x_max":1178,"o":"m 1178 678 q 1128 457 1178 572 q 1001 230 1078 342 q 835 17 925 118 q 667 -160 746 -83 q 498 17 588 -83 q 332 230 408 118 q 206 457 256 342 q 156 678 156 572 q 176 790 156 738 q 231 881 196 843 q 313 942 265 919 q 413 964 360 964 q 569 903 506 964 q 667 700 633 842 q 764 903 700 842 q 921 964 828 964 q 1021 942 974 964 q 1103 881 1068 919 q 1158 790 1138 843 q 1178 678 1178 738 m 1036 624 q 992 764 1036 708 q 853 819 947 819 q 801 805 824 819 q 761 767 778 790 q 733 717 744 744 q 714 665 721 690 q 697 624 707 644 q 667 603 688 603 q 636 624 646 603 q 619 665 626 644 q 600 717 613 690 q 571 767 588 744 q 531 805 554 790 q 481 819 508 819 q 340 764 386 819 q 293 624 293 708 q 330 469 293 551 q 422 304 367 386 q 542 146 476 222 q 667 8 608 69 q 790 146 725 69 q 910 304 856 222 q 1000 469 964 386 q 1036 624 1036 551 z "},"♥":{"ha":1333,"x_min":156,"x_max":1178,"o":"m 1178 678 q 1128 457 1178 572 q 1001 230 1078 342 q 835 17 925 118 q 667 -160 746 -83 q 498 17 588 -83 q 332 230 408 118 q 206 457 256 342 q 156 678 156 572 q 176 790 156 738 q 231 881 196 843 q 313 942 265 919 q 413 964 360 964 q 569 903 506 964 q 667 700 633 842 q 764 903 700 842 q 921 964 828 964 q 1021 942 974 964 q 1103 881 1068 919 q 1158 790 1138 843 q 1178 678 1178 738 z "},"♧":{"ha":1333,"x_min":83,"x_max":1250,"o":"m 1250 285 q 1233 183 1250 232 q 1183 97 1215 135 q 1104 38 1150 60 q 1003 15 1058 15 q 928 26 964 15 q 863 56 893 38 q 808 94 832 74 q 767 133 783 114 q 788 74 778 108 q 807 1 799 40 q 820 -81 815 -39 q 825 -162 825 -122 q 817 -178 825 -172 q 800 -185 810 -183 q 769 -187 781 -186 q 746 -188 758 -187 q 715 -189 733 -189 q 667 -189 697 -189 q 601 -188 631 -189 q 533 -185 571 -187 q 516 -178 524 -183 q 508 -162 508 -172 q 513 -81 508 -122 q 525 1 517 -39 q 544 74 533 40 q 567 133 554 108 q 525 94 550 114 q 470 56 500 74 q 404 26 440 38 q 329 15 368 15 q 228 38 274 15 q 151 97 183 60 q 101 183 118 135 q 83 285 83 232 q 101 384 83 336 q 151 469 119 432 q 226 528 182 506 q 322 550 269 550 q 415 532 371 550 q 503 494 460 514 q 526 490 514 489 q 543 499 539 492 q 544 523 550 510 q 532 543 539 536 q 472 601 497 574 q 431 656 447 628 q 408 715 415 683 q 400 785 400 746 q 422 883 400 839 q 481 957 444 926 q 566 1004 518 988 q 667 1021 614 1021 q 767 1004 719 1021 q 852 957 815 988 q 911 883 889 926 q 933 785 933 839 q 926 715 933 746 q 902 656 918 683 q 861 601 886 628 q 801 543 836 574 q 789 523 794 536 q 790 499 783 510 q 807 490 794 492 q 831 494 819 489 q 917 532 874 514 q 1010 550 961 550 q 1106 528 1063 550 q 1182 469 1150 506 q 1232 384 1214 432 q 1250 285 1250 336 m 1144 300 q 1094 417 1144 376 q 963 458 1043 458 q 903 453 932 458 q 850 440 875 447 q 804 426 825 432 q 767 421 783 421 q 718 438 739 421 q 697 485 697 454 q 717 535 697 511 q 763 589 738 560 q 808 656 788 618 q 828 749 828 694 q 786 875 828 832 q 667 918 744 918 q 549 875 592 918 q 506 749 506 832 q 526 656 506 694 q 569 589 546 618 q 613 535 593 560 q 633 485 633 511 q 614 438 633 454 q 567 421 594 421 q 529 426 550 421 q 483 440 508 432 q 430 453 458 447 q 371 458 401 458 q 240 417 290 458 q 189 300 189 376 q 240 174 189 222 q 378 125 292 125 q 457 144 422 125 q 519 185 492 163 q 569 226 547 207 q 611 244 592 244 q 627 238 624 244 q 631 218 631 231 q 625 161 631 193 q 612 92 619 129 q 599 12 604 54 q 593 -75 593 -31 q 610 -90 593 -89 q 637 -92 622 -92 q 667 -93 651 -93 q 697 -92 682 -93 q 724 -90 711 -92 q 740 -75 740 -89 q 735 12 740 -31 q 722 92 729 54 q 708 161 714 129 q 703 218 703 193 q 706 238 703 231 q 722 244 710 244 q 763 226 740 244 q 813 185 785 207 q 875 144 840 163 q 956 125 910 125 q 1093 174 1042 125 q 1144 300 1144 222 z "},"♣":{"ha":1333,"x_min":83,"x_max":1250,"o":"m 1250 285 q 1233 183 1250 232 q 1183 97 1215 135 q 1104 38 1150 60 q 1003 15 1058 15 q 928 26 964 15 q 863 56 893 38 q 808 94 832 74 q 767 133 783 114 q 788 74 778 108 q 807 1 799 40 q 820 -81 815 -39 q 825 -162 825 -122 q 817 -178 825 -172 q 800 -185 810 -183 q 769 -187 781 -186 q 746 -188 758 -187 q 715 -189 733 -189 q 667 -189 697 -189 q 601 -188 631 -189 q 533 -185 571 -187 q 516 -178 524 -183 q 508 -162 508 -172 q 513 -81 508 -122 q 525 1 517 -39 q 544 74 533 40 q 567 133 554 108 q 525 94 550 114 q 470 56 500 74 q 404 26 440 38 q 329 15 368 15 q 228 38 274 15 q 151 97 183 60 q 101 183 118 135 q 83 285 83 232 q 101 384 83 336 q 151 469 119 432 q 226 528 182 506 q 322 550 269 550 q 415 532 371 550 q 503 494 460 514 q 526 490 514 489 q 543 499 539 492 q 544 523 550 510 q 532 543 539 536 q 472 601 497 574 q 431 656 447 628 q 408 715 415 683 q 400 785 400 746 q 422 883 400 839 q 481 957 444 926 q 566 1004 518 988 q 667 1021 614 1021 q 767 1004 719 1021 q 852 957 815 988 q 911 883 889 926 q 933 785 933 839 q 926 715 933 746 q 902 656 918 683 q 861 601 886 628 q 801 543 836 574 q 789 523 794 536 q 790 499 783 510 q 807 490 794 492 q 831 494 819 489 q 917 532 874 514 q 1010 550 961 550 q 1106 528 1063 550 q 1182 469 1150 506 q 1232 384 1214 432 q 1250 285 1250 336 z "},"⊙":{"ha":1333,"x_min":96,"x_max":1238,"o":"m 1238 415 q 1192 193 1238 297 q 1070 12 1147 89 q 889 -110 993 -65 q 667 -156 785 -156 q 447 -110 550 -156 q 265 12 343 -65 q 141 193 186 89 q 96 415 96 297 q 141 638 96 533 q 265 819 186 742 q 447 941 343 896 q 667 986 550 986 q 889 941 785 986 q 1070 819 993 896 q 1192 638 1147 742 q 1238 415 1238 533 m 1115 415 q 1080 590 1115 508 q 983 732 1044 671 q 841 828 922 793 q 667 864 760 864 q 492 828 574 864 q 351 732 411 793 q 255 590 290 671 q 219 415 219 508 q 255 241 219 322 q 351 99 290 160 q 492 3 411 39 q 667 -32 574 -32 q 841 3 760 -32 q 983 99 922 39 q 1080 241 1044 160 q 1115 415 1115 322 m 888 415 q 870 329 888 369 q 823 259 853 289 q 753 212 793 229 q 667 194 713 194 q 581 212 621 194 q 511 259 542 229 q 463 329 481 289 q 446 415 446 369 q 463 501 446 461 q 511 572 481 542 q 581 619 542 601 q 667 636 621 636 q 753 619 713 636 q 823 572 793 601 q 870 501 853 542 q 888 415 888 461 z "},"◈":{"ha":1333,"x_min":31,"x_max":1303,"o":"m 1303 414 l 665 -222 l 31 413 l 667 1050 l 1303 414 m 1196 414 l 667 942 l 133 413 l 665 -119 l 1196 414 m 1038 413 l 667 42 l 294 413 l 667 783 l 1038 413 z "},"▣":{"ha":1333,"x_min":122,"x_max":1211,"o":"m 1211 -131 l 122 -131 l 122 957 l 1211 957 l 1211 -131 m 1129 -49 l 1129 875 l 204 875 l 204 -49 l 1129 -49 m 982 94 l 349 94 l 349 728 l 982 728 l 982 94 z "},"◐":{"ha":1333,"x_min":111,"x_max":1222,"o":"m 1222 415 q 1178 199 1222 300 q 1059 23 1135 99 q 882 -97 983 -53 q 667 -140 781 -140 q 453 -97 554 -140 q 276 23 351 -53 q 156 199 200 99 q 111 415 111 300 q 156 631 111 529 q 276 808 200 732 q 453 927 351 883 q 667 971 554 971 q 882 927 781 971 q 1059 808 983 883 q 1178 631 1135 732 q 1222 415 1222 529 m 1165 415 q 1126 608 1165 517 q 1018 767 1086 699 q 859 874 950 835 q 667 914 768 914 l 667 -82 q 859 -42 768 -82 q 1018 65 950 -3 q 1126 222 1086 132 q 1165 415 1165 313 z "},"◑":{"ha":1333,"x_min":111,"x_max":1222,"o":"m 1222 415 q 1178 199 1222 300 q 1058 23 1133 99 q 881 -97 982 -53 q 667 -140 779 -140 q 451 -97 551 -140 q 274 23 350 -53 q 155 199 199 99 q 111 415 111 300 q 155 631 111 529 q 274 808 199 732 q 451 927 350 883 q 667 971 551 971 q 881 927 779 971 q 1058 808 982 883 q 1178 631 1133 732 q 1222 415 1222 529 m 667 914 q 474 874 564 914 q 315 767 383 835 q 208 608 247 699 q 168 415 168 517 q 208 222 168 313 q 315 65 247 132 q 474 -42 383 -3 q 667 -82 564 -82 l 667 914 z "},"▒":{"ha":1333,"x_min":139,"x_max":1194,"o":"m 1194 -114 l 139 -114 l 139 940 l 1194 940 l 1194 -114 m 1149 -68 l 1149 894 l 185 894 l 185 -68 l 1149 -68 m 1103 817 q 1092 790 1103 800 q 1067 781 1082 781 q 1031 817 1031 781 q 1040 842 1031 832 q 1067 853 1050 853 q 1092 842 1082 853 q 1103 817 1103 832 m 968 817 q 933 781 968 781 q 899 817 899 781 q 908 842 899 832 q 933 853 918 853 q 958 842 949 853 q 968 817 968 832 m 1103 682 q 1092 658 1103 668 q 1067 649 1082 649 q 1040 658 1050 649 q 1031 682 1031 668 q 1040 708 1031 697 q 1067 718 1050 718 q 1092 708 1082 718 q 1103 682 1103 697 m 968 682 q 958 658 968 668 q 933 649 949 649 q 908 658 918 649 q 899 682 899 668 q 908 708 899 697 q 933 718 918 718 q 958 708 949 718 q 968 682 968 697 m 838 817 q 827 790 838 800 q 801 781 817 781 q 774 790 786 781 q 763 817 763 800 q 774 842 763 832 q 801 853 786 853 q 827 842 817 853 q 838 817 838 832 m 1103 551 q 1092 524 1103 536 q 1067 513 1082 513 q 1040 524 1050 513 q 1031 551 1031 536 q 1040 577 1031 567 q 1067 588 1050 588 q 1092 577 1082 588 q 1103 551 1103 567 m 838 682 q 827 658 838 668 q 801 649 817 649 q 774 658 786 649 q 763 682 763 668 q 774 708 763 697 q 801 718 786 718 q 827 708 817 718 q 838 682 838 697 m 968 551 q 958 524 968 536 q 933 513 949 513 q 908 524 918 513 q 899 551 899 536 q 908 577 899 567 q 933 588 918 588 q 958 577 949 588 q 968 551 968 567 m 701 817 q 667 781 701 781 q 642 790 653 781 q 631 817 631 800 q 642 842 631 832 q 667 853 653 853 q 692 842 682 853 q 701 817 701 832 m 1103 417 q 1092 392 1103 403 q 1067 382 1082 382 q 1040 392 1050 382 q 1031 417 1031 403 q 1067 453 1031 453 q 1092 442 1082 453 q 1103 417 1103 432 m 701 682 q 692 658 701 668 q 667 649 682 649 q 642 658 653 649 q 631 682 631 668 q 642 708 631 697 q 667 718 653 718 q 692 708 682 718 q 701 682 701 697 m 838 551 q 827 524 838 536 q 801 513 817 513 q 774 524 786 513 q 763 551 763 536 q 774 577 763 567 q 801 588 786 588 q 827 577 817 588 q 838 551 838 567 m 968 417 q 958 392 968 403 q 933 382 949 382 q 908 392 918 382 q 899 417 899 403 q 933 453 899 453 q 968 417 968 453 m 571 817 q 559 790 571 800 q 532 781 547 781 q 497 817 497 781 q 507 842 497 832 q 532 853 517 853 q 559 842 547 853 q 571 817 571 832 m 1103 282 q 1092 256 1103 267 q 1067 246 1082 246 q 1040 256 1050 246 q 1031 282 1031 267 q 1040 309 1031 297 q 1067 321 1050 321 q 1092 309 1082 321 q 1103 282 1103 297 m 571 682 q 559 658 571 668 q 532 649 547 649 q 507 658 517 649 q 497 682 497 668 q 507 708 497 697 q 532 718 517 718 q 559 708 547 718 q 571 682 571 697 m 701 551 q 692 524 701 536 q 667 513 682 513 q 642 524 653 513 q 631 551 631 536 q 642 577 631 567 q 667 588 653 588 q 692 577 682 588 q 701 551 701 567 m 838 417 q 827 392 838 403 q 801 382 817 382 q 774 392 786 382 q 763 417 763 403 q 774 442 763 432 q 801 453 786 453 q 827 442 817 453 q 838 417 838 432 m 968 282 q 958 256 968 267 q 933 246 949 246 q 908 256 918 246 q 899 282 899 267 q 908 309 899 297 q 933 321 918 321 q 958 309 949 321 q 968 282 968 297 m 436 817 q 426 790 436 800 q 401 781 415 781 q 376 790 386 781 q 365 817 365 800 q 376 842 365 832 q 401 853 386 853 q 426 842 415 853 q 436 817 436 832 m 1103 151 q 1092 126 1103 136 q 1067 115 1082 115 q 1040 126 1050 115 q 1031 151 1031 136 q 1040 175 1031 165 q 1067 185 1050 185 q 1092 175 1082 185 q 1103 151 1103 165 m 303 817 q 268 781 303 781 q 242 790 253 781 q 232 817 232 800 q 242 842 232 832 q 268 853 253 853 q 294 842 285 853 q 303 817 303 832 m 436 682 q 426 658 436 668 q 401 649 415 649 q 376 658 386 649 q 365 682 365 668 q 376 708 365 697 q 401 718 386 718 q 426 708 415 718 q 436 682 436 697 m 571 551 q 559 524 571 536 q 532 513 547 513 q 507 524 517 513 q 497 551 497 536 q 507 577 497 567 q 532 588 517 588 q 559 577 547 588 q 571 551 571 567 m 701 417 q 692 392 701 403 q 667 382 682 382 q 642 392 653 382 q 631 417 631 403 q 642 442 631 432 q 667 453 653 453 q 701 417 701 453 m 838 282 q 827 256 838 267 q 801 246 817 246 q 774 256 786 246 q 763 282 763 267 q 774 309 763 297 q 801 321 786 321 q 827 309 817 321 q 838 282 838 297 m 968 151 q 958 126 968 136 q 933 115 949 115 q 908 126 918 115 q 899 151 899 136 q 908 175 899 165 q 933 185 918 185 q 958 175 949 185 q 968 151 968 165 m 1103 17 q 1092 -9 1103 1 q 1067 -19 1082 -19 q 1040 -9 1050 -19 q 1031 17 1031 1 q 1067 53 1031 53 q 1092 43 1082 53 q 1103 17 1103 33 m 303 682 q 294 658 303 668 q 268 649 285 649 q 242 658 253 649 q 232 682 232 668 q 242 708 232 697 q 268 718 253 718 q 294 708 285 718 q 303 682 303 697 m 968 17 q 958 -9 968 1 q 933 -19 949 -19 q 908 -9 918 -19 q 899 17 899 1 q 933 53 899 53 q 968 17 968 53 m 436 551 q 426 524 436 536 q 401 513 415 513 q 376 524 386 513 q 365 551 365 536 q 376 577 365 567 q 401 588 386 588 q 426 577 415 588 q 436 551 436 567 m 571 417 q 559 392 571 403 q 532 382 547 382 q 507 392 517 382 q 497 417 497 403 q 532 453 497 453 q 559 442 547 453 q 571 417 571 432 m 701 282 q 692 256 701 267 q 667 246 682 246 q 642 256 653 246 q 631 282 631 267 q 642 309 631 297 q 667 321 653 321 q 692 309 682 321 q 701 282 701 297 m 838 151 q 827 126 838 136 q 801 115 817 115 q 774 126 786 115 q 763 151 763 136 q 774 175 763 165 q 801 185 786 185 q 827 175 817 185 q 838 151 838 165 m 303 551 q 294 524 303 536 q 268 513 285 513 q 242 524 253 513 q 232 551 232 536 q 242 577 232 567 q 268 588 253 588 q 294 577 285 588 q 303 551 303 567 m 838 17 q 827 -9 838 1 q 801 -19 817 -19 q 774 -9 786 -19 q 763 17 763 1 q 774 43 763 33 q 801 53 786 53 q 827 43 817 53 q 838 17 838 33 m 436 417 q 426 392 436 403 q 401 382 415 382 q 376 392 386 382 q 365 417 365 403 q 376 442 365 432 q 401 453 386 453 q 426 442 415 453 q 436 417 436 432 m 571 282 q 559 256 571 267 q 532 246 547 246 q 507 256 517 246 q 497 282 497 267 q 507 309 497 297 q 532 321 517 321 q 559 309 547 321 q 571 282 571 297 m 701 151 q 692 126 701 136 q 667 115 682 115 q 642 126 653 115 q 631 151 631 136 q 642 175 631 165 q 667 185 653 185 q 692 175 682 185 q 701 151 701 165 m 303 417 q 294 392 303 403 q 268 382 285 382 q 242 392 253 382 q 232 417 232 403 q 242 442 232 432 q 268 453 253 453 q 303 417 303 453 m 701 17 q 692 -9 701 1 q 667 -19 682 -19 q 642 -9 653 -19 q 631 17 631 1 q 642 43 631 33 q 667 53 653 53 q 701 17 701 53 m 436 282 q 426 256 436 267 q 401 246 415 246 q 376 256 386 246 q 365 282 365 267 q 376 309 365 297 q 401 321 386 321 q 426 309 415 321 q 436 282 436 297 m 571 151 q 559 126 571 136 q 532 115 547 115 q 507 126 517 115 q 497 151 497 136 q 507 175 497 165 q 532 185 517 185 q 559 175 547 185 q 571 151 571 165 m 303 282 q 294 256 303 267 q 268 246 285 246 q 242 256 253 246 q 232 282 232 267 q 242 309 232 297 q 268 321 253 321 q 294 309 285 321 q 303 282 303 297 m 571 17 q 559 -9 571 1 q 532 -19 547 -19 q 507 -9 517 -19 q 497 17 497 1 q 532 53 497 53 q 559 43 547 53 q 571 17 571 33 m 436 151 q 426 126 436 136 q 401 115 415 115 q 376 126 386 115 q 365 151 365 136 q 376 175 365 165 q 401 185 386 185 q 426 175 415 185 q 436 151 436 165 m 303 151 q 294 126 303 136 q 268 115 285 115 q 242 126 253 115 q 232 151 232 136 q 242 175 232 165 q 268 185 253 185 q 294 175 285 185 q 303 151 303 165 m 436 17 q 426 -9 436 1 q 401 -19 415 -19 q 376 -9 386 -19 q 365 17 365 1 q 376 43 365 33 q 401 53 386 53 q 426 43 415 53 q 436 17 436 33 m 303 17 q 294 -9 303 1 q 268 -19 285 -19 q 242 -9 253 -19 q 232 17 232 1 q 242 43 232 33 q 268 53 253 53 q 303 17 303 53 z "},"▤":{"ha":1333,"x_min":139,"x_max":1194,"o":"m 1194 -114 l 139 -114 l 139 940 l 1194 940 l 1194 -114 m 1149 797 l 1149 894 l 185 894 l 185 797 l 1149 797 m 1149 649 l 1149 753 l 185 753 l 185 649 l 1149 649 m 1149 508 l 1149 604 l 185 604 l 185 508 l 1149 508 m 1149 363 l 1149 464 l 185 464 l 185 363 l 1149 363 m 1149 214 l 1149 318 l 185 318 l 185 214 l 1149 214 m 1149 72 l 1149 169 l 185 169 l 185 72 l 1149 72 m 1149 -68 l 1149 28 l 185 28 l 185 -68 l 1149 -68 z "},"▥":{"ha":1333,"x_min":139,"x_max":1194,"o":"m 1194 -114 l 139 -114 l 139 940 l 1194 940 l 1194 -114 m 1149 -68 l 1149 894 l 1051 894 l 1051 -68 l 1149 -68 m 1007 -68 l 1007 894 l 910 894 l 910 -68 l 1007 -68 m 865 -68 l 865 894 l 761 894 l 761 -68 l 865 -68 m 717 -68 l 717 894 l 615 894 l 615 -68 l 717 -68 m 571 -68 l 571 894 l 475 894 l 475 -68 l 571 -68 m 431 -68 l 431 894 l 326 894 l 326 -68 l 431 -68 m 282 -68 l 282 894 l 185 894 l 185 -68 l 282 -68 z "},"▨":{"ha":1333,"x_min":139,"x_max":1194,"o":"m 1194 -114 l 139 -114 l 139 940 l 1194 940 l 1194 -114 m 1149 693 l 1149 861 l 219 -68 l 388 -68 l 1149 693 m 1149 458 l 1149 626 l 454 -68 l 622 -68 l 1149 458 m 1149 221 l 1149 390 l 690 -68 l 860 -68 l 1149 221 m 1149 -68 l 1149 154 l 926 -68 l 1149 -68 m 406 894 l 185 894 l 185 675 l 406 894 m 643 894 l 472 894 l 185 608 l 185 438 l 643 894 m 879 894 l 711 894 l 185 369 l 185 201 l 879 894 m 1113 894 l 946 894 l 185 135 l 185 -33 l 1113 894 z "},"▧":{"ha":1333,"x_min":139,"x_max":1194,"o":"m 1194 -114 l 139 -114 l 139 940 l 1194 940 l 1194 -114 m 1149 675 l 1149 894 l 928 894 l 1149 675 m 1149 438 l 1149 608 l 861 894 l 690 894 l 1149 438 m 1149 201 l 1149 369 l 622 894 l 454 894 l 1149 201 m 1149 -33 l 1149 135 l 388 894 l 221 894 l 1149 -33 m 1114 -68 l 185 861 l 185 693 l 946 -68 l 1114 -68 m 879 -68 l 185 626 l 185 458 l 711 -68 l 879 -68 m 643 -68 l 185 390 l 185 221 l 474 -68 l 643 -68 m 407 -68 l 185 154 l 185 -68 l 407 -68 z "},"▦":{"ha":1333,"x_min":139,"x_max":1194,"o":"m 1194 -114 l 139 -114 l 139 940 l 1194 940 l 1194 -114 m 1149 793 l 1149 894 l 1047 894 l 1047 793 l 1149 793 m 1149 650 l 1149 751 l 1047 751 l 1047 650 l 1149 650 m 1004 793 l 1004 894 l 903 894 l 903 793 l 1004 793 m 1149 506 l 1149 608 l 1047 608 l 1047 506 l 1149 506 m 861 793 l 861 894 l 758 894 l 758 793 l 861 793 m 1004 650 l 1004 751 l 903 751 l 903 650 l 1004 650 m 1149 363 l 1149 464 l 1047 464 l 1047 363 l 1149 363 m 717 793 l 717 894 l 615 894 l 615 793 l 717 793 m 861 650 l 861 751 l 758 751 l 758 650 l 861 650 m 1004 506 l 1004 608 l 903 608 l 903 506 l 1004 506 m 1149 218 l 1149 321 l 1047 321 l 1047 218 l 1149 218 m 574 793 l 574 894 l 471 894 l 471 793 l 574 793 m 717 650 l 717 751 l 615 751 l 615 650 l 717 650 m 861 506 l 861 608 l 758 608 l 758 506 l 861 506 m 1004 363 l 1004 464 l 903 464 l 903 363 l 1004 363 m 1149 75 l 1149 176 l 1047 176 l 1047 75 l 1149 75 m 429 793 l 429 894 l 328 894 l 328 793 l 429 793 m 574 650 l 574 751 l 471 751 l 471 650 l 574 650 m 717 506 l 717 608 l 615 608 l 615 506 l 717 506 m 861 363 l 861 464 l 758 464 l 758 363 l 861 363 m 1004 218 l 1004 321 l 903 321 l 903 218 l 1004 218 m 1149 -68 l 1149 33 l 1047 33 l 1047 -68 l 1149 -68 m 286 793 l 286 894 l 185 894 l 185 793 l 286 793 m 429 650 l 429 751 l 328 751 l 328 650 l 429 650 m 574 506 l 574 608 l 471 608 l 471 506 l 574 506 m 717 363 l 717 464 l 615 464 l 615 363 l 717 363 m 861 218 l 861 321 l 758 321 l 758 218 l 861 218 m 1004 75 l 1004 176 l 903 176 l 903 75 l 1004 75 m 1004 -68 l 1004 33 l 903 33 l 903 -68 l 1004 -68 m 286 650 l 286 751 l 185 751 l 185 650 l 286 650 m 429 506 l 429 608 l 328 608 l 328 506 l 429 506 m 574 363 l 574 464 l 471 464 l 471 363 l 574 363 m 717 218 l 717 321 l 615 321 l 615 218 l 717 218 m 861 75 l 861 176 l 758 176 l 758 75 l 861 75 m 861 -68 l 861 33 l 758 33 l 758 -68 l 861 -68 m 286 506 l 286 608 l 185 608 l 185 506 l 286 506 m 429 363 l 429 464 l 328 464 l 328 363 l 429 363 m 574 218 l 574 321 l 471 321 l 471 218 l 574 218 m 717 75 l 717 176 l 615 176 l 615 75 l 717 75 m 717 -68 l 717 33 l 615 33 l 615 -68 l 717 -68 m 286 363 l 286 464 l 185 464 l 185 363 l 286 363 m 429 218 l 429 321 l 328 321 l 328 218 l 429 218 m 574 75 l 574 176 l 471 176 l 471 75 l 574 75 m 574 -68 l 574 33 l 471 33 l 471 -68 l 574 -68 m 286 218 l 286 321 l 185 321 l 185 218 l 286 218 m 429 75 l 429 176 l 328 176 l 328 75 l 429 75 m 429 -68 l 429 33 l 328 33 l 328 -68 l 429 -68 m 286 75 l 286 176 l 185 176 l 185 75 l 286 75 m 286 -68 l 286 33 l 185 33 l 185 -68 l 286 -68 z "},"▩":{"ha":1333,"x_min":139,"x_max":1194,"o":"m 1194 -114 l 139 -114 l 139 940 l 1194 940 l 1194 -114 m 1149 675 l 1149 864 l 1053 769 l 1149 675 m 1111 894 l 928 894 l 1019 803 l 1111 894 m 1114 642 l 1021 738 l 933 651 l 1029 557 l 1114 642 m 983 769 l 894 860 l 810 776 l 901 683 l 983 769 m 863 894 l 690 894 l 778 810 l 863 894 m 1149 436 l 1149 608 l 1064 524 l 1149 436 m 742 776 l 657 860 l 574 776 l 657 692 l 742 776 m 868 651 l 776 742 l 690 658 l 785 568 l 868 651 m 996 525 l 901 618 l 818 535 l 911 438 l 996 525 m 1114 404 l 1029 488 l 944 404 l 1031 321 l 1114 404 m 622 894 l 454 894 l 538 811 l 622 894 m 1149 201 l 1149 369 l 1065 285 l 1149 201 m 879 404 l 783 499 l 699 415 l 794 322 l 879 404 m 504 776 l 419 861 l 336 778 l 421 693 l 504 776 m 747 535 l 657 625 l 575 542 l 665 450 l 747 535 m 997 285 l 911 369 l 829 286 l 913 201 l 997 285 m 1114 168 l 1031 251 l 946 168 l 1031 83 l 1114 168 m 622 658 l 536 743 l 454 660 l 539 575 l 622 658 m 388 894 l 221 894 l 303 813 l 388 894 m 1149 -33 l 1149 135 l 1065 50 l 1149 -33 m 1114 -68 l 1031 15 l 946 -68 l 1114 -68 m 268 778 l 185 861 l 185 693 l 268 778 m 760 285 l 665 383 l 582 296 l 675 203 l 760 285 m 388 660 l 303 744 l 219 660 l 303 576 l 388 660 m 504 543 l 421 626 l 336 543 l 421 458 l 504 543 m 629 415 l 538 507 l 454 424 l 546 333 l 629 415 m 879 168 l 796 251 l 711 168 l 796 83 l 879 168 m 997 50 l 913 135 l 829 50 l 913 -33 l 997 50 m 879 -68 l 796 15 l 711 -68 l 879 -68 m 268 543 l 185 626 l 185 458 l 268 543 m 388 424 l 303 507 l 219 424 l 303 340 l 388 424 m 511 297 l 421 390 l 336 304 l 428 214 l 511 297 m 643 168 l 546 264 l 461 181 l 556 83 l 643 168 m 760 50 l 676 135 l 593 50 l 676 -33 l 760 50 m 268 304 l 185 390 l 185 222 l 268 304 m 643 -68 l 557 15 l 472 -68 l 643 -68 m 394 181 l 303 271 l 219 188 l 310 99 l 394 181 m 522 51 l 428 147 l 343 63 l 440 -33 l 522 51 m 275 63 l 185 154 l 185 -28 l 275 63 m 407 -68 l 310 29 l 215 -68 l 407 -68 z "},"♨":{"ha":1333,"x_min":99,"x_max":1233,"o":"m 953 414 q 946 318 957 360 q 918 243 935 276 q 883 183 901 210 q 853 135 864 157 q 824 71 833 99 q 813 31 815 43 q 803 19 810 22 q 793 31 797 17 q 787 58 789 40 q 785 94 785 75 q 788 134 785 114 q 799 171 792 154 q 824 242 811 203 q 845 324 838 282 q 851 407 853 365 q 835 485 850 449 q 801 583 810 539 q 795 667 793 628 q 808 743 797 707 q 835 817 819 779 q 850 868 846 840 q 854 914 854 896 q 860 929 854 926 q 874 917 867 932 q 893 845 885 894 q 890 713 901 796 q 890 631 883 664 q 909 568 897 599 q 934 503 921 538 q 953 414 947 468 m 765 397 q 763 327 772 365 q 739 251 754 289 q 706 181 724 214 q 678 129 688 149 q 636 24 638 51 q 625 12 635 11 q 611 22 615 13 q 600 92 601 46 q 622 197 599 139 q 648 297 643 247 q 649 390 653 347 q 635 463 644 432 q 621 506 626 494 q 588 622 592 571 q 593 715 583 674 q 619 790 603 757 q 651 853 636 824 q 677 929 671 894 q 683 986 683 964 q 691 1001 683 1001 q 706 989 699 1000 q 719 947 713 972 q 727 891 725 922 q 726 825 729 860 q 710 756 722 790 q 694 663 692 704 q 708 581 696 621 q 738 497 721 540 q 765 397 754 453 m 565 361 q 545 256 569 317 q 485 128 521 194 q 460 72 467 92 q 451 39 453 51 q 442 26 450 26 q 428 39 435 25 q 415 94 419 57 q 426 176 411 132 q 442 231 433 196 q 454 309 450 267 q 455 397 458 351 q 436 481 451 442 q 411 576 417 529 q 411 667 406 622 q 431 753 417 711 q 467 836 446 796 q 500 921 492 878 q 510 931 503 932 q 519 922 517 931 q 528 849 526 901 q 506 708 529 796 q 503 640 497 678 q 520 558 508 601 q 545 464 532 514 q 565 361 558 414 m 1233 135 q 1188 15 1233 69 q 1065 -80 1142 -40 q 886 -142 988 -119 q 674 -164 785 -164 q 458 -145 561 -164 q 274 -92 354 -126 q 147 -10 194 -57 q 99 94 99 38 q 134 195 99 151 q 217 269 169 239 q 316 319 265 300 q 396 346 367 338 q 414 340 411 351 q 399 321 417 328 q 362 303 393 318 q 295 262 331 288 q 231 201 260 236 q 203 125 203 167 q 244 60 203 88 q 353 15 286 33 q 505 -12 421 -3 q 675 -21 589 -21 q 844 -9 760 -21 q 995 26 928 3 q 1104 81 1063 49 q 1146 154 1146 114 q 1127 208 1146 183 q 1083 254 1108 233 q 1028 289 1057 275 q 981 308 1000 303 q 969 326 964 315 q 989 333 974 336 q 1050 317 1010 331 q 1131 278 1090 303 q 1203 217 1172 253 q 1233 135 1233 182 z "},"☏":{"ha":1333,"x_min":51,"x_max":1282,"o":"m 1268 457 q 1240 438 1260 442 q 1194 438 1219 435 q 1138 447 1168 440 q 1082 461 1108 454 q 1001 492 1038 474 q 960 539 965 511 q 959 564 957 549 q 965 595 961 579 q 973 626 969 611 q 975 650 976 640 q 951 680 969 678 q 906 682 932 682 q 901 651 903 665 q 901 619 900 636 q 907 580 903 603 q 921 524 911 557 q 944 459 931 486 q 974 411 957 432 q 1010 373 990 390 q 1051 338 1029 356 q 1108 274 1088 307 q 1138 208 1128 240 q 1149 148 1147 176 q 1151 99 1151 119 q 1169 80 1163 93 q 1178 50 1175 67 q 1182 15 1182 33 q 1181 -17 1182 -3 q 1167 -34 1179 -29 q 1133 -39 1154 -39 l 200 -39 q 167 -34 179 -39 q 153 -17 154 -29 q 151 15 151 -3 q 155 50 151 33 q 165 80 158 67 q 182 99 171 93 q 184 148 182 119 q 196 208 186 176 q 226 274 206 240 q 282 338 246 307 q 324 373 304 356 q 360 411 343 390 q 390 459 376 432 q 413 524 403 486 q 426 580 421 557 q 431 619 431 603 q 431 651 432 636 q 428 682 429 665 q 383 680 401 682 q 358 650 364 678 q 359 626 356 640 q 367 595 363 611 q 374 564 371 579 q 374 539 376 549 q 332 492 368 511 q 251 461 296 474 q 194 447 224 454 q 140 438 165 440 q 94 438 114 435 q 65 457 74 442 q 54 498 57 471 q 56 556 51 525 q 73 619 61 588 q 104 676 85 651 q 199 753 139 721 q 335 808 260 786 q 495 840 410 829 q 667 850 581 850 q 838 840 751 850 q 999 808 924 829 q 1134 753 1074 786 q 1229 676 1194 721 q 1260 619 1249 651 q 1277 556 1272 588 q 1279 498 1282 525 q 1268 457 1276 471 m 744 601 l 744 672 q 667 658 713 658 q 589 672 621 658 l 589 601 l 744 601 m 1203 504 q 1215 523 1211 504 q 1210 570 1218 542 q 1183 632 1203 599 q 1124 694 1163 665 q 1038 737 1093 718 q 919 769 983 756 q 788 789 854 782 q 667 796 721 796 q 526 789 596 796 q 396 769 457 782 q 286 737 335 756 q 207 694 238 718 q 148 633 168 667 q 121 572 128 600 q 117 524 114 543 q 129 504 121 504 q 232 515 183 499 q 301 556 281 531 q 307 576 310 563 q 300 608 304 590 q 294 647 296 626 q 303 686 293 667 q 370 726 315 711 q 517 740 425 740 q 547 737 532 740 q 581 731 561 733 q 624 721 604 725 q 667 717 643 717 q 710 721 690 717 q 754 731 731 725 q 787 737 772 733 q 817 740 801 740 q 963 726 908 740 q 1031 686 1017 713 q 1039 647 1040 667 q 1033 608 1038 626 q 1026 576 1029 590 q 1032 556 1024 563 q 1060 534 1042 544 q 1101 516 1078 524 q 1150 505 1124 508 q 1203 504 1176 501 m 1090 31 q 1096 41 1094 31 q 1097 65 1097 51 q 1091 93 1096 79 q 1076 114 1086 107 q 1073 151 1076 128 q 1063 200 1069 175 q 1043 249 1056 225 q 1013 288 1031 272 q 963 335 983 315 q 926 374 942 356 q 900 410 911 392 q 881 451 889 428 q 851 574 857 515 q 849 675 846 633 l 807 675 l 807 546 l 526 546 l 526 675 l 483 675 q 482 574 488 633 q 453 451 476 515 q 433 410 444 428 q 406 374 422 392 q 369 335 390 356 q 321 288 349 315 q 290 249 303 272 q 271 200 278 225 q 260 151 264 175 q 257 114 257 128 q 241 93 246 107 q 235 65 236 79 q 237 41 235 51 q 243 31 239 31 l 1090 31 m 875 278 q 858 198 875 236 q 813 131 842 160 q 747 85 785 101 q 667 68 710 68 q 586 85 624 68 q 520 131 549 101 q 475 198 492 160 q 458 278 458 236 q 475 358 458 319 q 520 424 492 396 q 586 469 549 453 q 667 486 624 486 q 747 469 710 486 q 813 424 785 453 q 858 358 842 396 q 875 278 875 319 m 804 278 q 794 332 804 307 q 765 376 783 357 q 721 405 746 394 q 667 415 696 415 q 613 405 638 415 q 569 376 588 394 q 540 332 550 357 q 529 278 529 307 q 569 180 529 219 q 667 140 608 140 q 765 180 725 140 q 804 278 804 219 z "},"☎":{"ha":1333,"x_min":51,"x_max":1282,"o":"m 1268 457 q 1240 438 1260 442 q 1194 438 1219 435 q 1138 447 1168 440 q 1082 461 1108 454 q 1001 492 1038 474 q 960 539 965 511 q 961 564 957 549 q 971 595 965 579 q 981 626 976 611 q 982 650 985 640 q 954 688 976 678 q 906 701 932 697 q 901 630 901 669 q 921 524 901 590 q 944 459 931 486 q 974 411 957 432 q 1010 373 990 390 q 1051 338 1029 356 q 1108 274 1088 307 q 1138 208 1128 240 q 1149 148 1147 176 q 1151 99 1151 119 q 1169 80 1163 93 q 1178 50 1175 67 q 1182 15 1182 33 q 1181 -17 1182 -3 q 1167 -34 1179 -29 q 1133 -39 1154 -39 l 200 -39 q 167 -34 179 -39 q 153 -17 154 -29 q 151 15 151 -3 q 155 50 151 33 q 165 80 158 67 q 182 99 171 93 q 184 148 182 119 q 196 208 186 176 q 226 274 206 240 q 282 338 246 307 q 324 373 304 356 q 360 411 343 390 q 390 459 376 432 q 413 524 403 486 q 431 630 431 590 q 428 701 432 669 q 379 688 401 697 q 351 650 357 678 q 351 626 347 640 q 362 595 356 611 q 372 564 368 579 q 374 539 376 549 q 332 492 368 511 q 251 461 296 474 q 194 447 224 454 q 140 438 165 440 q 94 438 114 435 q 65 457 74 442 q 54 498 57 471 q 56 557 51 525 q 73 621 61 589 q 104 678 85 653 q 199 756 139 724 q 335 810 260 789 q 495 840 410 831 q 667 850 581 850 q 838 840 751 850 q 999 810 924 831 q 1134 756 1074 789 q 1229 678 1194 724 q 1260 621 1249 653 q 1277 557 1272 589 q 1279 498 1282 525 q 1268 457 1276 471 m 779 615 l 779 706 q 728 696 757 700 q 667 692 699 692 q 606 696 635 692 q 554 706 576 700 l 554 615 l 779 615 m 876 285 q 860 367 876 328 q 815 433 843 406 q 749 478 788 461 q 667 494 710 494 q 584 478 622 494 q 518 433 546 461 q 474 367 490 406 q 457 285 457 328 q 474 204 457 242 q 518 138 490 167 q 584 94 546 110 q 667 78 622 78 q 749 94 710 78 q 815 138 788 110 q 860 204 843 167 q 876 285 876 242 z "},"☜":{"ha":1333,"x_min":107,"x_max":1225,"o":"m 1225 251 l 1115 251 l 1115 281 l 1075 281 q 983 238 1038 258 q 836 203 928 218 q 772 197 810 199 q 695 196 735 196 q 620 198 656 196 q 563 203 585 200 q 512 217 535 207 q 482 250 489 226 q 486 277 479 267 q 504 294 493 288 q 468 308 485 294 q 450 343 451 322 q 453 368 449 358 q 465 386 458 378 q 431 399 446 389 q 415 432 415 408 q 442 476 415 464 q 531 489 468 489 l 526 500 q 466 502 493 501 q 412 503 439 503 q 354 506 385 504 q 285 510 324 507 q 222 513 254 511 q 165 520 190 514 q 123 538 139 526 q 107 572 107 550 q 120 601 107 590 q 156 616 133 611 q 210 623 179 621 q 276 628 240 625 q 340 631 296 629 q 440 633 383 632 q 560 634 496 633 q 683 635 624 635 q 776 634 729 635 q 867 626 822 633 q 953 602 911 619 q 1032 551 994 585 q 1078 544 1056 546 q 1117 543 1100 542 l 1117 588 l 1225 588 l 1225 251 m 1117 297 l 1117 517 q 1087 517 1106 515 q 1054 521 1068 518 q 1058 510 1057 511 q 1058 495 1061 496 q 1047 503 1056 494 q 1016 535 1036 517 q 964 574 996 554 q 906 597 943 588 q 831 610 869 606 q 756 615 792 614 q 703 613 721 615 q 656 601 682 610 q 608 578 629 592 q 591 561 597 571 q 578 540 585 551 q 566 519 572 529 q 549 504 560 510 q 553 492 543 497 q 594 497 563 486 q 620 512 608 503 q 640 529 632 521 q 654 543 649 538 q 663 544 660 549 q 657 521 669 538 q 686 515 668 517 q 715 515 704 513 q 758 535 743 525 q 776 540 772 546 q 772 523 779 533 q 754 506 765 513 q 793 470 763 493 q 868 432 824 447 q 919 419 896 422 q 961 413 943 415 q 989 409 979 411 q 999 401 999 407 q 985 396 999 397 q 953 396 972 394 q 913 401 935 397 q 875 408 892 404 q 822 431 846 418 q 781 457 799 443 q 750 483 763 471 q 732 503 738 494 q 716 498 725 499 q 699 497 707 497 q 663 501 679 499 q 640 507 647 504 l 618 489 q 681 480 656 489 q 711 454 707 471 q 711 419 717 435 q 694 396 706 404 q 739 356 735 386 q 735 327 742 336 q 718 311 729 318 q 763 269 758 297 q 756 235 767 247 q 744 222 746 222 q 796 222 765 218 q 972 257 906 232 q 1082 313 1038 282 q 1090 317 1086 317 q 1092 311 1093 317 l 1089 297 l 1117 297 m 629 613 q 466 611 558 613 q 278 607 374 610 q 169 599 208 604 q 131 572 131 594 q 165 545 131 550 q 278 535 199 540 l 542 521 q 554 542 547 531 q 574 568 561 553 q 597 594 585 583 q 629 613 610 606 m 1203 274 l 1203 564 l 1139 564 l 1139 274 l 1203 274 m 717 342 q 708 370 718 363 q 676 382 699 378 q 644 383 667 383 q 594 383 621 383 q 544 383 568 383 q 507 382 519 382 q 483 369 493 379 q 474 346 474 360 q 510 318 474 324 q 543 315 517 317 q 597 314 569 314 q 648 314 625 314 q 672 314 671 314 q 701 320 686 314 q 717 342 715 326 m 740 265 q 724 285 739 281 q 696 290 710 290 q 613 292 658 292 q 535 289 567 292 q 513 277 519 288 q 510 256 507 267 q 517 240 511 247 q 535 229 524 232 q 618 222 574 222 q 697 224 663 221 q 740 265 744 225 m 683 439 q 677 455 683 447 q 656 464 671 463 q 556 468 603 467 q 464 464 508 469 q 443 452 450 461 q 438 432 436 443 q 444 414 438 422 q 465 406 451 406 q 514 404 488 404 q 567 404 540 404 q 617 406 593 404 q 657 408 640 407 q 676 417 668 411 q 683 439 683 424 z "},"☞":{"ha":1333,"x_min":107,"x_max":1225,"o":"m 1225 572 q 1209 538 1225 550 q 1167 520 1193 526 q 1110 513 1142 514 q 1047 510 1078 511 q 977 506 1007 507 q 920 503 947 504 q 866 502 893 503 q 806 500 839 501 l 801 489 q 890 476 864 489 q 917 432 917 464 q 901 399 917 408 q 867 386 886 389 q 878 368 874 378 q 882 343 883 358 q 864 308 881 322 q 828 294 847 294 q 846 277 839 288 q 850 250 853 267 q 820 217 843 226 q 769 203 797 207 q 712 198 747 200 q 637 196 676 196 q 560 197 597 196 q 496 203 522 199 q 349 238 404 218 q 257 281 294 258 l 217 281 l 217 251 l 107 251 l 107 588 l 215 588 l 215 543 q 254 544 232 542 q 300 551 276 546 q 379 602 338 585 q 465 626 421 619 q 556 634 510 633 q 649 635 603 635 q 772 634 708 635 q 892 633 836 633 q 992 631 949 632 q 1056 628 1036 629 q 1122 623 1090 625 q 1176 616 1153 621 q 1212 601 1199 611 q 1225 572 1225 590 m 783 504 q 766 519 772 510 q 754 540 760 529 q 741 561 747 551 q 724 578 735 571 q 676 601 703 592 q 629 613 650 610 q 575 615 610 615 q 501 610 540 614 q 426 597 463 606 q 368 574 389 588 q 316 535 336 554 q 285 503 296 517 q 274 495 276 494 q 274 510 271 496 q 276 515 276 513 q 278 521 276 517 q 245 517 264 518 q 215 517 226 515 l 215 297 l 243 297 l 240 311 q 242 316 239 315 q 250 313 246 317 q 360 257 294 282 q 536 222 426 232 q 586 222 565 218 q 574 237 583 225 q 569 269 565 249 q 614 311 574 297 q 597 327 603 318 q 593 356 590 336 q 606 381 596 371 q 638 396 617 390 q 621 419 626 404 q 621 454 615 435 q 651 480 626 471 q 714 489 676 489 l 692 507 q 669 501 685 504 q 633 497 653 499 q 616 498 625 497 q 600 503 607 499 q 582 483 594 494 q 551 457 569 471 q 510 431 533 443 q 457 408 486 418 q 419 401 440 404 q 378 396 397 397 q 347 396 360 394 q 333 401 333 397 q 343 409 333 407 q 371 413 353 411 q 413 419 389 415 q 464 432 436 422 q 539 470 508 447 q 578 506 569 493 q 560 523 567 513 q 556 540 553 533 q 574 535 560 546 q 617 515 589 525 q 646 515 628 513 q 675 521 664 517 q 669 544 663 538 q 678 543 672 549 q 692 529 683 538 q 711 512 700 521 q 738 497 722 503 q 779 492 769 486 q 783 504 789 497 m 1201 572 q 1163 599 1201 594 q 1054 607 1124 604 q 866 611 958 610 q 703 613 774 613 q 735 594 722 606 q 758 568 747 583 q 778 542 771 553 q 790 521 785 531 l 1054 535 q 1167 545 1133 540 q 1201 572 1201 550 m 193 274 l 193 564 l 129 564 l 129 274 l 193 274 m 858 346 q 849 369 858 360 q 825 382 839 379 q 788 383 813 382 q 738 383 764 383 q 688 383 711 383 q 656 382 665 383 q 624 370 635 378 q 615 342 614 363 q 631 320 617 326 q 660 314 646 314 q 684 314 661 314 q 735 314 707 314 q 789 315 763 314 q 822 318 815 317 q 858 346 858 324 m 822 256 q 819 277 825 267 q 797 289 813 288 q 719 292 765 292 q 636 290 674 292 q 608 285 622 290 q 592 265 593 281 q 635 224 588 225 q 714 222 669 221 q 797 229 758 222 q 815 240 808 232 q 822 256 821 247 m 894 432 q 889 452 896 443 q 868 464 882 461 q 776 468 824 469 q 676 464 729 467 q 655 455 661 463 q 649 439 649 447 q 656 417 649 424 q 675 408 664 411 q 715 406 692 407 q 765 404 739 404 q 818 404 792 404 q 867 406 844 404 q 888 414 881 406 q 894 432 894 422 z "},"¶":{"ha":851,"x_min":42,"x_max":756,"o":"m 396 440 l 340 440 q 224 458 278 440 q 128 509 169 475 q 65 592 88 543 q 42 706 42 642 q 60 812 42 763 q 120 897 79 861 q 225 954 161 933 q 381 975 289 975 l 756 975 l 756 -222 l 628 -222 l 628 858 l 521 858 l 521 -222 l 396 -222 l 396 440 z "},"†":{"ha":785,"x_min":46,"x_max":742,"o":"m 471 1031 l 467 707 l 742 710 l 742 579 l 467 583 l 471 -69 l 315 -69 l 318 583 l 46 579 l 46 710 l 318 707 l 315 1031 l 471 1031 z "},"‡":{"ha":782,"x_min":44,"x_max":740,"o":"m 474 1031 l 469 728 l 740 732 l 740 599 l 469 603 l 469 446 l 740 450 l 740 321 l 469 326 l 474 -69 l 308 -69 l 313 326 l 44 321 l 44 450 l 314 446 l 314 603 l 44 599 l 44 732 l 314 728 l 310 1031 l 474 1031 z "},"↕":{"ha":814,"x_min":161,"x_max":653,"o":"m 449 774 l 449 182 l 629 285 l 653 264 l 407 -31 l 161 264 l 185 285 l 365 182 l 365 774 l 185 669 l 161 690 l 407 985 l 653 690 l 629 669 l 449 774 z "},"↗":{"ha":1118,"x_min":57,"x_max":1061,"o":"m 57 33 l 883 858 l 682 910 l 681 943 l 1061 978 l 1026 597 l 993 599 l 942 800 l 115 -26 l 57 33 z "},"↙":{"ha":1119,"x_min":57,"x_max":1063,"o":"m 1063 922 l 235 97 l 436 44 l 439 11 l 57 -24 l 92 358 l 125 356 l 178 154 l 1004 981 l 1063 922 z "},"↖":{"ha":1118,"x_min":57,"x_max":1061,"o":"m 1003 -26 l 176 800 l 125 599 l 92 597 l 57 978 l 438 943 l 436 910 l 235 858 l 1061 33 l 1003 -26 z "},"↘":{"ha":1119,"x_min":57,"x_max":1063,"o":"m 115 981 l 942 154 l 994 356 l 1028 358 l 1063 -24 l 681 11 l 683 44 l 885 97 l 57 922 l 115 981 z "},"♭":{"ha":718,"x_min":132,"x_max":586,"o":"m 586 368 q 566 226 586 288 q 511 120 546 165 q 431 44 476 75 q 334 -6 385 14 q 231 -34 283 -25 q 132 -46 179 -43 l 132 900 l 221 900 l 221 433 q 243 480 229 456 q 281 524 257 504 q 338 556 304 543 q 421 569 372 569 q 485 555 456 569 q 538 515 515 540 q 573 451 560 489 q 586 368 586 414 m 479 314 q 452 444 481 392 q 376 496 424 496 q 307 479 336 496 q 259 438 278 463 q 231 383 240 413 q 221 329 221 354 l 221 24 q 308 44 263 26 q 392 95 354 61 q 455 183 431 129 q 479 314 479 238 z "},"♩":{"ha":539,"x_min":133,"x_max":404,"o":"m 404 154 q 394 53 404 93 q 353 -24 385 13 q 308 -67 333 -47 q 254 -96 282 -86 q 200 -102 226 -106 q 154 -76 174 -99 q 134 -28 135 -54 q 145 26 133 -1 q 179 76 157 53 q 228 117 201 100 q 349 157 282 147 l 349 931 l 404 931 l 404 154 z "},"♪":{"ha":749,"x_min":75,"x_max":671,"o":"m 671 472 q 658 385 671 429 q 617 293 646 340 q 547 211 589 251 q 464 149 504 171 q 444 147 449 139 q 450 165 439 154 q 494 210 469 183 q 540 272 518 238 q 577 349 563 307 q 592 439 592 390 q 565 519 592 486 q 499 576 538 553 q 418 613 461 599 q 344 638 375 628 l 344 154 q 335 53 344 93 q 294 -24 325 13 q 249 -67 275 -47 q 195 -96 222 -86 q 142 -102 168 -106 q 97 -76 115 -99 q 76 -28 78 -54 q 87 26 75 -1 q 121 76 99 53 q 168 117 143 100 q 290 157 222 147 l 290 867 q 292 905 290 886 q 303 924 293 924 q 321 917 313 924 q 347 890 329 910 q 386 845 365 868 q 446 789 407 822 q 550 692 507 736 q 620 610 593 649 q 659 539 647 572 q 671 472 671 506 z "},"♬":{"ha":963,"x_min":65,"x_max":896,"o":"m 896 261 q 868 170 896 213 q 799 94 840 128 q 758 65 781 78 q 712 48 735 53 q 667 48 689 43 q 629 74 646 53 q 618 113 617 90 q 629 157 619 135 q 655 200 639 179 q 690 235 671 221 q 765 273 731 264 q 839 288 799 282 l 839 549 l 344 440 l 344 125 q 317 32 344 75 q 250 -44 290 -11 q 209 -72 232 -60 q 162 -90 186 -85 q 116 -90 138 -94 q 78 -64 94 -85 q 67 -26 65 -47 q 78 19 68 -4 q 103 63 88 42 q 139 99 119 83 q 215 137 181 128 q 288 151 250 146 l 288 785 l 896 907 l 896 261 m 839 681 l 839 764 l 344 658 l 344 576 l 839 681 z "},"㉿":{"ha":1289,"x_min":36,"x_max":1250,"o":"m 949 108 l 790 108 l 556 379 l 550 372 l 550 108 l 429 108 l 429 756 l 550 756 l 550 510 l 756 750 l 904 750 l 636 449 l 949 108 m 1099 619 q 921 836 1043 754 q 790 901 858 879 q 643 924 721 924 q 311 799 456 926 q 142 490 171 678 l 318 490 l 318 389 l 36 389 l 36 418 q 214 844 36 668 q 410 978 304 935 q 643 1022 517 1021 q 994 911 836 1022 q 1213 619 1144 800 l 1099 619 m 1250 418 q 1072 -11 1250 165 q 643 -187 894 -187 q 264 -54 428 -187 q 128 97 181 14 q 51 283 75 179 l 163 285 q 228 137 185 204 q 338 18 271 69 q 480 -62 404 -36 q 643 -87 556 -87 q 990 50 842 -87 q 1146 389 1136 189 l 868 389 l 868 490 l 1246 490 q 1250 418 1250 454 z "},"㈜":{"ha":1333,"x_min":11,"x_max":1321,"o":"m 672 868 l 361 868 l 361 1043 q 243 740 282 896 q 204 426 204 585 q 246 103 204 263 q 372 -207 288 -57 l 183 -207 q 54 101 97 -58 q 11 425 11 261 q 54 751 11 589 q 183 1064 97 913 l 372 1064 l 367 1056 l 964 1056 l 960 1064 l 1149 1064 q 1278 751 1235 913 q 1321 425 1321 589 q 1278 101 1321 261 q 1149 -207 1235 -58 l 960 -207 q 1086 103 1044 -57 q 1128 426 1128 263 q 1088 744 1128 586 q 967 1051 1047 901 l 967 896 l 774 732 l 985 596 l 985 381 l 638 615 l 361 381 l 361 614 l 672 868 m 1067 290 l 1067 117 l 756 117 l 756 -250 l 561 -250 l 561 117 l 247 117 l 247 290 l 1067 290 z "},"№":{"ha":1333,"x_min":10,"x_max":1322,"o":"m 889 972 q 1017 945 965 972 q 1102 872 1069 918 q 1149 762 1135 825 q 1163 628 1163 699 l 1163 133 q 1149 0 1163 63 q 1102 -109 1135 -62 q 1017 -183 1069 -156 q 889 -210 965 -210 l 851 -210 q 723 -183 775 -210 q 638 -109 671 -156 q 592 0 606 -62 q 578 133 578 63 l 578 628 q 592 762 578 699 q 638 872 606 825 q 723 945 671 918 q 851 972 775 972 l 889 972 m 992 631 q 985 688 992 661 q 965 736 978 715 q 932 769 951 757 q 888 781 913 781 l 853 781 q 808 769 828 781 q 776 736 789 757 q 756 688 763 715 q 749 631 749 661 l 749 132 q 756 74 749 101 q 776 26 763 47 q 808 -6 789 6 q 853 -18 828 -18 l 888 -18 q 932 -6 913 -18 q 965 26 951 6 q 985 74 978 47 q 992 132 992 101 l 992 631 m 1143 -236 l 1143 -62 l 1322 -62 l 1322 -236 l 1143 -236 m 193 361 l 193 -210 l 10 -210 l 10 972 l 193 972 l 344 394 l 344 972 l 524 972 l 524 -210 l 344 -210 l 193 361 z "},"㏇":{"ha":1333,"x_min":4,"x_max":1328,"o":"m 1149 -236 l 1149 -62 l 1328 -62 l 1328 -236 l 1149 -236 m 300 -18 q 331 -8 318 -18 q 354 18 344 1 q 370 56 364 35 q 381 100 376 78 l 558 100 q 536 -22 551 35 q 491 -119 521 -78 q 415 -185 461 -161 q 301 -210 368 -210 l 264 -210 q 144 -183 193 -210 q 63 -109 94 -156 q 18 0 32 -62 q 4 133 4 63 l 4 628 q 18 762 4 699 q 63 872 32 825 q 144 945 94 918 q 264 972 193 972 l 301 972 q 415 948 369 972 q 491 881 461 924 q 536 782 521 839 q 558 658 551 725 l 382 658 q 373 703 378 681 q 358 742 368 725 q 335 770 349 760 q 300 781 321 781 l 279 781 q 235 769 254 781 q 202 736 215 757 q 182 688 189 715 q 175 631 175 661 l 175 132 q 180 74 175 101 q 197 26 185 47 q 228 -6 208 6 q 279 -18 249 -18 l 300 -18 m 888 972 q 1016 945 964 972 q 1101 872 1068 918 q 1147 762 1133 825 q 1161 628 1161 699 l 1161 133 q 1147 0 1161 63 q 1101 -109 1133 -62 q 1016 -183 1068 -156 q 888 -210 964 -210 l 850 -210 q 722 -183 774 -210 q 637 -109 669 -156 q 590 0 604 -62 q 576 133 576 63 l 576 628 q 590 762 576 699 q 637 872 604 825 q 722 945 669 918 q 850 972 774 972 l 888 972 m 990 631 q 983 688 990 661 q 963 736 976 715 q 931 769 950 757 q 886 781 911 781 l 851 781 q 807 769 826 781 q 774 736 788 757 q 754 688 761 715 q 747 631 747 661 l 747 132 q 754 74 747 101 q 774 26 761 47 q 807 -6 788 6 q 851 -18 826 -18 l 886 -18 q 931 -6 911 -18 q 963 26 950 6 q 983 74 976 47 q 990 132 990 101 l 990 631 z "},"™":{"ha":1333,"x_min":82,"x_max":1250,"o":"m 246 782 l 82 782 l 82 972 l 596 972 l 596 782 l 429 782 l 429 485 l 246 485 l 246 782 m 939 674 l 950 674 l 1015 971 l 1250 971 l 1250 485 l 1107 485 l 1107 781 l 1096 781 l 1022 485 l 860 485 l 796 778 l 785 778 l 785 485 l 640 485 l 640 971 l 875 971 l 939 674 z "},"㏂":{"ha":1333,"x_min":0,"x_max":1321,"o":"m 1118 504 q 1090 467 1096 504 q 1085 372 1085 429 l 1085 -210 l 922 -210 l 922 358 q 917 463 922 421 q 888 504 911 504 l 882 504 q 851 463 858 504 q 843 358 843 421 l 843 -210 l 681 -210 l 681 674 l 843 674 l 843 664 q 866 671 854 668 q 890 674 878 674 l 896 674 q 961 658 932 674 q 1014 615 990 643 q 1067 658 1039 643 q 1126 674 1096 674 l 1146 674 q 1228 649 1194 674 q 1282 584 1261 625 q 1312 488 1303 543 q 1321 372 1321 433 l 1321 -210 l 1160 -210 l 1160 358 q 1154 463 1160 421 q 1125 504 1149 504 l 1118 504 m 8 394 q 24 500 13 450 q 60 589 35 550 q 127 651 85 628 q 235 674 169 674 l 242 674 q 352 648 308 674 q 422 579 396 622 q 458 482 447 536 q 468 372 468 428 l 468 -210 l 239 -210 q 136 -188 181 -210 q 61 -131 92 -167 q 15 -46 31 -94 q 0 57 0 3 q 14 158 0 111 q 55 240 28 206 q 124 293 82 274 q 221 313 165 313 l 310 313 l 310 358 q 294 463 310 421 q 239 504 279 504 l 224 504 q 191 495 204 504 q 170 470 178 486 q 158 435 163 454 q 153 394 154 415 l 8 394 m 144 57 q 163 -16 144 13 q 204 -44 182 -44 l 310 -44 l 310 160 l 204 160 q 163 131 182 160 q 144 57 144 101 m 490 -236 l 490 -76 l 656 -76 l 656 -236 l 490 -236 z "},"㏘":{"ha":1333,"x_min":10,"x_max":1324,"o":"m 239 674 q 364 651 314 674 q 443 586 414 628 q 484 485 472 544 q 496 351 496 425 l 496 114 q 487 -19 496 40 q 453 -122 478 -79 q 388 -187 429 -164 q 281 -210 346 -210 l 239 -210 q 210 -208 224 -210 q 182 -203 196 -206 l 182 -511 l 10 -511 l 10 674 l 239 674 m 1121 504 q 1093 467 1099 504 q 1088 372 1088 429 l 1088 -210 l 925 -210 l 925 358 q 919 463 925 421 q 890 504 914 504 l 885 504 q 856 469 864 504 q 846 382 847 435 l 846 -210 l 683 -210 l 683 372 l 683 385 l 683 674 l 846 674 l 846 664 q 869 671 857 668 q 893 674 881 674 l 899 674 q 964 658 935 674 q 1017 615 993 643 q 1070 658 1042 643 q 1129 674 1099 674 l 1149 674 q 1231 649 1197 674 q 1285 584 1264 625 q 1315 488 1306 543 q 1324 372 1324 433 l 1324 -210 l 1163 -210 l 1163 358 q 1157 463 1163 421 q 1128 504 1151 504 l 1121 504 m 182 503 l 182 92 q 192 -1 182 35 q 238 -37 203 -37 l 281 -37 q 326 -1 314 -37 q 339 92 339 35 l 339 374 q 337 425 339 401 q 328 466 335 449 q 306 493 321 483 q 267 503 292 503 l 182 503 m 493 -236 l 493 -76 l 658 -76 l 658 -236 l 493 -236 z "},"℡":{"ha":1333,"x_min":35,"x_max":1297,"o":"m 476 360 q 499 481 476 424 q 557 581 521 538 q 639 649 593 624 q 733 674 685 674 l 819 674 q 930 645 882 674 q 1010 572 978 617 q 1060 473 1043 528 q 1076 367 1076 418 l 1076 150 l 653 150 l 653 68 q 664 21 653 42 q 694 -15 675 0 q 735 -37 713 -29 q 781 -46 757 -46 l 1046 -46 l 1046 -212 l 763 -212 q 550 -132 624 -212 q 476 90 476 -51 l 476 360 m 233 782 l 35 782 l 35 972 l 632 972 l 632 782 l 431 782 l 431 -210 l 233 -210 l 233 782 m 1121 972 l 1297 972 l 1297 -210 l 1121 -210 l 1121 972 m 656 300 l 903 300 l 903 344 q 894 406 903 378 q 869 456 885 435 q 833 488 854 476 q 789 500 813 500 l 764 500 q 722 488 742 500 q 687 453 701 475 q 664 403 672 432 q 656 344 656 375 l 656 300 z "},"！":{"ha":1333,"x_min":564,"x_max":768,"o":"m 768 89 l 564 89 l 564 1049 l 768 1049 l 768 89 m 768 -210 l 564 -210 l 564 -7 l 768 -7 l 768 -210 z "},"＂":{"ha":1333,"x_min":442,"x_max":890,"o":"m 488 800 l 442 1097 l 626 1097 l 654 800 l 488 800 m 724 800 l 678 1097 l 863 1097 l 890 800 l 724 800 z "},"＃":{"ha":1333,"x_min":47,"x_max":1285,"o":"m 328 238 l 408 476 l 197 476 l 272 672 l 474 672 l 567 949 l 765 949 l 672 672 l 874 672 l 967 949 l 1164 949 l 1071 672 l 1285 672 l 1210 476 l 1006 476 l 925 238 l 1135 238 l 1060 42 l 860 42 l 763 -250 l 564 -250 l 661 42 l 461 42 l 364 -250 l 164 -250 l 261 42 l 47 42 l 122 238 l 328 238 m 526 238 l 728 238 l 808 476 l 607 476 l 526 238 z "},"＄":{"ha":1333,"x_min":224,"x_max":1108,"o":"m 789 488 q 914 462 856 488 q 1015 392 972 436 q 1083 290 1058 349 q 1108 164 1108 231 q 1083 39 1108 97 q 1015 -63 1058 -19 q 913 -133 971 -107 q 789 -158 856 -158 l 783 -158 l 753 -158 l 753 -250 l 579 -250 l 579 -160 l 279 -160 l 279 25 l 579 25 l 579 304 l 544 304 q 419 330 478 304 q 317 399 361 356 q 249 502 274 443 q 224 628 224 561 q 249 753 224 694 q 317 855 274 811 q 419 924 361 899 q 544 950 478 950 l 579 950 l 579 1042 l 753 1042 l 753 950 l 967 950 l 967 767 l 753 767 l 753 488 l 789 488 m 753 304 l 753 25 l 792 25 q 886 67 847 28 q 925 164 925 107 q 914 219 925 193 q 884 263 903 244 q 840 293 865 282 q 786 304 815 304 l 753 304 m 407 628 q 446 531 407 571 q 542 488 485 490 l 579 488 l 579 767 l 546 767 q 447 726 488 767 q 407 628 407 686 z "},"％":{"ha":1333,"x_min":90,"x_max":1242,"o":"m 981 1011 l 558 -250 l 358 -250 l 783 1011 l 981 1011 m 364 958 q 425 944 396 958 q 476 907 454 931 q 512 852 499 883 q 525 786 525 821 l 525 628 q 513 559 525 592 q 478 503 500 526 q 426 465 456 479 q 364 451 397 451 l 251 451 q 189 465 218 451 q 138 503 160 479 q 103 559 115 526 q 90 628 90 592 l 90 779 q 103 844 90 813 q 138 902 115 876 q 189 943 160 928 q 251 958 218 958 l 364 958 m 381 744 q 366 784 381 768 q 332 800 351 800 l 283 800 q 249 784 264 800 q 235 744 235 768 l 235 664 q 249 626 235 642 q 283 610 264 610 l 332 610 q 366 626 351 610 q 381 664 381 642 l 381 744 m 1081 310 q 1142 296 1113 310 q 1193 258 1171 282 q 1228 203 1215 235 q 1242 138 1242 172 l 1242 -21 q 1229 -90 1242 -57 q 1194 -146 1217 -122 q 1143 -183 1172 -169 q 1081 -197 1114 -197 l 968 -197 q 906 -183 935 -197 q 854 -146 876 -169 q 819 -90 832 -122 q 807 -21 807 -57 l 807 131 q 819 196 807 164 q 854 253 832 228 q 906 294 876 279 q 968 310 935 310 l 1081 310 m 1097 96 q 1083 135 1097 119 q 1049 151 1068 151 l 1000 151 q 966 135 981 151 q 951 96 951 119 l 951 15 q 966 -23 951 -7 q 1000 -39 981 -39 l 1049 -39 q 1083 -23 1068 -39 q 1097 15 1097 -7 l 1097 96 z "},"＆":{"ha":1333,"x_min":210,"x_max":1124,"o":"m 1124 -224 l 907 -224 l 831 -124 q 796 -167 814 -147 q 756 -203 778 -187 q 707 -227 735 -218 q 642 -236 679 -236 l 401 -236 q 323 -219 358 -236 q 263 -173 288 -203 q 224 -101 238 -143 q 210 -10 210 -60 l 210 231 q 229 301 210 269 q 276 358 249 333 q 331 402 303 383 q 379 436 360 421 q 342 482 363 457 q 304 538 322 507 q 274 603 286 568 q 260 681 261 639 l 260 767 q 276 902 260 847 q 324 991 293 957 q 402 1040 356 1025 q 510 1056 449 1056 l 642 1056 q 826 985 768 1056 q 883 767 883 914 l 883 667 q 817 511 876 576 q 653 385 757 446 l 821 164 l 928 332 l 1058 254 l 919 26 l 1124 -224 m 533 878 q 450 769 450 878 l 450 681 q 462 638 450 663 q 490 589 474 613 q 522 546 506 565 q 546 521 538 526 q 599 556 572 538 q 646 592 625 574 q 679 630 667 611 q 693 667 692 649 l 693 769 q 674 852 693 826 q 610 878 654 878 l 533 878 m 394 33 q 417 -38 394 -17 q 478 -60 439 -60 l 603 -60 q 642 -53 625 -60 q 674 -35 660 -46 q 699 -10 688 -24 q 718 15 710 3 l 503 306 q 474 284 492 297 q 438 256 456 271 q 407 227 419 242 q 394 200 394 213 l 394 33 z "},"＇":{"ha":1333,"x_min":560,"x_max":772,"o":"m 560 800 l 588 1097 l 772 1097 l 726 800 l 560 800 z "},"（":{"ha":1333,"x_min":903,"x_max":1264,"o":"m 1264 1064 q 1138 751 1179 913 q 1096 426 1096 590 q 1138 103 1096 263 q 1264 -207 1179 -57 l 1075 -207 q 946 101 989 -58 q 903 425 903 261 q 946 751 903 589 q 1075 1064 989 913 l 1264 1064 z "},"）":{"ha":1333,"x_min":69,"x_max":431,"o":"m 258 1064 q 388 751 344 913 q 431 425 431 589 q 388 101 431 261 q 258 -207 344 -58 l 69 -207 q 196 103 154 -57 q 238 426 238 263 q 196 751 238 590 q 69 1064 154 913 l 258 1064 z "},"＊":{"ha":1333,"x_min":256,"x_max":1076,"o":"m 535 297 l 256 297 l 256 456 l 535 456 l 403 701 l 542 775 l 667 543 l 792 775 l 931 701 l 799 456 l 1076 456 l 1076 297 l 799 297 l 931 53 l 790 -22 l 665 210 l 542 -22 l 403 53 l 535 297 z "},"＋":{"ha":1333,"x_min":325,"x_max":1007,"o":"m 751 504 l 1007 504 l 1007 332 l 751 332 l 751 78 l 579 78 l 579 332 l 325 332 l 325 504 l 579 504 l 579 760 l 751 760 l 751 504 z "},"，":{"ha":1333,"x_min":550,"x_max":783,"o":"m 550 -278 l 578 -50 l 783 -50 l 738 -278 l 550 -278 z "},"－":{"ha":1333,"x_min":342,"x_max":992,"o":"m 992 515 l 992 326 l 342 326 l 342 515 l 992 515 z "},"．":{"ha":1333,"x_min":564,"x_max":769,"o":"m 564 -250 l 564 -50 l 769 -50 l 769 -250 l 564 -250 z "},"／":{"ha":1333,"x_min":356,"x_max":978,"o":"m 978 1011 l 556 -250 l 356 -250 l 781 1011 l 978 1011 z "},"０":{"ha":1333,"x_min":256,"x_max":1078,"o":"m 754 979 q 880 953 821 979 q 983 884 939 928 q 1052 781 1026 840 q 1078 656 1078 722 l 1078 114 q 1052 -12 1078 47 q 983 -115 1026 -71 q 880 -184 939 -158 q 754 -210 821 -210 l 578 -210 q 452 -184 511 -210 q 349 -115 393 -158 q 281 -12 306 -71 q 256 114 256 47 l 256 656 q 281 781 256 722 q 349 884 306 840 q 452 953 393 928 q 578 979 511 979 l 754 979 m 876 619 q 865 677 876 650 q 833 724 853 704 q 788 756 814 744 q 731 768 761 768 l 601 768 q 544 756 571 768 q 498 724 518 744 q 467 677 478 704 q 456 619 456 650 l 456 150 q 467 92 456 119 q 498 45 478 65 q 544 13 518 25 q 601 1 571 1 l 731 1 q 788 13 761 1 q 833 45 814 25 q 865 92 853 65 q 876 150 876 119 l 876 619 z "},"１":{"ha":1333,"x_min":482,"x_max":851,"o":"m 482 757 l 618 972 l 851 972 l 851 -210 l 650 -210 l 650 757 l 482 757 z "},"２":{"ha":1333,"x_min":281,"x_max":1051,"o":"m 292 53 q 527 244 414 144 q 744 439 640 343 q 792 487 772 465 q 825 531 813 508 q 844 581 838 554 q 850 647 850 608 q 839 703 850 676 q 808 749 828 729 q 764 779 789 768 q 710 790 739 790 l 613 790 q 558 779 583 790 q 513 749 532 768 q 482 703 493 729 q 471 647 471 676 l 471 606 l 281 606 l 281 683 q 305 803 281 747 q 372 901 329 860 q 470 967 414 943 q 590 992 526 992 l 742 992 q 862 967 806 992 q 960 901 918 943 q 1027 803 1003 860 q 1051 683 1051 747 l 1051 657 q 1047 561 1051 604 q 1028 479 1042 518 q 988 404 1014 440 q 919 328 961 368 q 711 140 819 233 q 492 -33 603 47 l 1031 -33 l 1031 -210 l 292 -210 l 292 53 z "},"３":{"ha":1333,"x_min":257,"x_max":1107,"o":"m 1049 769 q 1063 590 1079 678 q 972 435 1047 501 l 961 422 l 972 411 q 1042 306 1019 364 q 1042 -10 1107 147 q 978 -110 1019 -65 q 883 -179 938 -154 q 803 -206 843 -197 q 724 -216 764 -214 q 644 -217 685 -218 q 561 -217 604 -217 q 443 -192 499 -217 q 346 -126 388 -168 q 281 -27 304 -83 q 257 93 257 29 l 257 128 l 444 128 q 454 74 444 97 q 488 26 465 44 q 540 -1 511 8 q 601 -14 569 -11 q 658 -15 632 -17 q 732 -6 694 -12 q 800 25 769 1 q 850 108 839 54 q 847 214 861 161 q 719 324 824 304 q 608 333 676 333 l 547 333 l 547 513 l 608 513 q 719 522 676 513 q 800 554 771 531 q 833 597 821 571 q 847 650 846 622 q 836 705 847 678 q 800 754 825 732 q 747 781 781 771 q 674 794 714 792 q 594 790 635 796 q 519 766 553 783 q 465 719 486 749 q 444 649 444 690 l 257 649 l 257 685 q 288 817 257 760 q 370 913 319 875 q 485 972 421 951 q 617 992 550 992 q 669 992 650 992 q 699 991 689 992 q 714 990 710 990 q 718 990 718 990 q 762 987 740 989 q 804 981 783 985 q 881 954 842 972 q 950 910 919 936 q 1009 846 983 882 q 1049 769 1035 810 z "},"４":{"ha":1333,"x_min":208,"x_max":1125,"o":"m 944 207 l 1125 207 l 1125 26 l 944 26 l 944 -210 l 742 -210 l 742 24 l 208 24 l 208 207 l 592 972 l 944 972 l 944 207 m 742 207 l 742 811 l 431 207 l 742 207 z "},"５":{"ha":1333,"x_min":257,"x_max":1075,"o":"m 672 575 q 840 548 765 575 q 967 469 915 521 q 1047 342 1019 418 q 1075 171 1075 267 q 972 -126 1075 -19 q 663 -233 869 -233 q 496 -210 571 -233 q 368 -140 421 -187 q 286 -21 315 -93 q 257 149 257 51 l 456 149 q 502 14 456 65 q 654 -37 549 -37 q 810 16 753 -37 q 868 169 868 69 q 851 265 868 226 q 805 328 835 304 q 735 362 775 351 q 649 372 694 372 q 488 318 538 372 l 285 318 l 285 965 l 1018 965 l 1018 758 l 504 758 l 504 542 q 578 567 531 560 q 672 575 625 575 z "},"６":{"ha":1333,"x_min":256,"x_max":1076,"o":"m 599 -217 q 465 -190 528 -217 q 356 -116 403 -162 q 283 -7 310 -69 q 256 126 256 56 l 256 183 l 256 197 l 256 640 q 283 774 256 711 q 356 884 310 838 q 465 958 403 931 q 599 985 528 985 l 747 985 q 872 960 815 985 q 972 894 929 936 q 1040 794 1014 851 q 1074 671 1067 738 l 856 671 q 822 748 846 717 q 746 779 797 779 l 600 779 q 503 735 539 779 q 468 629 468 692 l 468 501 q 599 528 532 528 l 733 528 q 867 501 804 528 q 976 427 929 474 q 1049 317 1022 381 q 1076 183 1076 254 l 1076 126 q 1049 -7 1076 56 q 976 -116 1022 -69 q 867 -190 929 -162 q 733 -217 804 -217 l 599 -217 m 468 132 q 506 31 471 72 q 600 -11 542 -11 l 732 -11 q 828 33 793 -11 q 864 139 864 76 l 864 172 q 828 278 864 235 q 732 322 793 322 l 600 322 q 503 279 539 322 q 468 174 468 236 l 468 132 z "},"７":{"ha":1333,"x_min":269,"x_max":1063,"o":"m 269 958 l 1063 958 l 854 -210 l 632 -210 l 799 744 l 489 744 l 489 568 l 269 568 l 269 958 z "},"８":{"ha":1333,"x_min":256,"x_max":1078,"o":"m 729 986 q 858 961 800 986 q 958 892 917 936 q 1022 788 1000 849 q 1044 656 1044 726 l 1044 604 q 1024 490 1044 542 q 968 396 1004 438 q 1048 299 1018 357 q 1078 169 1078 242 l 1078 93 q 1052 -31 1078 26 q 983 -129 1026 -87 q 880 -194 939 -171 q 754 -217 821 -217 l 578 -217 q 452 -194 511 -217 q 349 -129 393 -171 q 281 -31 306 -87 q 256 93 256 26 l 256 169 q 285 301 256 243 q 367 399 315 360 q 313 491 332 439 q 293 604 293 543 l 293 656 q 316 788 293 726 q 380 892 339 849 q 479 961 421 936 q 608 986 538 986 l 729 986 m 876 139 q 834 241 876 201 q 731 281 792 281 l 715 281 l 701 281 l 636 281 l 622 281 l 601 281 q 498 241 540 281 q 456 139 456 201 l 456 118 q 498 19 456 56 q 601 -17 540 -17 l 731 -17 q 834 19 792 -17 q 876 118 876 56 l 876 139 m 838 642 q 831 699 838 672 q 809 747 824 726 q 772 780 794 768 q 719 792 750 792 l 618 792 q 528 747 557 792 q 500 642 500 703 l 500 615 q 528 510 500 554 q 618 465 557 465 l 719 465 q 772 477 750 465 q 809 510 794 489 q 831 558 824 531 q 838 615 838 585 l 838 642 z "},"９":{"ha":1333,"x_min":276,"x_max":1056,"o":"m 768 986 q 893 961 839 986 q 983 892 947 936 q 1038 788 1019 849 q 1056 656 1056 726 l 1056 501 q 1028 346 1056 417 l 922 -210 l 726 -210 l 800 174 q 784 172 792 172 q 768 172 776 172 l 564 172 q 440 197 493 172 q 349 266 386 222 q 294 370 313 310 q 276 501 276 431 l 276 656 q 294 788 276 726 q 349 892 313 849 q 440 961 386 936 q 564 986 493 986 l 768 986 m 843 644 q 822 744 843 707 q 739 781 800 781 l 593 781 q 510 744 532 781 q 489 644 489 707 l 489 514 q 510 415 489 451 q 593 378 532 378 l 739 378 q 822 415 800 378 q 843 514 843 451 l 843 644 z "},"：":{"ha":1333,"x_min":568,"x_max":765,"o":"m 568 106 l 765 106 l 765 -83 l 568 -83 l 568 106 m 568 674 l 765 674 l 765 485 l 568 485 l 568 674 z "},"；":{"ha":1333,"x_min":556,"x_max":776,"o":"m 576 675 l 774 675 l 774 486 l 576 486 l 576 675 m 575 94 l 776 94 l 710 -212 l 556 -212 l 575 94 z "},"＜":{"ha":1333,"x_min":763,"x_max":1265,"o":"m 1042 1058 l 1265 1058 l 985 433 l 1265 -207 l 1042 -207 l 763 433 l 1042 1058 z "},"＝":{"ha":1333,"x_min":332,"x_max":1000,"o":"m 1000 657 l 1000 485 l 332 485 l 332 657 l 1000 657 m 1000 351 l 1000 179 l 332 179 l 332 351 l 1000 351 z "},"＞":{"ha":1333,"x_min":68,"x_max":571,"o":"m 571 433 l 292 -207 l 68 -207 l 349 433 l 68 1058 l 292 1058 l 571 433 z "},"？":{"ha":1333,"x_min":310,"x_max":1024,"o":"m 310 714 q 319 828 310 769 q 353 936 328 888 q 422 1017 378 985 q 536 1049 465 1049 l 779 1049 q 881 1026 838 1049 q 954 966 925 1003 q 999 883 983 929 q 1019 789 1015 836 q 1016 698 1024 742 q 992 622 1008 654 l 797 265 l 797 110 l 597 110 l 597 286 l 782 608 q 803 676 797 635 q 803 757 810 718 q 777 824 797 796 q 721 851 757 851 l 608 851 q 559 842 578 851 q 529 814 540 832 q 514 770 518 796 q 510 714 510 744 l 310 714 m 801 -210 l 597 -210 l 597 -7 l 801 -7 l 801 -210 z "},"＠":{"ha":1333,"x_min":117,"x_max":1215,"o":"m 1114 1 q 1038 -14 1075 -22 q 953 29 1001 -6 q 909 60 931 44 q 868 93 888 75 q 736 39 806 39 l 597 39 q 519 56 556 39 q 456 103 483 74 q 414 174 429 133 q 399 260 399 214 l 399 404 q 410 471 399 435 q 447 538 422 507 q 506 589 471 568 q 589 610 542 610 l 692 610 q 758 601 729 610 q 797 579 786 592 l 797 628 l 936 628 l 936 268 q 960 227 936 250 q 1011 186 985 204 q 1028 178 1018 181 q 1043 192 1038 176 l 1043 478 q 1020 588 1043 536 q 958 680 997 640 q 866 743 918 719 q 757 767 814 767 l 585 767 q 478 742 529 767 q 389 678 428 718 q 326 585 350 638 q 303 478 303 533 l 303 196 q 324 84 303 135 q 383 -3 346 33 q 469 -59 419 -39 q 572 -79 518 -79 l 756 -79 l 1106 -78 l 1106 -239 l 547 -239 q 374 -204 453 -239 q 238 -109 294 -169 q 149 33 181 -49 q 117 206 117 114 l 117 501 q 157 674 117 593 q 265 816 197 756 q 420 911 332 876 q 603 946 508 946 l 742 946 q 923 911 838 946 q 1074 816 1008 876 q 1177 674 1139 756 q 1215 501 1215 593 l 1215 275 q 1213 174 1215 215 q 1202 103 1211 133 q 1172 50 1193 74 q 1114 1 1151 26 m 779 371 q 756 442 779 414 q 685 471 733 471 l 638 471 q 572 442 597 471 q 547 371 547 414 l 547 288 q 551 257 547 274 q 566 226 556 240 q 592 203 576 213 q 633 194 608 194 l 703 194 q 740 204 725 194 q 764 228 756 214 q 776 258 772 242 q 779 288 779 275 l 779 371 z "},"Ａ":{"ha":1333,"x_min":256,"x_max":1076,"o":"m 826 -29 l 508 -29 l 465 -210 l 256 -210 l 558 972 l 785 972 l 1076 -210 l 868 -210 l 826 -29 m 550 146 l 786 146 l 676 629 l 665 629 l 550 146 z "},"Ｂ":{"ha":1333,"x_min":257,"x_max":1076,"o":"m 1061 588 q 1039 476 1061 531 q 978 382 1017 422 l 979 382 q 1053 290 1031 344 q 1076 176 1076 235 l 1076 103 q 1056 -29 1076 29 q 997 -128 1035 -87 q 908 -189 960 -168 q 794 -210 857 -210 l 257 -210 l 257 972 l 779 972 q 894 951 842 972 q 983 892 946 931 q 1041 801 1021 854 q 1061 683 1061 747 l 1061 588 m 461 481 l 742 481 q 786 491 765 481 q 823 519 807 501 q 848 560 839 536 q 857 610 857 583 l 857 628 q 848 677 857 654 q 823 718 839 700 q 786 747 807 736 q 742 757 765 757 l 461 757 l 461 481 m 872 151 q 863 201 872 178 q 838 242 854 225 q 801 270 822 260 q 756 281 779 281 l 461 281 l 461 8 l 756 8 q 801 19 779 8 q 838 47 822 29 q 863 88 854 64 q 872 139 872 111 l 872 151 z "},"Ｃ":{"ha":1333,"x_min":257,"x_max":1075,"o":"m 747 -4 q 821 26 797 -4 q 856 100 844 56 l 1075 100 q 1042 -22 1068 35 q 973 -119 1015 -78 q 873 -185 931 -161 q 749 -210 815 -210 l 600 -210 q 467 -183 529 -210 q 358 -109 404 -156 q 284 0 311 -62 q 257 133 257 63 l 257 628 q 284 762 257 699 q 358 872 311 825 q 467 945 404 918 q 600 972 529 972 l 749 972 q 874 948 817 972 q 973 881 931 924 q 1042 782 1015 839 q 1075 658 1068 725 l 857 658 q 823 735 847 704 q 747 767 799 767 l 601 767 q 505 723 540 767 q 469 617 469 679 l 469 146 q 505 40 469 83 q 601 -4 540 -4 l 747 -4 l 747 -4 z "},"Ｄ":{"ha":1333,"x_min":257,"x_max":1076,"o":"m 257 972 l 796 972 q 906 948 854 972 q 994 881 957 924 q 1054 781 1032 838 q 1076 660 1076 724 l 1076 103 q 1054 -19 1076 38 q 994 -118 1032 -75 q 906 -185 957 -161 q 796 -210 854 -210 l 257 -210 l 257 972 m 743 8 q 790 19 768 8 q 827 47 811 29 q 852 88 843 64 q 861 139 861 111 l 861 625 q 852 675 861 651 q 827 717 843 699 q 790 745 811 735 q 743 756 768 756 l 474 756 l 474 8 l 743 8 z "},"Ｅ":{"ha":1333,"x_min":260,"x_max":1072,"o":"m 483 -10 l 1072 -10 l 1072 -210 l 260 -210 l 260 972 l 1072 972 l 1072 772 l 483 772 l 483 481 l 1072 481 l 1072 283 l 483 283 l 483 -10 z "},"Ｆ":{"ha":1333,"x_min":260,"x_max":1074,"o":"m 460 -210 l 260 -210 l 260 972 l 1072 972 l 1072 772 l 454 772 l 454 481 l 1074 481 l 1074 283 l 460 283 l 460 -210 z "},"Ｇ":{"ha":1333,"x_min":257,"x_max":1076,"o":"m 754 -4 q 835 26 804 -4 q 878 100 867 56 l 878 296 l 681 296 l 681 481 l 1076 481 l 1076 -210 l 878 -210 l 878 -172 q 801 -200 842 -190 q 719 -210 761 -210 l 600 -210 q 467 -183 529 -210 q 358 -109 404 -156 q 284 0 311 -62 q 257 133 257 63 l 257 628 q 284 762 257 699 q 358 872 311 825 q 467 945 404 918 q 600 972 529 972 l 749 972 q 874 948 817 972 q 973 881 931 924 q 1042 782 1015 839 q 1075 658 1068 725 l 861 658 q 824 735 850 704 q 747 767 799 767 l 601 767 q 546 755 571 767 q 503 722 521 743 q 476 674 486 701 q 467 617 467 647 l 467 146 q 476 88 467 115 q 503 40 486 61 q 546 8 521 19 q 601 -4 571 -4 l 754 -4 l 754 -4 z "},"Ｈ":{"ha":1333,"x_min":257,"x_max":1076,"o":"m 1076 -210 l 857 -210 l 857 283 l 478 283 l 478 -210 l 257 -210 l 257 972 l 478 972 l 478 481 l 857 481 l 857 972 l 1076 972 l 1076 -210 z "},"Ｉ":{"ha":1333,"x_min":557,"x_max":776,"o":"m 557 972 l 776 972 l 776 -210 l 557 -210 l 557 972 z "},"Ｊ":{"ha":1333,"x_min":290,"x_max":1043,"o":"m 1043 133 q 1016 0 1043 63 q 942 -109 989 -62 q 833 -183 894 -156 q 700 -210 771 -210 l 615 -210 q 492 -185 549 -210 q 392 -119 435 -161 q 322 -22 349 -78 q 290 100 296 35 l 504 100 q 542 26 515 56 q 617 -4 568 -4 l 690 -4 q 746 8 721 -4 q 789 40 771 19 q 817 88 807 61 q 828 146 828 115 l 828 972 l 1043 972 l 1043 133 z "},"Ｋ":{"ha":1333,"x_min":257,"x_max":1076,"o":"m 631 389 l 853 89 q 965 -62 910 13 q 1076 -210 1021 -136 l 846 -210 l 490 257 l 481 257 l 481 -210 l 257 -210 l 257 972 l 481 972 l 481 506 l 490 506 l 846 972 l 1075 972 l 631 389 z "},"Ｌ":{"ha":1333,"x_min":242,"x_max":1090,"o":"m 450 -10 l 1090 -10 l 1090 -210 l 242 -210 l 242 972 l 450 972 l 450 -10 z "},"Ｍ":{"ha":1333,"x_min":222,"x_max":1110,"o":"m 660 118 l 671 118 q 766 544 718 332 q 861 971 814 757 l 1110 971 l 1110 -210 l 939 -210 l 939 558 l 928 558 q 842 174 888 365 q 757 -210 797 -18 l 567 -211 l 406 556 l 394 556 l 394 -210 l 222 -210 l 222 971 l 471 971 l 660 118 z "},"Ｎ":{"ha":1333,"x_min":257,"x_max":1076,"o":"m 468 564 l 468 -210 l 257 -210 l 257 972 l 468 972 l 869 192 l 869 972 l 1076 972 l 1076 -210 l 869 -210 l 468 564 z "},"Ｏ":{"ha":1333,"x_min":256,"x_max":1076,"o":"m 733 972 q 867 945 804 972 q 976 872 929 918 q 1049 762 1022 825 q 1076 628 1076 699 l 1076 133 q 1049 0 1076 63 q 976 -109 1022 -62 q 867 -183 929 -156 q 733 -210 804 -210 l 599 -210 q 465 -183 528 -210 q 356 -109 403 -156 q 283 0 310 -62 q 256 133 256 63 l 256 628 q 283 762 256 699 q 356 872 310 825 q 465 945 403 918 q 599 972 528 972 l 733 972 m 864 617 q 828 723 864 679 q 732 767 793 767 l 600 767 q 503 723 539 767 q 468 617 468 679 l 468 146 q 503 40 468 83 q 600 -4 539 -4 l 732 -4 q 828 40 793 -4 q 864 146 864 83 l 864 617 z "},"Ｐ":{"ha":1333,"x_min":253,"x_max":1081,"o":"m 760 972 q 885 947 826 972 q 988 878 944 922 q 1056 776 1031 835 q 1081 651 1081 718 l 1081 600 q 1056 475 1081 533 q 988 373 1031 417 q 885 304 944 329 q 760 279 826 279 l 461 279 l 461 -210 l 253 -210 l 253 972 l 760 972 m 461 765 l 461 486 l 725 486 q 834 523 800 486 q 868 625 868 560 q 833 726 868 688 q 725 765 799 765 l 461 765 z "},"Ｑ":{"ha":1333,"x_min":199,"x_max":1133,"o":"m 678 972 q 811 945 749 972 q 920 872 874 918 q 993 762 967 825 q 1019 628 1019 699 l 1019 133 q 1010 53 1019 92 q 983 -21 1000 14 l 1133 -210 l 931 -210 l 878 -144 q 785 -192 836 -175 q 678 -210 735 -210 l 542 -210 q 408 -183 471 -210 q 299 -109 346 -156 q 226 0 253 -62 q 199 133 199 63 l 199 628 q 226 762 199 699 q 299 872 253 825 q 408 945 346 918 q 542 972 471 972 l 678 972 m 807 201 l 807 617 q 798 674 807 647 q 772 722 789 701 q 730 755 754 743 q 676 767 706 767 l 543 767 q 447 723 482 767 q 411 617 411 679 l 411 146 q 447 40 411 83 q 543 -4 482 -4 l 676 -4 q 747 18 717 -4 l 513 311 l 721 311 l 807 201 z "},"Ｒ":{"ha":1333,"x_min":242,"x_max":1090,"o":"m 461 268 l 461 -210 l 242 -210 l 242 972 l 749 972 q 874 947 815 972 q 976 878 933 922 q 1044 776 1019 835 q 1069 651 1069 718 l 1069 600 q 1044 475 1069 533 q 976 373 1019 417 q 874 304 933 329 q 749 279 815 279 l 689 279 l 1090 -210 l 839 -210 l 461 268 m 461 765 l 461 486 l 714 486 q 823 523 789 486 q 857 625 857 560 q 822 726 857 688 q 714 765 788 765 l 461 765 z "},"Ｓ":{"ha":1333,"x_min":215,"x_max":1117,"o":"m 774 524 q 910 496 847 524 q 1019 418 974 468 q 1091 299 1065 368 q 1117 150 1117 231 q 1093 8 1117 74 q 1026 -106 1069 -58 q 924 -182 983 -154 q 792 -210 864 -210 l 253 -210 l 253 10 l 729 10 q 796 18 764 10 q 851 44 828 26 q 888 88 874 61 q 901 150 901 114 q 857 256 901 218 q 746 293 813 293 l 606 293 q 444 313 517 293 q 322 374 372 332 q 243 481 271 415 q 215 639 215 547 q 238 765 215 704 q 300 871 260 825 q 397 944 340 917 q 524 972 454 972 l 1013 972 l 1013 742 l 614 742 q 551 738 581 742 q 499 722 521 733 q 464 688 476 710 q 451 628 451 665 q 481 553 451 583 q 561 524 510 524 l 774 524 z "},"Ｔ":{"ha":1333,"x_min":257,"x_max":1076,"o":"m 560 754 l 257 754 l 257 972 l 1076 972 l 1076 754 l 771 754 l 771 -210 l 560 -210 l 560 754 z "},"Ｕ":{"ha":1333,"x_min":256,"x_max":1076,"o":"m 1076 133 q 1050 0 1076 63 q 977 -109 1024 -62 q 868 -183 931 -156 q 735 -210 806 -210 l 600 -210 q 467 -183 529 -210 q 357 -109 404 -156 q 283 0 310 -62 q 256 133 256 63 l 256 972 l 469 972 l 469 146 q 481 88 469 115 q 512 40 492 61 q 558 8 532 19 q 615 -4 585 -4 l 718 -4 q 775 8 749 -4 q 821 40 801 19 q 852 88 840 61 q 864 146 864 115 l 864 972 l 1076 972 l 1076 133 z "},"Ｖ":{"ha":1333,"x_min":257,"x_max":1075,"o":"m 665 197 l 676 197 q 769 583 721 392 q 864 972 817 774 l 1075 972 l 785 -210 l 558 -210 l 257 972 l 469 972 l 665 197 z "},"Ｗ":{"ha":1333,"x_min":-47,"x_max":1381,"o":"m 969 197 l 981 197 q 1074 583 1026 393 q 1169 972 1121 774 l 1381 972 l 1089 -210 l 863 -210 l 668 551 l 481 -210 l 254 -210 l -47 972 l 165 972 l 361 197 l 372 197 l 418 386 q 490 678 454 533 q 561 972 525 824 l 774 972 l 969 197 z "},"Ｘ":{"ha":1333,"x_min":256,"x_max":1076,"o":"m 796 389 l 1076 -210 l 853 -210 l 674 226 l 663 226 l 479 -210 l 256 -210 l 528 389 q 391 681 461 533 q 256 972 321 829 l 479 972 l 663 596 l 674 596 q 717 688 694 642 q 763 783 739 735 l 853 972 l 1076 972 l 796 389 z "},"Ｙ":{"ha":1333,"x_min":256,"x_max":1076,"o":"m 556 328 l 256 972 l 481 972 l 663 596 l 674 596 q 717 688 694 642 q 763 783 739 735 l 853 972 l 1076 972 l 767 326 l 767 -210 l 556 -210 l 556 328 z "},"Ｚ":{"ha":1333,"x_min":257,"x_max":1075,"o":"m 846 772 l 257 772 l 257 972 l 1075 972 l 1075 774 l 486 -10 l 1075 -10 l 1075 -210 l 257 -210 l 257 -10 l 846 772 z "},"［":{"ha":1333,"x_min":872,"x_max":1293,"o":"m 872 1064 l 1293 1064 l 1293 865 l 1076 865 l 1076 -10 l 1293 -10 l 1293 -208 l 872 -208 l 872 1064 z "},"￦":{"ha":1333,"x_min":78,"x_max":1256,"o":"m 167 682 l 115 972 l 307 972 l 351 682 l 531 682 l 578 972 l 749 972 l 799 682 l 976 682 l 1019 972 l 1210 972 l 1160 682 l 1256 682 l 1256 493 l 1128 493 l 1008 -210 l 782 -210 l 664 469 l 553 -210 l 326 -210 l 201 493 l 78 493 l 78 682 l 167 682 m 900 156 l 949 493 l 831 493 l 889 156 l 900 156 m 444 156 l 499 493 l 381 493 l 433 156 l 444 156 z "},"］":{"ha":1333,"x_min":39,"x_max":460,"o":"m 460 -208 l 39 -208 l 39 -10 l 256 -10 l 256 865 l 39 865 l 39 1064 l 460 1064 l 460 -208 z "},"＾":{"ha":1333,"x_min":357,"x_max":976,"o":"m 550 621 l 357 621 l 556 1001 l 771 1001 l 976 621 l 782 621 l 668 856 l 550 621 z "},"＿":{"ha":1333,"x_min":360,"x_max":972,"o":"m 972 -65 l 972 -237 l 360 -237 l 360 -65 l 972 -65 z "},"｀":{"ha":1333,"x_min":560,"x_max":772,"o":"m 606 800 l 560 1097 l 744 1097 l 772 800 l 606 800 z "},"ａ":{"ha":1333,"x_min":300,"x_max":1032,"o":"m 308 394 q 333 500 313 450 q 391 589 353 550 q 486 651 429 628 q 618 674 543 674 l 722 674 q 858 648 800 674 q 955 579 917 622 q 1013 482 993 536 q 1032 372 1032 428 l 1032 -210 l 539 -210 q 436 -188 481 -210 q 361 -131 392 -167 q 315 -46 331 -94 q 300 57 300 3 q 316 158 300 111 q 362 240 332 206 q 435 293 392 274 q 535 313 479 313 l 832 313 l 832 331 q 827 388 832 361 q 808 435 822 415 q 765 465 793 454 q 692 476 738 476 l 649 476 q 549 456 578 476 q 508 394 519 436 l 308 394 m 486 57 q 505 -9 486 13 q 546 -31 524 -31 l 832 -31 l 832 146 l 546 146 q 505 124 524 146 q 486 57 486 101 z "},"ｂ":{"ha":1333,"x_min":306,"x_max":1028,"o":"m 701 674 q 837 651 776 674 q 940 586 897 628 q 1005 485 982 544 q 1028 351 1028 425 l 1028 114 q 1005 -19 1028 40 q 940 -122 982 -79 q 837 -187 897 -164 q 701 -210 776 -210 l 631 -210 q 495 -187 556 -210 q 392 -122 435 -164 q 328 -19 350 -79 q 306 114 306 40 l 306 351 l 306 365 l 306 972 l 510 972 l 510 651 q 646 674 574 674 l 701 674 m 631 475 q 544 440 576 475 q 510 351 511 406 l 510 119 q 542 26 510 63 q 631 -10 575 -10 l 701 -10 q 792 26 757 -10 q 826 119 826 63 l 826 346 q 792 439 826 403 q 701 475 757 475 l 631 475 z "},"ｃ":{"ha":1333,"x_min":310,"x_max":1024,"o":"m 707 -10 q 778 10 749 -10 q 817 65 807 29 l 1022 65 q 926 -135 1007 -61 q 707 -210 844 -210 l 636 -210 q 501 -187 561 -210 q 398 -122 440 -164 q 333 -19 356 -79 q 310 114 310 40 l 310 351 q 333 485 310 425 q 398 586 356 544 q 501 651 440 628 q 636 674 561 674 l 707 674 q 929 599 847 674 q 1024 394 1011 525 l 818 394 q 780 453 808 432 q 707 475 751 475 l 636 475 q 544 439 581 475 q 508 346 508 403 l 508 119 q 544 26 508 63 q 636 -10 581 -10 l 707 -10 l 707 -10 z "},"ｄ":{"ha":1333,"x_min":306,"x_max":1028,"o":"m 631 -210 q 495 -187 556 -210 q 392 -122 435 -164 q 328 -19 350 -79 q 306 114 306 40 l 306 351 q 328 485 306 425 q 392 586 350 544 q 495 651 435 628 q 631 674 556 674 l 701 674 q 832 653 774 674 l 832 972 l 1028 972 l 1028 -210 l 631 -210 m 832 -10 l 832 346 q 794 439 832 403 q 701 475 757 475 l 631 475 q 536 439 575 475 q 497 346 497 403 l 497 119 q 536 26 497 63 q 631 -10 575 -10 l 832 -10 z "},"ｅ":{"ha":1333,"x_min":283,"x_max":1050,"o":"m 283 360 q 308 481 283 424 q 372 581 332 538 q 464 649 413 624 q 568 674 515 674 l 765 674 q 886 645 833 674 q 975 572 939 617 q 1031 473 1011 528 q 1050 367 1050 418 l 1050 143 l 488 143 l 488 96 q 523 8 488 33 q 615 -18 558 -18 l 1019 -18 l 1019 -212 l 569 -212 q 459 -190 511 -212 q 368 -126 407 -167 q 306 -31 329 -86 q 283 90 283 25 l 283 360 m 490 307 l 849 307 l 849 317 q 814 428 849 383 q 721 472 779 472 l 613 472 q 563 460 585 472 q 524 426 540 447 q 499 376 508 404 q 490 317 490 347 l 490 307 z "},"ｆ":{"ha":1333,"x_min":399,"x_max":933,"o":"m 933 786 l 871 786 q 774 750 811 786 q 738 657 738 714 l 738 618 l 933 618 l 933 419 l 738 419 l 738 -211 l 556 -211 l 556 419 l 399 419 l 399 618 l 556 618 l 556 649 q 576 782 556 722 q 638 884 597 842 q 738 949 679 926 q 871 972 796 972 l 933 972 l 933 786 z "},"ｇ":{"ha":1333,"x_min":301,"x_max":1031,"o":"m 1031 674 l 1031 -211 q 1010 -337 1031 -282 q 952 -431 989 -392 q 863 -490 915 -469 q 749 -510 811 -510 l 351 -510 l 351 -317 l 717 -317 q 806 -284 769 -317 q 842 -193 842 -251 l 842 -182 l 583 -182 q 474 -162 525 -182 q 384 -102 422 -142 q 324 -4 346 -62 q 301 131 301 54 l 301 361 q 324 496 301 438 q 384 594 346 554 q 474 653 422 633 q 583 674 525 674 l 1031 674 m 840 481 l 626 481 q 577 469 600 481 q 537 439 554 458 q 510 394 519 419 q 500 340 500 369 l 500 153 q 510 98 500 124 q 537 53 519 72 q 577 22 554 33 q 626 11 600 11 l 840 11 l 840 481 z "},"ｈ":{"ha":1333,"x_min":304,"x_max":1028,"o":"m 644 476 q 570 465 599 476 q 526 435 542 454 q 504 388 510 415 q 499 331 499 361 l 499 -210 l 304 -210 l 304 972 l 499 972 l 499 656 q 553 669 524 664 q 614 674 582 674 l 718 674 q 853 648 794 674 q 950 579 911 622 q 1008 482 989 536 q 1028 372 1028 428 l 1028 -210 l 832 -210 l 832 331 q 826 388 832 361 q 805 435 821 415 q 761 465 789 454 q 688 476 733 476 l 644 476 z "},"ｉ":{"ha":1333,"x_min":564,"x_max":768,"o":"m 768 -210 l 564 -210 l 564 674 l 768 674 l 768 -210 m 768 769 l 564 769 l 564 972 l 768 972 l 768 769 z "},"ｊ":{"ha":1333,"x_min":485,"x_max":847,"o":"m 844 769 l 653 769 l 653 972 l 844 972 l 844 769 m 485 -325 l 521 -325 q 614 -289 581 -325 q 647 -196 647 -253 l 647 674 l 847 674 l 847 -189 q 828 -322 847 -262 q 770 -424 810 -382 q 669 -488 731 -465 q 521 -511 607 -511 l 485 -511 l 485 -325 z "},"ｋ":{"ha":1333,"x_min":300,"x_max":1032,"o":"m 1032 -210 l 803 -210 l 504 126 l 504 -210 l 300 -210 l 300 972 l 504 972 l 504 394 l 786 674 l 1026 674 l 601 265 l 1032 -210 z "},"ｌ":{"ha":1333,"x_min":564,"x_max":768,"o":"m 564 972 l 768 972 l 768 -210 l 564 -210 l 564 972 z "},"ｍ":{"ha":1333,"x_min":33,"x_max":1299,"o":"m 911 476 q 838 465 865 476 q 795 435 810 454 q 776 389 781 415 q 771 332 771 363 l 771 -210 l 567 -210 l 567 331 q 562 388 567 361 q 542 435 557 415 q 499 465 526 454 q 425 476 471 476 l 383 476 q 309 465 338 476 q 265 435 281 454 q 243 388 249 415 q 238 331 238 361 l 238 -210 l 33 -210 l 33 674 l 238 674 l 238 647 q 382 674 306 674 l 457 674 q 581 653 526 674 q 674 596 635 632 q 769 653 714 632 q 896 674 825 674 l 985 674 q 1121 648 1063 674 q 1219 579 1179 622 q 1278 482 1258 536 q 1299 372 1299 428 l 1299 -210 l 1096 -210 l 1096 331 q 1091 388 1096 361 q 1071 435 1086 415 q 1028 465 1056 454 q 954 476 1000 476 l 911 476 z "},"ｎ":{"ha":1333,"x_min":297,"x_max":1035,"o":"m 647 476 q 573 465 601 476 q 528 435 544 454 q 507 388 513 415 q 501 331 501 361 l 501 -210 l 297 -210 l 297 674 l 501 674 l 501 651 q 631 674 561 674 l 721 674 q 856 648 797 674 q 955 579 915 622 q 1015 482 994 536 q 1035 372 1035 428 l 1035 -210 l 831 -210 l 831 331 q 826 388 831 361 q 806 435 821 415 q 763 465 790 454 q 689 476 735 476 l 647 476 z "},"ｏ":{"ha":1333,"x_min":306,"x_max":1028,"o":"m 701 674 q 838 651 778 674 q 941 586 899 628 q 1006 485 983 544 q 1028 351 1028 425 l 1028 114 q 1006 -19 1028 40 q 941 -122 983 -79 q 838 -187 899 -164 q 701 -210 778 -210 l 631 -210 q 495 -187 556 -210 q 392 -122 435 -164 q 328 -19 350 -79 q 306 114 306 40 l 306 351 q 328 485 306 425 q 392 586 350 544 q 495 651 435 628 q 631 674 556 674 l 701 674 m 631 475 q 540 439 576 475 q 503 346 503 403 l 503 119 q 540 26 503 63 q 631 -10 576 -10 l 701 -10 q 793 26 757 -10 q 829 119 829 63 l 829 346 q 793 439 829 403 q 701 475 757 475 l 631 475 z "},"ｐ":{"ha":1333,"x_min":306,"x_max":1028,"o":"m 701 674 q 837 651 776 674 q 940 586 897 628 q 1005 485 982 544 q 1028 351 1028 425 l 1028 114 q 1005 -19 1028 40 q 940 -122 982 -79 q 837 -187 897 -164 q 701 -210 776 -210 l 646 -210 q 506 -186 569 -210 l 506 -511 l 306 -511 l 306 674 l 701 674 m 506 475 l 506 119 q 540 26 506 63 q 631 -10 575 -10 l 701 -10 q 793 26 757 -10 q 829 119 829 63 l 829 346 q 793 439 829 403 q 701 475 757 475 l 506 475 z "},"ｑ":{"ha":1333,"x_min":306,"x_max":1028,"o":"m 631 -210 q 495 -187 556 -210 q 392 -122 435 -164 q 328 -19 350 -79 q 306 114 306 40 l 306 351 q 328 485 306 425 q 392 586 350 544 q 495 651 435 628 q 631 674 556 674 l 1028 674 l 1028 114 l 1028 99 l 1028 -511 l 826 -511 l 826 -186 q 688 -210 763 -210 l 631 -210 m 701 -10 q 792 26 757 -10 q 826 119 826 63 l 826 475 l 631 475 q 539 439 575 475 q 503 346 503 403 l 503 119 q 539 26 503 63 q 631 -10 575 -10 l 701 -10 z "},"ｒ":{"ha":1333,"x_min":361,"x_max":971,"o":"m 576 493 q 642 564 601 533 q 731 615 682 594 q 836 647 781 636 q 947 657 892 657 l 971 657 l 971 442 l 947 442 q 819 416 885 442 q 699 350 753 390 q 610 259 644 310 q 576 158 576 208 l 576 -210 l 361 -210 l 361 681 l 576 681 l 576 493 l 576 493 z "},"ｓ":{"ha":1333,"x_min":310,"x_max":1022,"o":"m 938 503 l 593 503 q 556 494 571 503 q 530 472 540 486 q 515 442 519 458 q 510 410 510 426 q 531 350 510 376 q 585 324 553 324 l 778 324 q 885 303 839 324 q 961 245 931 282 q 1007 158 992 208 q 1022 51 1022 108 l 1022 46 q 1003 -58 1022 -11 q 952 -139 985 -106 q 874 -191 919 -172 q 778 -210 829 -210 l 358 -210 l 358 -37 l 719 -37 q 793 -15 760 -37 q 829 53 826 7 l 829 51 q 819 94 829 76 q 794 122 810 111 q 760 139 779 133 q 719 144 740 144 l 564 144 q 437 169 486 144 q 359 231 388 193 q 320 318 331 269 q 310 417 310 367 q 326 518 310 469 q 372 603 342 567 q 447 662 401 640 q 550 683 492 683 l 938 683 l 938 503 z "},"ｔ":{"ha":1333,"x_min":400,"x_max":932,"o":"m 400 674 l 564 674 l 564 972 l 768 972 l 768 674 l 932 674 l 932 475 l 768 475 l 768 -210 l 564 -210 l 564 475 l 400 475 l 400 674 z "},"ｕ":{"ha":1333,"x_min":301,"x_max":1032,"o":"m 685 -11 q 755 -1 728 -11 q 799 26 782 8 q 822 69 815 44 q 829 121 828 93 l 829 674 l 1032 674 l 1032 -210 l 829 -210 l 829 -187 q 768 -204 800 -199 q 700 -210 736 -210 l 611 -210 q 475 -183 533 -210 q 378 -115 417 -157 q 321 -18 340 -72 q 301 93 301 36 l 301 674 l 503 674 l 503 133 q 508 76 503 103 q 528 31 513 50 q 572 0 544 11 q 646 -11 600 -11 l 685 -11 z "},"ｖ":{"ha":1333,"x_min":306,"x_max":1028,"o":"m 768 -210 l 574 -210 l 306 674 l 499 674 l 668 114 l 833 674 l 1028 674 l 768 -210 z "},"ｗ":{"ha":1333,"x_min":42,"x_max":1292,"o":"m 1033 -210 l 838 -210 l 668 347 l 504 -210 l 310 -210 l 42 674 l 235 674 l 404 114 l 569 674 l 764 674 l 933 117 l 1099 674 l 1292 674 l 1033 -210 z "},"ｘ":{"ha":1333,"x_min":304,"x_max":1028,"o":"m 782 232 q 904 11 842 122 q 1026 -210 967 -100 l 818 -210 l 665 90 l 513 -210 l 304 -210 l 539 228 l 304 674 l 513 674 l 665 365 l 818 674 l 1028 674 l 782 232 z "},"ｙ":{"ha":1333,"x_min":306,"x_max":1028,"o":"m 676 -511 l 485 -511 l 574 -207 l 306 674 l 499 674 l 668 110 l 835 674 l 1028 674 l 676 -511 z "},"ｚ":{"ha":1333,"x_min":344,"x_max":989,"o":"m 989 485 l 585 -10 l 989 -10 l 989 -210 l 344 -210 l 344 -21 l 746 475 l 344 475 l 344 674 l 989 674 l 989 485 z "},"｛":{"ha":1333,"x_min":428,"x_max":904,"o":"m 539 318 l 428 458 l 539 625 l 511 883 q 536 1008 500 963 q 640 1051 572 1054 l 904 1050 l 904 851 l 776 851 q 730 844 747 854 q 715 810 713 833 l 743 625 l 632 457 l 743 319 l 715 129 q 710 90 713 110 q 711 55 708 71 q 724 28 714 39 q 757 14 733 17 l 904 -3 l 904 -208 l 629 -186 q 559 -161 585 -181 q 522 -110 533 -142 q 508 -37 510 -79 q 511 56 507 6 l 539 318 z "},"｜":{"ha":1333,"x_min":564,"x_max":768,"o":"m 564 972 l 768 972 l 768 -210 l 564 -210 l 564 972 z "},"｝":{"ha":1333,"x_min":428,"x_max":904,"o":"m 821 56 q 824 -37 825 6 q 810 -110 822 -79 q 773 -161 799 -142 q 703 -186 747 -181 l 428 -208 l 428 -3 l 575 14 q 608 28 597 17 q 621 55 618 39 q 622 90 624 71 q 617 129 619 110 l 589 319 l 700 457 l 589 625 l 617 810 q 602 844 619 833 q 556 851 585 854 l 428 851 l 428 1050 l 692 1051 q 796 1008 760 1054 q 821 883 832 963 l 793 625 l 904 458 l 793 318 l 821 56 z "},"‾":{"ha":1333,"x_min":360,"x_max":972,"o":"m 972 921 l 972 749 l 360 749 l 360 921 l 972 921 z "},"ㄱ":{"ha":1333,"x_min":190,"x_max":1094,"o":"m 1008 -42 l 807 -42 l 874 647 l 190 647 l 190 833 l 1094 833 l 1094 647 l 1008 -42 z "},"ㄲ":{"ha":1333,"x_min":161,"x_max":1179,"o":"m 550 -42 l 349 -42 l 415 647 l 161 647 l 161 833 l 636 833 l 636 647 l 550 -42 m 1093 -42 l 892 -42 l 958 647 l 681 647 l 681 833 l 1179 833 l 1179 647 l 1093 -42 z "},"ㄳ":{"ha":1333,"x_min":135,"x_max":1204,"o":"m 1204 -42 l 1017 -42 l 903 671 l 767 -42 l 390 -42 l 390 646 l 135 646 l 135 832 l 596 832 l 596 42 l 754 832 l 1051 832 l 1204 -42 z "},"ㄴ":{"ha":1333,"x_min":224,"x_max":1140,"o":"m 444 149 l 1140 149 l 1140 -42 l 224 -42 l 224 832 l 444 832 l 444 149 z "},"ㄵ":{"ha":1333,"x_min":161,"x_max":1217,"o":"m 994 646 l 651 646 l 651 832 l 1217 832 l 1217 646 l 1011 382 l 1215 190 l 1217 -71 l 899 239 l 668 -57 l 668 219 l 994 646 m 382 149 l 640 149 l 640 -42 l 161 -42 l 161 832 l 382 832 l 382 149 z "},"ㄶ":{"ha":1333,"x_min":161,"x_max":1178,"o":"m 1081 554 q 1129 441 1113 506 q 1146 293 1146 376 q 1127 135 1146 204 q 1074 20 1108 67 q 991 -51 1039 -26 q 885 -75 943 -75 q 697 20 768 -75 q 625 293 625 115 q 689 554 625 456 l 586 554 l 586 731 l 804 731 l 804 871 l 968 871 l 968 731 l 1178 731 l 1178 554 l 1081 554 m 379 149 l 626 149 l 626 -42 l 161 -42 l 161 832 l 379 832 l 379 149 m 794 276 q 801 209 794 240 q 819 154 807 178 q 847 117 831 131 q 885 104 864 104 q 951 154 926 104 q 976 276 976 204 l 976 311 q 970 378 976 346 q 951 433 964 410 q 922 469 939 456 q 885 483 906 483 q 847 469 864 483 q 819 433 831 456 q 801 378 807 410 q 794 311 794 346 l 794 276 z "},"ㄷ":{"ha":1333,"x_min":218,"x_max":1150,"o":"m 1150 139 l 1150 -42 l 218 -42 l 218 832 l 1122 832 l 1122 651 l 435 651 l 435 139 l 1150 139 z "},"ㄸ":{"ha":1333,"x_min":190,"x_max":1146,"o":"m 654 139 l 654 -42 l 190 -42 l 190 832 l 643 832 l 643 651 l 407 651 l 407 139 l 654 139 m 1146 139 l 1146 -42 l 697 -42 l 697 832 l 1126 832 l 1126 651 l 914 651 l 914 139 l 1146 139 z "},"ㄹ":{"ha":1333,"x_min":218,"x_max":1149,"o":"m 1122 832 l 1122 308 l 425 308 l 425 138 l 1149 138 l 1149 -42 l 218 -42 l 218 479 l 915 479 l 915 653 l 218 653 l 218 832 l 1122 832 z "},"ㄺ":{"ha":1333,"x_min":163,"x_max":1161,"o":"m 1161 -40 l 954 -40 l 954 646 l 700 646 l 700 831 l 1161 831 l 1161 -40 m 651 832 l 651 308 l 369 308 l 369 138 l 656 138 l 656 -42 l 163 -42 l 163 479 l 471 479 l 471 653 l 163 653 l 163 832 l 651 832 z "},"ㄻ":{"ha":1333,"x_min":163,"x_max":1151,"o":"m 638 832 l 638 308 l 369 308 l 369 138 l 642 138 l 642 -42 l 163 -42 l 163 479 l 457 479 l 457 653 l 163 653 l 163 832 l 638 832 m 1151 832 l 1151 -43 l 686 -43 l 686 832 l 1151 832 m 972 644 l 865 644 l 865 144 l 972 144 l 972 644 z "},"ㄼ":{"ha":1333,"x_min":163,"x_max":1151,"o":"m 1151 -43 l 688 -43 l 688 831 l 863 831 l 863 590 l 975 590 l 975 831 l 1151 831 l 1151 -43 m 638 832 l 638 308 l 369 308 l 369 138 l 642 138 l 642 -42 l 163 -42 l 163 479 l 457 479 l 457 653 l 163 653 l 163 832 l 638 832 m 975 146 l 975 392 l 863 392 l 863 146 l 975 146 z "},"ㄽ":{"ha":1333,"x_min":163,"x_max":1158,"o":"m 1158 -42 l 972 -42 l 914 642 l 847 -42 l 653 -42 l 772 831 l 1061 831 l 1158 -42 m 638 832 l 638 308 l 369 308 l 369 138 l 642 138 l 642 -42 l 163 -42 l 163 479 l 457 479 l 457 653 l 163 653 l 163 832 l 638 832 z "},"ㄾ":{"ha":1333,"x_min":163,"x_max":1151,"o":"m 638 832 l 638 308 l 369 308 l 369 138 l 642 138 l 642 -42 l 163 -42 l 163 479 l 457 479 l 457 653 l 163 653 l 163 832 l 638 832 m 1151 122 l 1151 -43 l 686 -43 l 686 832 l 1138 832 l 1138 667 l 889 667 l 889 475 l 1121 475 l 1121 311 l 889 311 l 889 122 l 1151 122 z "},"ㄿ":{"ha":1333,"x_min":163,"x_max":1161,"o":"m 675 -42 l 675 135 l 729 135 l 729 656 l 675 656 l 675 832 l 1161 832 l 1161 656 l 1103 656 l 1103 135 l 1161 135 l 1161 -42 l 675 -42 m 638 832 l 638 308 l 369 308 l 369 138 l 642 138 l 642 -42 l 163 -42 l 163 479 l 457 479 l 457 653 l 163 653 l 163 832 l 638 832 m 881 135 l 951 135 l 951 656 l 881 656 l 881 135 z "},"ㅀ":{"ha":1333,"x_min":163,"x_max":1146,"o":"m 1056 556 q 1096 442 1082 507 q 1110 293 1110 376 q 1051 20 1110 115 q 885 -75 993 -75 q 719 20 776 -75 q 661 293 661 115 q 714 556 661 458 l 640 556 l 640 732 l 801 732 l 801 872 l 971 872 l 971 732 l 1146 732 l 1146 556 l 1056 556 m 610 832 l 610 308 l 356 308 l 356 138 l 628 138 l 628 -42 l 163 -42 l 163 479 l 429 479 l 429 653 l 163 653 l 163 832 l 610 832 m 825 256 q 839 140 825 188 q 885 93 853 93 q 932 140 918 93 q 946 256 946 188 l 946 331 q 932 445 946 397 q 885 493 918 493 q 839 445 853 493 q 825 331 825 397 l 825 256 z "},"ㅁ":{"ha":1333,"x_min":218,"x_max":1122,"o":"m 1122 831 l 1122 -42 l 218 -42 l 218 831 l 1122 831 m 915 653 l 425 653 l 425 136 l 915 136 l 915 653 z "},"ㅂ":{"ha":1333,"x_min":218,"x_max":1122,"o":"m 1122 -42 l 218 -42 l 218 832 l 435 832 l 435 571 l 903 571 l 903 832 l 1122 832 l 1122 -42 m 903 139 l 903 390 l 435 390 l 435 139 l 903 139 z "},"ㅃ":{"ha":1333,"x_min":197,"x_max":1163,"o":"m 657 -42 l 197 -42 l 197 832 l 374 832 l 374 553 l 481 553 l 481 832 l 657 832 l 657 -42 m 1163 -42 l 703 -42 l 703 832 l 879 832 l 879 553 l 986 553 l 986 832 l 1163 832 l 1163 -42 m 481 117 l 481 410 l 374 410 l 374 117 l 481 117 m 986 117 l 986 410 l 879 410 l 879 117 l 986 117 z "},"ㅄ":{"ha":1333,"x_min":197,"x_max":1158,"o":"m 1158 -42 l 972 -42 l 914 642 l 847 -42 l 197 -42 l 197 832 l 374 832 l 374 553 l 481 553 l 481 832 l 657 832 l 657 -11 l 772 831 l 1061 831 l 1158 -42 m 481 117 l 481 410 l 374 410 l 374 117 l 481 117 z "},"ㅅ":{"ha":1333,"x_min":290,"x_max":1042,"o":"m 1042 -42 l 832 -42 l 678 683 l 500 -42 l 290 -42 l 522 832 l 833 832 l 1042 -42 z "},"ㅆ":{"ha":1333,"x_min":139,"x_max":1193,"o":"m 1193 -43 l 985 -43 l 917 683 l 785 -43 l 547 -43 l 438 683 l 347 -43 l 139 -43 l 282 832 l 572 832 l 669 231 l 782 832 l 1072 832 l 1193 -43 z "},"ㅇ":{"ha":1333,"x_min":283,"x_max":1044,"o":"m 283 564 q 313 683 283 626 q 395 781 343 739 q 516 848 447 824 q 664 872 585 872 q 812 848 743 872 q 933 781 881 824 q 1015 683 985 739 q 1044 564 1044 626 l 1044 218 q 1015 101 1044 156 q 933 6 985 46 q 812 -56 881 -33 q 664 -79 743 -79 q 516 -56 585 -79 q 395 6 447 -33 q 313 101 343 46 q 283 218 283 156 l 283 564 m 503 218 q 550 124 503 158 q 664 89 597 89 q 777 124 731 89 q 824 218 824 158 l 824 564 q 777 658 824 624 q 664 693 731 693 q 550 658 597 693 q 503 564 503 624 l 503 218 z "},"ㅈ":{"ha":1333,"x_min":163,"x_max":1179,"o":"m 956 663 l 192 663 l 192 847 l 1179 847 l 1179 590 l 858 381 l 1179 169 l 1178 -78 l 688 269 l 163 -74 l 163 150 l 956 663 z "},"ㅉ":{"ha":1333,"x_min":142,"x_max":1215,"o":"m 499 661 l 144 661 l 144 847 l 1215 847 l 1215 661 l 1006 386 l 1215 190 l 1215 -71 l 896 242 l 668 -57 l 378 221 l 142 -71 l 142 204 l 499 661 m 994 661 l 735 661 l 501 372 l 668 219 l 994 661 z "},"ㅊ":{"ha":1333,"x_min":161,"x_max":1179,"o":"m 792 818 l 1179 818 l 1179 558 l 854 357 l 1178 146 l 1178 -72 l 692 256 l 161 -72 l 161 142 l 944 635 l 174 635 l 174 818 l 567 818 l 567 1008 l 792 1008 l 792 818 z "},"ㅋ":{"ha":1333,"x_min":176,"x_max":1178,"o":"m 1092 -56 l 890 -56 l 919 264 l 176 264 l 176 444 l 936 444 l 957 661 l 199 661 l 199 847 l 1178 847 l 1178 661 l 1092 -56 z "},"ㅌ":{"ha":1333,"x_min":218,"x_max":1150,"o":"m 1150 139 l 1150 -42 l 218 -42 l 218 832 l 1122 832 l 1122 651 l 435 651 l 435 492 l 1085 492 l 1085 306 l 435 306 l 435 139 l 1150 139 z "},"ㅍ":{"ha":1333,"x_min":163,"x_max":1178,"o":"m 346 133 l 346 654 l 163 654 l 163 831 l 1178 831 l 1178 654 l 1011 654 l 1011 133 l 1178 133 l 1178 -43 l 163 -43 l 163 133 l 346 133 m 567 133 l 790 133 l 790 654 l 567 654 l 567 133 z "},"ㅎ":{"ha":1333,"x_min":131,"x_max":1185,"o":"m 796 731 l 1185 731 l 1185 536 l 994 536 q 1060 442 1036 496 q 1085 324 1085 389 l 1085 267 q 1054 114 1085 182 q 969 -3 1024 46 q 836 -78 914 -51 q 665 -104 758 -104 q 493 -78 571 -104 q 360 -3 415 -51 q 275 114 306 46 q 244 267 244 182 l 244 322 q 268 442 244 389 q 335 536 292 496 l 131 536 l 131 731 l 536 731 l 536 914 l 796 914 l 796 731 m 451 260 q 510 119 451 172 q 663 67 568 67 q 815 119 758 67 q 872 260 872 172 l 872 324 q 856 403 872 368 q 811 464 839 439 q 744 503 783 489 q 663 517 706 517 q 583 503 621 517 q 515 466 544 490 q 469 406 486 442 q 451 324 451 369 l 451 260 z "},"ㅏ":{"ha":1333,"x_min":492,"x_max":842,"o":"m 700 576 l 842 576 l 842 388 l 700 388 l 700 -250 l 492 -250 l 492 1064 l 700 1064 l 700 576 z "},"ㅐ":{"ha":1333,"x_min":410,"x_max":924,"o":"m 410 -250 l 410 1064 l 606 1064 l 606 607 l 728 607 l 728 1064 l 924 1064 l 924 -250 l 728 -250 l 728 418 l 606 418 l 606 -250 l 410 -250 z "},"ㅑ":{"ha":1333,"x_min":492,"x_max":842,"o":"m 842 147 l 700 147 l 700 -250 l 492 -250 l 492 1064 l 700 1064 l 700 779 l 842 779 l 842 592 l 700 592 l 700 335 l 842 335 l 842 147 z "},"ㅒ":{"ha":1333,"x_min":410,"x_max":924,"o":"m 410 -250 l 410 1064 l 606 1064 l 606 756 l 728 756 l 728 1064 l 924 1064 l 924 -250 l 728 -250 l 728 126 l 606 126 l 606 -250 l 410 -250 m 606 311 l 728 311 l 728 571 l 606 571 l 606 311 z "},"ㅓ":{"ha":1333,"x_min":422,"x_max":911,"o":"m 911 -250 l 714 -250 l 714 383 l 422 383 l 422 576 l 714 576 l 714 1064 l 911 1064 l 911 -250 z "},"ㅔ":{"ha":1333,"x_min":275,"x_max":1057,"o":"m 557 -250 l 557 418 l 275 418 l 275 607 l 557 607 l 557 1064 l 747 1064 l 747 -250 l 557 -250 m 867 -250 l 867 1064 l 1057 1064 l 1057 -250 l 867 -250 z "},"ㅕ":{"ha":1333,"x_min":438,"x_max":896,"o":"m 699 768 l 699 1064 l 896 1064 l 896 -250 l 699 -250 l 699 153 l 438 153 l 438 342 l 699 342 l 699 579 l 438 579 l 438 768 l 699 768 z "},"ㅖ":{"ha":1333,"x_min":278,"x_max":1054,"o":"m 578 -250 l 578 129 l 278 129 l 278 318 l 578 318 l 578 521 l 278 521 l 278 710 l 578 710 l 578 1064 l 768 1064 l 768 -250 l 578 -250 m 864 -250 l 864 1064 l 1054 1064 l 1054 -250 l 864 -250 z "},"ㅗ":{"ha":1333,"x_min":69,"x_max":1264,"o":"m 563 -68 l 563 489 l 765 489 l 765 -68 l 1264 -68 l 1264 -250 l 69 -250 l 69 -68 l 563 -68 z "},"ㅘ":{"ha":1333,"x_min":42,"x_max":1292,"o":"m 328 343 l 543 343 l 543 -65 l 946 -65 l 946 1064 l 1150 1064 l 1150 658 l 1292 658 l 1292 469 l 1150 469 l 1150 -250 l 42 -250 l 42 -65 l 328 -65 l 328 343 z "},"ㅙ":{"ha":1333,"x_min":76,"x_max":1257,"o":"m 76 -250 l 76 -74 l 322 -74 l 322 301 l 513 301 l 513 -74 l 818 -74 l 818 1064 l 986 1064 l 986 658 l 1089 658 l 1089 1064 l 1257 1064 l 1257 -250 l 1089 -250 l 1089 469 l 986 469 l 986 -250 l 76 -250 z "},"ㅚ":{"ha":1333,"x_min":93,"x_max":1239,"o":"m 393 343 l 608 343 l 608 -65 l 1035 -65 l 1035 1064 l 1239 1064 l 1239 -250 l 93 -250 l 93 -65 l 393 -65 l 393 343 z "},"ㅛ":{"ha":1333,"x_min":69,"x_max":1264,"o":"m 340 -65 l 340 417 l 549 417 l 549 -65 l 785 -65 l 785 417 l 993 417 l 993 -65 l 1264 -65 l 1264 -250 l 69 -250 l 69 -65 l 340 -65 z "},"ㅜ":{"ha":1333,"x_min":69,"x_max":1264,"o":"m 1264 254 l 1264 68 l 764 68 l 764 -250 l 569 -250 l 569 68 l 69 68 l 69 254 l 1264 254 z "},"ㅝ":{"ha":1333,"x_min":93,"x_max":1239,"o":"m 775 -65 l 1035 -65 l 1035 117 l 622 117 l 622 -250 l 407 -250 l 407 117 l 93 117 l 93 301 l 1035 301 l 1035 1064 l 1239 1064 l 1239 -250 l 775 -250 l 775 -65 z "},"ㅞ":{"ha":1333,"x_min":74,"x_max":1260,"o":"m 615 -65 l 778 -65 l 778 96 l 494 96 l 494 -250 l 300 -250 l 300 96 l 74 96 l 74 282 l 778 282 l 778 1064 l 971 1064 l 971 -250 l 615 -250 l 615 -65 m 1260 -250 l 1065 -250 l 1065 1064 l 1260 1064 l 1260 -250 z "},"ㅟ":{"ha":1333,"x_min":93,"x_max":1239,"o":"m 1035 131 l 622 131 l 622 -250 l 407 -250 l 407 131 l 93 131 l 93 315 l 1035 315 l 1035 1064 l 1239 1064 l 1239 -250 l 1035 -250 l 1035 131 z "},"ㅠ":{"ha":1333,"x_min":69,"x_max":1264,"o":"m 1264 282 l 1264 96 l 1000 96 l 1000 -250 l 806 -250 l 806 96 l 528 96 l 528 -250 l 333 -250 l 333 96 l 69 96 l 69 282 l 1264 282 z "},"ㅡ":{"ha":1333,"x_min":69,"x_max":1264,"o":"m 1264 -68 l 1264 -250 l 69 -250 l 69 -68 l 1264 -68 z "},"ㅢ":{"ha":1333,"x_min":93,"x_max":1239,"o":"m 1043 -62 l 1043 1064 l 1239 1064 l 1239 -250 l 93 -250 l 93 -62 l 1043 -62 z "},"ㅣ":{"ha":1333,"x_min":560,"x_max":774,"o":"m 774 -250 l 560 -250 l 560 1064 l 774 1064 l 774 -250 z "},"ㅥ":{"ha":1333,"x_min":190,"x_max":1146,"o":"m 411 149 l 653 149 l 653 -42 l 190 -42 l 190 833 l 411 833 l 411 149 m 918 149 l 1146 149 l 1146 -42 l 697 -42 l 697 833 l 918 833 l 918 149 z "},"ㅦ":{"ha":1333,"x_min":190,"x_max":1146,"o":"m 411 149 l 653 149 l 653 -42 l 190 -42 l 190 833 l 411 833 l 411 149 m 1146 139 l 1146 -42 l 697 -42 l 697 832 l 1126 832 l 1126 651 l 914 651 l 914 139 l 1146 139 z "},"ㅧ":{"ha":1333,"x_min":190,"x_max":1204,"o":"m 1204 -42 l 1017 -42 l 903 686 l 767 -42 l 190 -42 l 190 833 l 411 833 l 411 149 l 617 149 l 754 847 l 1051 847 l 1204 -42 z "},"ㅨ":{"ha":1333,"x_min":190,"x_max":1163,"o":"m 1163 -42 l 621 -42 l 754 847 l 1051 847 l 1163 -42 m 411 149 l 607 149 l 607 -42 l 190 -42 l 190 833 l 411 833 l 411 149 m 831 135 l 957 135 l 903 686 l 831 135 z "},"ㅩ":{"ha":1333,"x_min":142,"x_max":1251,"o":"m 1251 -42 l 1106 -42 l 1039 617 l 964 -42 l 656 -42 l 656 656 l 540 656 l 540 831 l 818 831 l 818 -42 l 926 833 l 1149 833 l 1251 -42 m 506 832 l 506 308 l 307 308 l 307 138 l 510 138 l 510 -42 l 142 -42 l 142 479 l 339 479 l 339 653 l 142 653 l 142 832 l 506 832 z "},"ㅪ":{"ha":1333,"x_min":163,"x_max":1151,"o":"m 1151 122 l 1151 -43 l 686 -43 l 686 832 l 1138 832 l 1138 667 l 889 667 l 889 122 l 1151 122 m 638 832 l 638 308 l 369 308 l 369 138 l 642 138 l 642 -42 l 163 -42 l 163 479 l 457 479 l 457 653 l 163 653 l 163 832 l 638 832 z "},"ㅫ":{"ha":1333,"x_min":142,"x_max":1224,"o":"m 856 22 l 926 833 l 1149 833 l 1224 -42 l 1078 -42 l 1039 617 l 996 -42 l 521 -42 l 521 832 l 656 832 l 656 553 l 708 553 l 708 832 l 856 832 l 856 22 m 492 832 l 492 308 l 307 308 l 307 138 l 496 138 l 496 -42 l 142 -42 l 142 479 l 325 479 l 325 653 l 142 653 l 142 832 l 492 832 m 708 117 l 708 410 l 656 410 l 656 117 l 708 117 z "},"ㅬ":{"ha":1333,"x_min":163,"x_max":1149,"o":"m 1149 -42 l 636 -42 l 769 847 l 1051 847 l 1149 -42 m 624 832 l 624 308 l 369 308 l 369 138 l 628 138 l 628 -42 l 163 -42 l 163 479 l 443 479 l 443 653 l 163 653 l 163 832 l 624 832 m 843 135 l 947 135 l 903 686 l 843 135 z "},"ㅭ":{"ha":1333,"x_min":163,"x_max":1110,"o":"m 610 832 l 610 308 l 356 308 l 356 138 l 628 138 l 628 -42 l 163 -42 l 163 479 l 429 479 l 429 653 l 163 653 l 163 832 l 610 832 m 825 243 q 839 138 825 181 q 885 94 853 94 q 932 138 918 94 q 946 243 946 181 l 946 308 q 932 413 946 371 q 885 456 918 456 q 839 413 853 456 q 825 308 825 371 l 825 243 m 661 275 q 719 522 661 433 q 885 610 776 610 q 1051 522 993 610 q 1110 275 1110 433 q 1051 29 1110 115 q 885 -57 993 -57 q 719 29 776 -57 q 661 275 661 115 m 660 654 l 660 831 l 1110 831 l 1110 654 l 660 654 z "},"ㅮ":{"ha":1333,"x_min":163,"x_max":1151,"o":"m 628 832 l 628 -43 l 163 -43 l 163 832 l 628 832 m 1151 -43 l 688 -43 l 688 831 l 863 831 l 863 590 l 975 590 l 975 831 l 1151 831 l 1151 -43 m 449 644 l 342 644 l 342 144 l 449 144 l 449 644 m 975 146 l 975 392 l 863 392 l 863 146 l 975 146 z "},"ㅯ":{"ha":1333,"x_min":163,"x_max":1158,"o":"m 628 832 l 628 -43 l 163 -43 l 163 832 l 628 832 m 449 644 l 342 644 l 342 144 l 449 144 l 449 644 m 1158 -42 l 972 -42 l 914 642 l 847 -42 l 653 -42 l 772 831 l 1061 831 l 1158 -42 z "},"ㅰ":{"ha":1333,"x_min":163,"x_max":1149,"o":"m 628 832 l 628 -42 l 163 -42 l 163 832 l 628 832 m 1149 -42 l 636 -42 l 769 831 l 1051 831 l 1149 -42 m 449 644 l 342 644 l 342 144 l 449 144 l 449 644 m 843 135 l 946 135 l 903 669 l 843 135 z "},"ㅱ":{"ha":1333,"x_min":371,"x_max":963,"o":"m 963 857 l 963 331 l 371 331 l 371 857 l 963 857 m 768 696 l 565 696 l 565 492 l 768 492 l 768 696 m 585 43 q 610 -15 585 7 q 675 -36 635 -36 q 741 -15 717 -36 q 765 43 765 7 l 765 58 q 741 116 765 94 q 675 138 717 138 q 610 116 635 138 q 585 58 585 94 l 585 43 m 418 50 q 488 211 418 154 q 675 268 558 268 q 862 211 792 268 q 932 50 932 154 q 862 -110 932 -53 q 675 -167 792 -167 q 488 -110 558 -167 q 418 50 418 -53 z "},"ㅲ":{"ha":1333,"x_min":163,"x_max":1161,"o":"m 651 -43 l 163 -43 l 163 831 l 338 831 l 338 590 l 475 590 l 475 831 l 651 831 l 651 -43 m 1161 -40 l 954 -40 l 954 646 l 700 646 l 700 831 l 1161 831 l 1161 -40 m 475 146 l 475 392 l 338 392 l 338 146 l 475 146 z "},"ㅳ":{"ha":1333,"x_min":163,"x_max":1146,"o":"m 651 -43 l 163 -43 l 163 831 l 338 831 l 338 590 l 475 590 l 475 831 l 651 831 l 651 -43 m 1146 139 l 1146 -42 l 697 -42 l 697 832 l 1126 832 l 1126 651 l 914 651 l 914 139 l 1146 139 m 475 146 l 475 392 l 338 392 l 338 146 l 475 146 z "},"ㅴ":{"ha":1333,"x_min":143,"x_max":1178,"o":"m 515 115 l 604 832 l 826 832 l 929 -42 l 783 -42 l 717 617 l 642 -42 l 143 -42 l 143 832 l 285 832 l 285 553 l 361 553 l 361 832 l 515 832 l 515 115 m 1178 -42 l 1015 -42 l 1015 657 l 879 657 l 879 832 l 1178 832 l 1178 -42 m 361 117 l 361 410 l 285 410 l 285 117 l 361 117 z "},"ㅵ":{"ha":1333,"x_min":143,"x_max":1215,"o":"m 515 -3 l 606 832 l 828 832 l 919 -15 l 919 832 l 1201 832 l 1201 668 l 1074 668 l 1074 121 l 1215 121 l 1215 -42 l 776 -42 l 718 617 l 657 -42 l 143 -42 l 143 832 l 285 832 l 285 553 l 361 553 l 361 832 l 515 832 l 515 -3 m 361 117 l 361 410 l 285 410 l 285 117 l 361 117 z "},"ㅶ":{"ha":1333,"x_min":163,"x_max":1193,"o":"m 651 -43 l 163 -43 l 163 831 l 338 831 l 338 590 l 475 590 l 475 831 l 651 831 l 651 -43 m 990 661 l 700 661 l 700 833 l 1193 833 l 1193 661 l 1000 383 l 1192 185 l 1193 -76 l 899 238 l 690 -62 l 690 214 l 990 661 m 475 146 l 475 392 l 338 392 l 338 146 l 475 146 z "},"ㅷ":{"ha":1333,"x_min":163,"x_max":1151,"o":"m 651 -43 l 163 -43 l 163 831 l 338 831 l 338 590 l 475 590 l 475 831 l 651 831 l 651 -43 m 1151 122 l 1151 -43 l 686 -43 l 686 832 l 1138 832 l 1138 667 l 889 667 l 889 475 l 1121 475 l 1121 311 l 889 311 l 889 122 l 1151 122 m 475 146 l 475 392 l 338 392 l 338 146 l 475 146 z "},"ㅸ":{"ha":1333,"x_min":371,"x_max":963,"o":"m 963 331 l 371 331 l 371 860 l 561 860 l 561 754 l 774 754 l 774 860 l 963 860 l 963 331 m 418 50 q 488 211 418 154 q 675 268 558 268 q 862 211 792 268 q 932 50 932 154 q 862 -110 932 -53 q 675 -167 792 -167 q 488 -110 558 -167 q 418 50 418 -53 m 585 43 q 610 -15 585 7 q 675 -36 635 -36 q 741 -15 717 -36 q 765 43 765 7 l 765 58 q 741 116 765 94 q 675 138 717 138 q 610 116 635 138 q 585 58 585 94 l 585 43 m 774 493 l 774 596 l 561 596 l 561 493 l 774 493 z "},"ㅹ":{"ha":1333,"x_min":301,"x_max":1032,"o":"m 757 754 l 850 754 l 850 860 l 1032 860 l 1032 331 l 301 331 l 301 860 l 485 860 l 485 754 l 576 754 l 576 858 l 757 858 l 757 754 m 418 50 q 488 211 418 154 q 675 268 558 268 q 862 211 792 268 q 932 50 932 154 q 862 -110 932 -53 q 675 -167 792 -167 q 488 -110 558 -167 q 418 50 418 -53 m 585 43 q 610 -15 585 7 q 675 -36 635 -36 q 741 -15 717 -36 q 765 43 765 7 l 765 58 q 741 116 765 94 q 675 138 717 138 q 610 116 635 138 q 585 58 585 94 l 585 43 m 850 493 l 850 596 l 757 596 l 757 493 l 850 493 m 485 493 l 576 493 l 576 596 l 485 596 l 485 493 z "},"ㅺ":{"ha":1333,"x_min":163,"x_max":1161,"o":"m 1161 -40 l 954 -40 l 954 646 l 714 646 l 714 831 l 1161 831 l 1161 -40 m 788 -42 l 600 -42 l 486 671 l 350 -42 l 163 -42 l 338 832 l 635 832 l 788 -42 z "},"ㅻ":{"ha":1333,"x_min":149,"x_max":1178,"o":"m 718 -42 l 531 -42 l 444 671 l 336 -42 l 149 -42 l 296 832 l 593 832 l 718 -42 m 950 149 l 1178 149 l 1178 -42 l 743 -42 l 743 832 l 950 832 l 950 149 z "},"ㅼ":{"ha":1333,"x_min":149,"x_max":1178,"o":"m 1178 139 l 1178 -42 l 729 -42 l 729 832 l 1158 832 l 1158 651 l 946 651 l 946 139 l 1178 139 m 718 -42 l 531 -42 l 444 671 l 336 -42 l 149 -42 l 296 832 l 593 832 l 718 -42 z "},"ㅽ":{"ha":1333,"x_min":149,"x_max":1151,"o":"m 1151 -42 l 503 -42 l 431 671 l 336 -42 l 149 -42 l 282 832 l 579 832 l 688 -19 l 688 831 l 863 831 l 863 590 l 975 590 l 975 831 l 1151 831 l 1151 -42 m 975 146 l 975 392 l 863 392 l 863 146 l 975 146 z "},"ㅾ":{"ha":1333,"x_min":149,"x_max":1207,"o":"m 690 -42 l 503 -42 l 431 671 l 336 -42 l 149 -42 l 282 832 l 579 832 l 690 -42 m 1004 661 l 714 661 l 714 833 l 1207 833 l 1207 661 l 1014 383 l 1206 185 l 1207 -76 l 913 238 l 704 -62 l 704 214 l 1004 661 z "},"ㅿ":{"ha":1333,"x_min":206,"x_max":1065,"o":"m 1065 -42 l 206 -42 l 492 832 l 774 832 l 1065 -42 m 461 135 l 804 135 l 625 671 l 461 135 z "},"ㆀ":{"ha":1333,"x_min":139,"x_max":1222,"o":"m 361 -69 q 272 -49 313 -69 q 201 7 231 -28 q 156 85 172 42 q 139 175 139 129 l 139 629 q 156 716 139 672 q 204 794 174 760 q 275 851 235 829 q 361 874 315 874 l 444 874 q 533 851 492 874 q 603 794 574 829 q 650 715 633 758 q 667 629 667 671 l 667 175 q 650 85 667 129 q 603 7 633 42 q 533 -49 574 -28 q 444 -69 492 -69 l 361 -69 m 311 182 q 335 118 311 146 q 394 90 358 90 l 410 90 q 469 118 446 90 q 493 182 493 146 l 493 622 q 487 654 493 638 q 470 684 481 671 q 444 706 460 697 q 410 714 428 714 l 394 714 q 360 705 375 714 q 333 683 344 696 q 317 653 322 669 q 311 622 311 636 l 311 182 m 917 -69 q 827 -49 868 -69 q 757 7 786 -28 q 711 85 728 42 q 694 175 694 129 l 694 629 q 712 716 694 672 q 760 794 729 760 q 831 851 790 829 q 917 874 871 874 l 1000 874 q 1088 851 1047 874 q 1159 794 1129 829 q 1206 715 1189 758 q 1222 629 1222 671 l 1222 175 q 1206 85 1222 129 q 1159 7 1189 42 q 1088 -49 1129 -28 q 1000 -69 1047 -69 l 917 -69 m 867 182 q 890 118 867 146 q 950 90 914 90 l 965 90 q 1025 118 1001 90 q 1049 182 1049 146 l 1049 622 q 1042 654 1049 638 q 1026 684 1036 671 q 999 706 1015 697 q 965 714 983 714 l 950 714 q 915 705 931 714 q 889 683 900 696 q 872 653 878 669 q 867 622 867 636 l 867 182 z "},"ㆁ":{"ha":1333,"x_min":389,"x_max":944,"o":"m 611 -69 q 522 -49 563 -69 q 451 7 481 -28 q 406 85 422 42 q 389 175 389 129 l 389 404 q 403 483 389 443 q 443 556 418 522 q 502 613 468 589 q 576 644 536 636 l 576 881 l 771 881 l 771 642 q 840 606 808 631 q 895 549 872 582 q 931 478 918 517 q 944 404 944 440 l 944 175 q 928 85 944 129 q 881 7 911 42 q 810 -49 851 -28 q 722 -69 769 -69 l 611 -69 m 561 182 q 585 118 561 146 q 644 90 608 90 l 688 90 q 747 118 724 90 q 771 182 771 146 l 771 397 q 765 429 771 413 q 748 459 758 446 q 722 481 738 472 q 688 489 706 489 l 644 489 q 610 480 625 489 q 583 458 594 471 q 567 428 572 444 q 561 397 561 411 l 561 182 z "},"ㆂ":{"ha":1333,"x_min":163,"x_max":1158,"o":"m 356 -69 q 274 -49 310 -69 q 214 7 239 -28 q 176 85 189 42 q 163 175 163 129 l 163 404 q 173 477 163 440 q 202 547 183 514 q 247 603 221 579 q 306 639 274 628 l 306 881 l 500 881 l 500 642 q 562 606 535 631 q 608 549 589 582 q 638 478 628 517 q 649 404 649 440 l 649 175 q 635 85 649 129 q 597 7 622 42 q 536 -49 572 -28 q 456 -69 500 -69 l 356 -69 m 1158 -42 l 972 -42 l 914 642 l 847 -42 l 653 -42 l 772 831 l 1061 831 l 1158 -42 m 322 182 q 338 118 322 146 q 386 90 353 90 l 424 90 q 473 118 457 90 q 489 182 489 146 l 489 397 q 485 429 489 413 q 474 459 482 446 q 454 481 467 472 q 424 489 442 489 l 386 489 q 356 480 368 489 q 336 458 343 471 q 326 428 329 444 q 322 397 322 411 l 322 182 z "},"ㆃ":{"ha":1333,"x_min":160,"x_max":1176,"o":"m 1176 -42 l 635 -42 l 768 847 l 1065 847 l 1176 -42 m 353 -69 q 272 -49 307 -69 q 211 7 236 -28 q 173 85 186 42 q 160 175 160 129 l 160 404 q 170 477 160 440 q 199 547 181 514 q 244 603 218 579 q 303 639 271 628 l 303 881 l 497 881 l 497 642 q 559 606 532 631 q 606 549 586 582 q 635 478 625 517 q 646 404 646 440 l 646 175 q 633 85 646 129 q 594 7 619 42 q 533 -49 569 -28 q 453 -69 497 -69 l 353 -69 m 319 182 q 335 118 319 146 q 383 90 350 90 l 421 90 q 470 118 454 90 q 486 182 486 146 l 486 397 q 483 429 486 413 q 472 459 479 446 q 451 481 464 472 q 421 489 439 489 l 383 489 q 353 480 365 489 q 333 458 340 471 q 323 428 326 444 q 319 397 319 411 l 319 182 m 844 135 l 971 135 l 917 686 l 844 135 z "},"ㆄ":{"ha":1333,"x_min":296,"x_max":1038,"o":"m 401 490 l 401 699 l 296 699 l 296 858 l 1038 858 l 1038 699 l 949 699 l 949 490 l 1038 490 l 1038 331 l 296 331 l 296 490 l 401 490 m 411 50 q 481 211 411 154 q 668 268 551 268 q 855 211 785 268 q 925 50 925 154 q 855 -110 925 -53 q 668 -167 785 -167 q 481 -110 551 -167 q 411 50 411 -53 m 590 490 l 760 490 l 760 699 l 590 699 l 590 490 m 578 43 q 603 -15 578 7 q 668 -36 628 -36 q 734 -15 710 -36 q 758 43 758 7 l 758 58 q 734 116 758 94 q 668 138 710 138 q 603 116 628 138 q 578 58 578 94 l 578 43 z "},"ㆅ":{"ha":1333,"x_min":154,"x_max":1146,"o":"m 1056 556 q 1096 442 1082 507 q 1110 293 1110 376 q 1051 20 1110 115 q 885 -75 993 -75 q 719 20 776 -75 q 661 293 661 115 q 714 556 661 458 l 660 556 l 660 732 l 801 732 l 801 872 l 971 872 l 971 732 l 1146 732 l 1146 556 l 1056 556 m 569 556 q 610 442 596 507 q 624 293 624 376 q 565 20 624 115 q 399 -75 507 -75 q 230 20 285 -75 q 175 293 175 115 q 228 556 175 458 l 154 556 l 154 732 l 315 732 l 315 872 l 485 872 l 485 732 l 624 732 l 624 556 l 569 556 m 825 256 q 839 140 825 188 q 885 93 853 93 q 932 140 918 93 q 946 256 946 188 l 946 331 q 932 445 946 397 q 885 493 918 493 q 839 445 853 493 q 825 331 825 397 l 825 256 m 339 256 q 353 140 339 188 q 399 93 367 93 q 446 140 432 93 q 460 256 460 188 l 460 331 q 446 445 460 397 q 399 493 432 493 q 353 445 367 493 q 339 331 339 397 l 339 256 z "},"ㆆ":{"ha":1333,"x_min":236,"x_max":1097,"o":"m 283 300 q 312 417 283 363 q 390 510 340 471 q 510 571 440 549 q 664 593 581 593 q 817 571 747 593 q 938 510 888 549 q 1016 417 988 471 q 1044 300 1044 363 l 1044 218 q 1017 101 1044 156 q 940 6 990 46 q 820 -56 890 -33 q 664 -79 750 -79 q 509 -56 579 -79 q 389 6 439 -33 q 311 101 339 46 q 283 218 283 156 l 283 300 m 489 215 q 503 158 489 183 q 540 113 517 132 q 596 85 564 94 q 664 75 628 75 q 732 85 700 75 q 788 113 764 94 q 824 158 811 132 q 838 215 838 183 l 838 303 q 824 360 838 336 q 788 399 811 383 q 732 421 764 414 q 664 428 700 428 q 596 421 628 428 q 540 399 564 414 q 503 360 517 383 q 489 303 489 336 l 489 215 m 236 654 l 236 831 l 1097 831 l 1097 654 l 236 654 z "},"ㆇ":{"ha":1333,"x_min":42,"x_max":1292,"o":"m 201 -65 l 201 343 l 410 343 l 410 -65 l 590 -65 l 590 343 l 799 343 l 799 -65 l 946 -65 l 946 1064 l 1150 1064 l 1150 756 l 1292 756 l 1292 567 l 1150 567 l 1150 265 l 1292 265 l 1292 78 l 1150 78 l 1150 -250 l 42 -250 l 42 -65 l 201 -65 z "},"ㆈ":{"ha":1333,"x_min":76,"x_max":1257,"o":"m 208 -74 l 208 343 l 375 343 l 375 -74 l 514 -74 l 514 343 l 681 343 l 681 -74 l 818 -74 l 818 1064 l 986 1064 l 986 742 l 1089 742 l 1089 1064 l 1257 1064 l 1257 -250 l 1089 -250 l 1089 108 l 986 108 l 986 -250 l 76 -250 l 76 -74 l 208 -74 m 986 297 l 1089 297 l 1089 553 l 986 553 l 986 297 z "},"ㆉ":{"ha":1333,"x_min":93,"x_max":1239,"o":"m 267 -62 l 267 343 l 475 343 l 475 -62 l 656 -62 l 656 343 l 864 343 l 864 -62 l 1043 -62 l 1043 1064 l 1239 1064 l 1239 -250 l 93 -250 l 93 -62 l 267 -62 z "},"ㆊ":{"ha":1333,"x_min":93,"x_max":1239,"o":"m 1239 -250 l 1039 -250 l 1039 -8 l 871 -8 l 871 -250 l 676 -250 l 676 -8 l 496 -8 l 496 -250 l 301 -250 l 301 -8 l 93 -8 l 93 176 l 1039 176 l 1039 347 l 781 347 l 781 522 l 1039 522 l 1039 676 l 781 676 l 781 851 l 1039 851 l 1039 1064 l 1239 1064 l 1239 -250 z "},"ㆋ":{"ha":1333,"x_min":74,"x_max":1260,"o":"m 206 -250 l 206 96 l 74 96 l 74 254 l 778 254 l 778 403 l 581 403 l 581 578 l 778 578 l 778 718 l 581 718 l 581 893 l 778 893 l 778 1064 l 971 1064 l 971 -250 l 778 -250 l 778 96 l 664 96 l 664 -250 l 497 -250 l 497 96 l 372 96 l 372 -250 l 206 -250 m 1260 -250 l 1065 -250 l 1065 1064 l 1260 1064 l 1260 -250 z "},"ㆌ":{"ha":1333,"x_min":93,"x_max":1239,"o":"m 1035 131 l 871 131 l 871 -250 l 676 -250 l 676 131 l 496 131 l 496 -250 l 301 -250 l 301 131 l 93 131 l 93 315 l 1035 315 l 1035 1064 l 1239 1064 l 1239 -250 l 1035 -250 l 1035 131 z "},"ㆍ":{"ha":1333,"x_min":554,"x_max":778,"o":"m 554 411 q 560 442 554 425 q 576 472 565 458 q 603 494 588 485 q 638 503 618 503 l 694 503 q 728 494 713 503 q 755 473 744 486 q 772 443 765 460 q 778 411 778 426 l 778 376 q 754 313 778 340 q 694 285 731 285 l 638 285 q 578 313 601 285 q 554 376 554 340 l 554 411 z "},"ㆎ":{"ha":1333,"x_min":385,"x_max":949,"o":"m 949 -250 l 735 -250 l 735 1064 l 949 1064 l 949 -250 m 385 411 q 390 442 385 425 q 407 472 396 458 q 433 494 418 485 q 468 503 449 503 l 525 503 q 559 494 543 503 q 585 473 575 486 q 602 443 596 460 q 608 411 608 426 l 608 376 q 585 313 608 340 q 525 285 561 285 l 468 285 q 408 313 432 285 q 385 376 385 340 l 385 411 z "},"ⅰ":{"ha":1333,"x_min":560,"x_max":772,"o":"m 768 800 l 560 800 l 560 976 l 768 976 l 768 800 m 561 -46 l 561 694 l 772 694 l 772 -46 l 561 -46 z "},"ⅱ":{"ha":1333,"x_min":372,"x_max":961,"o":"m 960 800 l 749 800 l 749 976 l 960 976 l 960 800 m 582 800 l 372 800 l 372 976 l 582 976 l 582 800 m 750 -44 l 750 694 l 961 694 l 961 -44 l 750 -44 m 378 -44 l 378 694 l 589 694 l 589 -44 l 378 -44 z "},"ⅲ":{"ha":1333,"x_min":257,"x_max":1076,"o":"m 1075 800 l 865 800 l 865 976 l 1075 976 l 1075 800 m 465 800 l 257 800 l 257 976 l 465 976 l 465 800 m 772 800 l 563 800 l 563 976 l 772 976 l 772 800 m 872 -44 l 872 694 l 1076 694 l 1076 -44 l 872 -44 m 569 -44 l 569 694 l 771 694 l 771 -44 l 569 -44 m 263 -44 l 263 694 l 465 694 l 465 -44 l 263 -44 z "},"ⅳ":{"ha":1333,"x_min":185,"x_max":1147,"o":"m 394 799 l 185 799 l 185 976 l 394 976 l 394 799 m 1147 693 q 1024 324 1085 507 q 901 -43 964 140 l 697 -43 q 574 324 635 140 q 451 693 514 507 l 682 693 q 729 502 706 597 q 776 311 753 407 q 794 233 786 275 q 806 151 801 192 l 811 151 q 863 423 828 288 q 928 693 897 558 l 1147 693 m 396 -43 l 192 -43 l 192 693 l 396 693 l 396 -43 z "},"ⅴ":{"ha":1333,"x_min":276,"x_max":1057,"o":"m 1057 697 l 764 -39 l 561 -39 q 418 328 489 144 q 276 697 347 511 l 511 697 q 555 560 532 631 q 599 422 578 490 q 639 286 621 353 q 668 158 657 219 l 676 158 q 699 271 682 206 q 738 408 715 336 q 785 555 760 481 q 833 697 811 629 l 1057 697 z "},"ⅵ":{"ha":1333,"x_min":190,"x_max":1143,"o":"m 883 693 l 636 -43 l 432 -43 q 311 324 372 140 q 190 693 250 507 l 419 693 l 514 311 q 530 233 522 275 q 540 151 538 192 l 546 151 q 596 422 561 286 q 664 693 631 558 l 883 693 m 1143 -43 l 942 -43 l 942 693 l 1143 693 l 1143 -43 m 1143 799 l 933 799 l 933 976 l 1143 976 l 1143 799 z "},"ⅶ":{"ha":1333,"x_min":99,"x_max":1233,"o":"m 668 693 l 479 -43 l 292 -43 q 195 324 243 140 q 99 693 147 507 l 306 693 q 331 562 318 625 q 354 434 343 499 q 374 301 365 369 q 389 151 383 232 l 393 151 q 432 428 411 299 q 476 693 453 557 l 668 693 m 915 -43 l 728 -43 l 728 693 l 915 693 l 915 -43 m 1233 -43 l 1047 -43 l 1047 693 l 1233 693 l 1233 -43 m 1232 799 l 1042 799 l 1042 976 l 1232 976 l 1232 799 m 917 799 l 726 799 l 726 976 l 917 976 l 917 799 z "},"ⅷ":{"ha":1333,"x_min":86,"x_max":1246,"o":"m 1242 799 l 1072 799 l 1072 976 l 1242 976 l 1242 799 m 997 799 l 825 799 l 825 976 l 997 976 l 997 799 m 743 799 l 572 799 l 572 976 l 743 976 l 743 799 m 1246 -43 l 1075 -43 l 1075 693 l 1246 693 l 1246 -43 m 996 -43 l 825 -43 l 825 693 l 996 693 l 996 -43 m 744 -43 l 574 -43 l 574 693 l 744 693 l 744 -43 m 538 693 q 467 324 501 507 q 396 -43 432 140 l 238 -43 q 161 324 197 140 q 86 693 125 507 l 275 693 q 288 565 282 624 q 299 443 293 506 q 309 310 304 381 q 321 151 314 240 l 324 151 q 334 299 329 231 q 344 433 339 368 q 354 561 349 497 q 367 693 360 625 l 538 693 z "},"ⅸ":{"ha":1333,"x_min":196,"x_max":1138,"o":"m 933 331 q 1032 142 983 236 q 1131 -43 1081 49 l 899 -43 q 842 76 868 15 q 794 210 815 136 l 789 210 q 742 77 767 139 q 689 -43 717 15 l 471 -43 q 569 139 519 47 q 667 322 618 231 q 568 508 618 415 q 469 693 518 600 l 699 693 q 758 565 728 631 q 810 435 788 499 l 813 435 q 866 567 839 504 q 922 693 893 629 l 1138 693 l 933 331 m 399 -43 l 196 -43 l 196 693 l 399 693 l 399 -43 m 396 799 l 199 799 l 199 976 l 396 976 l 396 799 z "},"ⅹ":{"ha":1333,"x_min":289,"x_max":1043,"o":"m 1043 700 q 1026 674 1043 700 q 982 611 1008 649 q 925 528 956 574 q 867 443 894 483 q 819 374 839 403 q 796 340 800 346 q 818 305 799 335 q 865 233 838 275 q 923 142 892 190 q 980 54 954 94 q 1022 -13 1006 14 q 1039 -40 1039 -40 q 1038 -39 1039 -40 l 794 -39 q 781 -15 794 -37 q 752 33 768 7 q 723 82 736 60 q 710 106 710 104 q 661 215 682 160 l 656 215 q 632 158 644 183 q 604 106 619 133 q 593 84 606 106 q 565 35 581 63 q 538 -15 550 8 q 525 -39 525 -37 l 290 -39 l 289 -40 q 307 -14 289 -40 q 351 53 325 13 q 410 140 378 93 q 469 228 442 186 q 515 299 496 269 q 538 332 535 328 q 515 367 535 338 q 469 437 496 396 q 410 524 442 478 q 353 610 379 571 q 310 674 328 649 q 294 700 293 700 l 532 700 q 544 678 532 697 q 569 635 556 658 q 594 592 583 611 q 606 574 606 574 l 604 574 q 642 511 624 543 q 675 451 660 479 l 679 451 q 713 516 696 485 q 749 578 729 547 l 747 576 q 757 596 747 578 q 778 635 767 614 q 801 676 790 657 q 813 700 811 696 l 811 700 l 813 701 l 813 700 l 1043 700 z "},"Ⅰ":{"ha":1333,"x_min":560,"x_max":772,"o":"m 772 983 l 772 -44 l 560 -44 l 560 983 l 772 983 z "},"Ⅱ":{"ha":1333,"x_min":371,"x_max":961,"o":"m 961 983 l 961 -44 l 751 -44 l 751 983 l 961 983 m 582 983 l 582 -44 l 371 -44 l 371 983 l 582 983 z "},"Ⅲ":{"ha":1333,"x_min":244,"x_max":1089,"o":"m 1089 983 l 1089 -44 l 889 -44 l 889 983 l 1089 983 m 444 983 l 444 -44 l 244 -44 l 244 983 l 444 983 m 756 983 l 756 -44 l 557 -44 l 557 983 l 756 983 z "},"Ⅳ":{"ha":1333,"x_min":138,"x_max":1196,"o":"m 1196 981 q 1047 467 1121 722 q 899 -43 974 213 l 657 -43 q 518 467 586 213 q 381 981 450 722 l 613 981 q 708 573 658 775 q 786 161 757 371 l 790 161 q 821 356 801 257 q 864 547 840 454 l 968 981 l 1196 981 m 336 -43 l 138 -43 l 138 981 l 336 981 l 336 -43 z "},"Ⅴ":{"ha":1333,"x_min":208,"x_max":1125,"o":"m 1125 981 q 947 467 1035 722 q 768 -43 858 213 l 529 -43 l 208 981 l 442 981 q 501 770 469 876 q 563 559 532 664 q 618 353 593 454 q 658 157 643 251 l 661 157 q 701 350 675 250 q 760 554 728 450 q 829 766 793 658 q 899 981 865 874 l 1125 981 z "},"Ⅵ":{"ha":1333,"x_min":117,"x_max":1215,"o":"m 931 981 l 635 -43 l 394 -43 q 256 467 324 213 q 117 981 188 722 l 349 981 q 404 742 376 860 q 460 504 432 624 q 495 334 478 422 q 519 161 513 246 l 524 161 q 556 369 536 265 q 601 574 576 472 q 652 778 625 676 q 704 981 679 879 l 931 981 m 1215 -43 l 1017 -43 l 1017 981 l 1215 981 l 1215 -43 z "},"Ⅶ":{"ha":1333,"x_min":83,"x_max":1250,"o":"m 731 981 l 497 -43 l 313 -43 l 83 981 l 281 981 q 316 784 297 881 q 352 589 335 688 q 385 386 369 490 q 410 168 400 282 l 418 168 q 433 347 419 256 q 460 517 447 438 q 499 749 481 635 q 538 981 518 863 l 731 981 m 1250 -43 l 1065 -43 l 1065 981 l 1250 981 l 1250 -43 m 942 -43 l 757 -43 l 757 981 l 942 981 l 942 -43 z "},"Ⅷ":{"ha":1333,"x_min":75,"x_max":1258,"o":"m 618 981 q 527 467 572 722 q 435 -43 482 213 l 264 -43 l 75 981 l 257 981 l 318 519 q 338 359 325 453 q 354 174 351 265 l 361 174 q 371 356 363 265 q 388 525 379 447 q 411 753 399 639 q 438 981 424 867 l 618 981 m 1036 -43 l 869 -43 l 869 981 l 1036 981 l 1036 -43 m 811 -43 l 647 -43 l 647 981 l 811 981 l 811 -43 m 1258 -43 l 1094 -43 l 1094 981 l 1258 981 l 1258 -43 z "},"Ⅸ":{"ha":1333,"x_min":183,"x_max":1149,"o":"m 918 475 q 1033 215 976 344 q 1149 -43 1090 85 l 928 -43 q 890 56 910 4 q 852 156 871 107 q 817 252 833 206 q 790 338 801 299 l 786 338 q 731 153 764 256 q 667 -43 699 51 l 451 -43 q 562 213 507 85 q 671 472 617 342 l 457 981 l 672 981 q 743 794 708 886 q 803 607 778 703 l 808 607 q 865 799 836 711 q 928 981 894 888 l 1140 981 q 1030 728 1086 853 q 918 475 974 603 m 382 -43 l 183 -43 l 183 981 l 382 981 l 382 -43 z "},"Ⅹ":{"ha":1333,"x_min":246,"x_max":1086,"o":"m 789 475 q 815 427 792 468 q 872 328 839 386 q 944 205 906 271 q 1013 84 982 139 q 1065 -8 1044 29 q 1085 -44 1086 -44 q 1083 -43 1085 -44 l 840 -43 l 840 -44 q 839 -43 839 -44 l 840 -43 q 822 -5 838 -36 q 787 62 806 26 q 753 126 768 97 q 739 157 739 154 l 740 157 q 689 261 707 219 q 654 339 671 303 l 650 339 q 622 262 639 303 q 575 157 606 221 q 562 125 575 154 q 533 61 549 96 q 503 -5 518 26 q 488 -43 489 -36 l 489 -43 l 488 -44 l 488 -43 l 247 -43 l 246 -44 q 266 -5 246 -42 q 316 86 286 32 q 382 203 346 140 q 449 322 418 267 q 503 418 481 378 q 529 468 525 458 l 531 468 l 531 471 l 529 471 q 531 469 529 469 l 529 468 l 529 471 q 503 522 525 481 q 451 619 482 563 q 385 738 419 675 q 321 855 350 801 q 272 944 292 908 q 253 983 253 981 l 254 982 l 496 982 q 504 964 496 981 q 524 923 513 947 q 550 871 536 899 q 576 819 564 843 q 596 778 588 794 q 604 760 604 761 q 639 677 625 711 q 664 603 653 643 l 669 603 q 685 644 678 625 q 698 682 692 664 q 711 718 704 700 q 729 758 718 736 l 729 760 q 738 778 729 761 q 758 820 746 796 q 783 873 769 844 q 809 926 797 901 q 828 966 821 950 q 835 982 836 982 l 1076 982 q 1078 983 1076 983 q 1058 944 1078 981 q 1006 855 1038 908 q 938 739 975 801 q 869 620 901 676 q 815 524 838 564 q 789 476 792 485 l 790 476 l 789 475 z "},"Α":{"ha":954,"x_min":17,"x_max":933,"o":"m 592 381 l 515 618 q 489 715 503 663 q 464 813 475 767 l 461 813 q 438 715 450 768 q 415 617 426 661 l 343 381 l 592 381 m 313 226 l 231 -53 l 17 -53 l 338 972 l 607 972 l 933 -53 l 708 -53 l 622 226 l 313 226 z "},"Β":{"ha":872,"x_min":94,"x_max":824,"o":"m 299 96 q 340 92 317 93 q 390 92 363 92 q 474 100 435 92 q 543 127 514 108 q 590 177 572 146 q 607 253 607 208 q 590 325 607 296 q 542 372 572 354 q 472 399 513 390 q 385 407 432 407 l 299 407 l 299 96 m 299 558 l 385 558 q 531 596 482 558 q 581 696 581 633 q 533 796 581 765 q 400 826 486 826 q 337 824 360 826 q 299 818 314 821 l 299 558 m 94 957 q 148 965 117 961 q 217 972 179 969 q 295 977 254 975 q 378 979 336 979 q 553 965 483 979 q 674 917 622 950 q 758 839 726 889 q 790 719 790 789 q 747 591 790 650 q 618 503 704 532 l 618 497 q 697 465 660 486 q 763 411 735 443 q 808 338 792 379 q 824 246 824 297 q 796 122 824 176 q 724 32 768 68 q 574 -40 669 -17 q 332 -62 479 -62 q 190 -58 249 -62 q 94 -49 131 -54 l 94 957 z "},"Γ":{"ha":701,"x_min":94,"x_max":696,"o":"m 696 972 l 696 797 l 301 797 l 301 -53 l 94 -53 l 94 972 l 696 972 z "},"Δ":{"ha":949,"x_min":14,"x_max":926,"o":"m 14 51 q 84 244 54 164 q 137 390 114 325 q 181 511 160 454 q 225 633 201 568 q 278 778 249 697 q 351 972 308 858 l 597 972 q 669 778 639 860 q 722 633 699 697 q 765 512 744 568 q 807 391 785 456 q 858 246 829 326 q 926 53 886 165 l 926 -53 l 14 -53 l 14 51 m 689 117 q 654 219 668 178 q 630 291 640 260 q 611 348 619 322 q 592 405 603 374 q 567 477 582 436 q 531 581 553 518 q 491 708 508 650 q 464 800 474 767 l 461 800 l 401 593 q 365 488 379 529 q 340 414 350 446 q 320 355 329 382 q 301 296 311 328 q 275 222 290 264 q 238 117 260 179 l 689 117 z "},"Ε":{"ha":775,"x_min":96,"x_max":728,"o":"m 685 393 l 301 393 l 301 118 l 728 118 l 728 -53 l 96 -53 l 96 972 l 706 972 l 706 801 l 301 801 l 301 563 l 685 563 l 685 393 z "},"Ζ":{"ha":846,"x_min":28,"x_max":810,"o":"m 28 60 l 535 793 l 535 800 l 71 800 l 71 972 l 801 972 l 801 851 l 304 125 l 304 121 l 810 121 l 810 -53 l 28 -53 l 28 60 z "},"Η":{"ha":1006,"x_min":92,"x_max":915,"o":"m 299 972 l 299 568 l 707 568 l 707 972 l 915 972 l 915 -53 l 707 -53 l 707 389 l 299 389 l 299 -53 l 92 -53 l 92 972 l 299 972 z "},"Θ":{"ha":1054,"x_min":38,"x_max":1015,"o":"m 694 554 l 694 385 l 356 385 l 356 554 l 694 554 m 529 96 q 642 124 593 96 q 726 202 692 153 q 778 318 760 251 q 796 463 796 385 q 778 599 796 533 q 728 713 761 664 q 644 790 694 761 q 529 819 594 819 q 411 791 463 819 q 325 713 360 763 q 273 598 290 664 q 256 457 256 532 q 274 317 256 382 q 328 202 293 251 q 413 124 363 153 q 528 96 464 96 l 529 96 m 515 -69 q 316 -30 404 -69 q 166 79 228 10 q 71 244 104 149 q 38 451 38 340 q 73 667 38 568 q 174 837 108 765 q 331 949 239 908 q 533 989 422 989 q 738 949 647 989 q 889 838 828 908 q 983 672 950 767 q 1015 468 1015 576 q 978 240 1015 340 q 875 72 942 140 q 717 -33 808 3 q 517 -69 625 -69 l 515 -69 z "},"Ι":{"ha":403,"x_min":100,"x_max":307,"o":"m 307 972 l 307 -53 l 100 -53 l 100 972 l 307 972 z "},"Κ":{"ha":885,"x_min":94,"x_max":903,"o":"m 94 972 l 297 972 l 297 508 l 300 508 q 338 567 319 539 q 375 619 356 596 l 626 972 l 882 972 l 535 535 l 903 -53 l 661 -53 l 388 404 l 297 297 l 297 -53 l 94 -53 l 94 972 z "},"Λ":{"ha":943,"x_min":17,"x_max":938,"o":"m 708 -53 l 517 582 q 489 690 503 638 q 464 794 475 743 l 460 794 l 415 581 l 235 -53 l 17 -53 l 338 972 l 603 972 l 938 -53 l 708 -53 z "},"Μ":{"ha":1236,"x_min":64,"x_max":1175,"o":"m 956 356 q 946 561 950 451 q 943 779 942 671 l 939 779 q 883 581 913 683 q 819 385 853 478 l 681 -40 l 521 -40 l 397 379 q 342 576 367 472 q 297 779 318 681 l 293 779 q 286 563 290 676 q 278 350 282 450 l 258 -53 l 64 -53 l 129 972 l 407 972 l 524 593 q 574 411 550 503 q 617 231 597 319 l 619 231 q 666 411 640 318 q 719 594 692 504 l 846 972 l 1115 972 l 1175 -53 l 974 -53 l 956 356 z "}}}
